<?xml version="1.0" standalone="no"?>
<!DOCTYPE svg PUBLIC "-//W3C//DTD SVG 1.1//EN" "http://www.w3.org/Graphics/SVG/1.1/DTD/svg11.dtd" >
<svg xmlns="http://www.w3.org/2000/svg" xmlns:xlink="http://www.w3.org/1999/xlink" version="1.1">
<metadata>
Created by FontForge 20170731 at Mon Oct 24 20:22:34 2016
 By Aleksey,,,
2016 published by Monotype GmbH
</metadata>
<defs>
<font id="DINOTWXX-Medium" horiz-adv-x="886" >
  <font-face 
    font-family="DINOTWXX-Medium"
    font-weight="400"
    font-stretch="normal"
    units-per-em="1000"
    panose-1="2 11 6 4 2 2 1 1 1 4"
    ascent="764"
    descent="-236"
    x-height="507"
    cap-height="712"
    bbox="-191 -232 1137 1134"
    underline-thickness="50"
    underline-position="-175"
    unicode-range="U+0020-FEFF"
  />
<missing-glyph horiz-adv-x="568" 
d="M487 0h-406v712h406v-712zM151 642v-572h266v572h-266z" />
    <glyph glyph-name=".notdef" horiz-adv-x="568" 
d="M487 0h-406v712h406v-712zM151 642v-572h266v572h-266z" />
    <glyph glyph-name="glyph1" horiz-adv-x="0" 
 />
    <glyph glyph-name="glyph2" horiz-adv-x="240" 
 />
    <glyph glyph-name="space" unicode=" " horiz-adv-x="240" 
 />
    <glyph glyph-name="exclam" unicode="!" horiz-adv-x="332" 
d="M223 212h-80l-22 500h124zM239 0h-112v109h112v-109z" />
    <glyph glyph-name="quotedbl" unicode="&#x22;" horiz-adv-x="444" 
d="M366 521h-101v191h101v-191zM179 521h-101v191h101v-191z" />
    <glyph glyph-name="numbersign" unicode="#" horiz-adv-x="689" 
d="M544 520h78v-94h-92l-20 -124h79v-94h-94l-33 -208h-106l33 208h-137l-32 -208h-107l33 208h-79v94h94l20 124h-81v94h95l31 196h107l-31 -196h136l31 196h106zM287 426l-20 -124h137l19 124h-136z" />
    <glyph glyph-name="dollar" unicode="$" horiz-adv-x="608" 
d="M340 717q60 -4 105 -23t86 -57l-69 -68q-26 25 -59.5 38t-71.5 16v-216q40 -6 67 -12t45 -12.5t30.5 -15t24.5 -18.5q29 -26 43.5 -63t14.5 -83q0 -45 -15.5 -81t-44 -62t-68.5 -42.5t-88 -20.5v-111h-82v108q-72 3 -126 24.5t-102 69.5l72 71q36 -36 76.5 -51t88.5 -17
v222q-65 7 -100.5 22t-59.5 38q-53 50 -53 136t53.5 142t150.5 65v90h82v-89zM331 93q56 5 87 32.5t31 74.5q0 49 -28 74q-18 17 -40 22t-50 9v-212zM267 622q-53 -5 -80.5 -35t-27.5 -74q0 -20 6.5 -36.5t20.5 -29.5q16 -14 37 -22t44 -11v208z" />
    <glyph glyph-name="percent" unicode="%" horiz-adv-x="841" 
d="M548 712h81l-335 -712h-82zM198 344q-29 0 -54.5 9t-44.5 26.5t-30 43t-11 58.5v101q0 33 11 58.5t30 42.5t44.5 26t54.5 9t54.5 -9t44.5 -26t30 -42.5t11 -58.5v-101q0 -33 -11 -58.5t-30 -43t-44.5 -26.5t-54.5 -9zM198 413q29 0 46.5 18.5t17.5 54.5v90
q0 36 -17.5 54.5t-46.5 18.5t-46 -18.5t-17 -54.5v-90q0 -36 17 -54.5t46 -18.5zM643 -6q-29 0 -54.5 9t-44.5 26t-30 42.5t-11 58.5v101q0 33 11 58.5t30 43t44.5 26.5t54.5 9t54.5 -9t44.5 -26.5t30 -43t11 -58.5v-101q0 -33 -11 -58.5t-30 -42.5t-44.5 -26t-54.5 -9z
M643 63q29 0 46 18.5t17 54.5v90q0 36 -17 54.5t-46 18.5t-46.5 -18.5t-17.5 -54.5v-90q0 -36 17.5 -54.5t46.5 -18.5z" />
    <glyph glyph-name="ampersand" unicode="&#x26;" horiz-adv-x="707" 
d="M310 718q38 0 69 -12t53.5 -33.5t34.5 -50.5t12 -63q0 -42 -21 -72.5t-55 -53.5l-52 -36l150 -179q20 28 28.5 61t9.5 82h98q-2 -69 -18.5 -123t-52.5 -96l119 -142h-131l-58 70q-12 -10 -29 -23t-41 -25t-55.5 -20t-71.5 -8q-112 0 -171 57.5t-59 154.5q0 37 12 66.5
t32 53.5t45.5 44t51.5 37q-12 14 -25 30.5t-24 35.5t-18 40.5t-7 46.5q0 34 12.5 63t35 50t54.5 33t72 12zM266 343q-20 -14 -37 -27.5t-30.5 -29t-21 -34.5t-7.5 -44q0 -54 36.5 -87.5t92.5 -33.5q36 0 68.5 11.5t67.5 43.5zM310 629q-33 0 -51.5 -20t-18.5 -50
q0 -22 14 -44t41 -54l34 23q21 14 36.5 31.5t15.5 42.5q0 30 -19.5 50.5t-51.5 20.5z" />
    <glyph glyph-name="quotesingle" unicode="'" horiz-adv-x="257" 
d="M179 521h-101v191h101v-191z" />
    <glyph glyph-name="parenleft" unicode="(" horiz-adv-x="316" 
d="M255 736l-32 -32q-13 -13 -24 -34q-15 -29 -15 -81v-466q0 -53 15 -81q11 -21 24 -35l32 -31l-70 -70q-29 29 -48 49.5t-33 45.5q-16 28 -19.5 56.5t-3.5 59.5v478q0 30 4 59.5t19 56.5q7 12 14.5 22.5t17 21.5t21.5 23l28 28z" />
    <glyph glyph-name="parenright" unicode=")" horiz-adv-x="316" 
d="M131 806q29 -29 48 -49.5t33 -45.5q16 -28 19.5 -56.5t3.5 -59.5v-478q0 -30 -4 -59.5t-19 -56.5q-7 -12 -14.5 -22.5t-17 -21.5t-21.5 -23l-28 -28l-70 70l31 31q14 14 25 35q15 28 15 81v466q0 52 -15 81q-11 21 -25 34l-31 32z" />
    <glyph glyph-name="asterisk" unicode="*" horiz-adv-x="497" 
d="M282 582l111 69l37 -65l-115 -62l115 -61l-37 -65l-111 69l4 -131h-75l4 131l-111 -69l-37 65l115 61l-115 62l37 65l111 -69l-4 130h75z" />
    <glyph glyph-name="plus" unicode="+" horiz-adv-x="533" 
d="M314 325h168v-95h-168v-168h-95v168h-168v95h168v167h95v-167z" />
    <glyph glyph-name="comma" unicode="," horiz-adv-x="272" 
d="M194 -60l-116 -95v271h116v-176z" />
    <glyph glyph-name="hyphen" unicode="-" horiz-adv-x="426" 
d="M359 230h-292v95h292v-95z" />
    <glyph glyph-name="period" unicode="." horiz-adv-x="278" 
d="M200 0h-122v122h122v-122z" />
    <glyph glyph-name="slash" unicode="/" horiz-adv-x="383" 
d="M98 -74h-98l285 860h98z" />
    <glyph glyph-name="zero" unicode="0" horiz-adv-x="533" 
d="M266 -6q-42 0 -79.5 14t-65.5 40.5t-44 64t-16 85.5v316q0 48 16 85.5t44 64t65.5 40.5t79.5 14q43 0 80.5 -14t65.5 -40.5t44 -64t16 -85.5v-316q0 -48 -16 -85.5t-44 -64t-65.5 -40.5t-80.5 -14zM266 85q49 0 76.5 32.5t27.5 83.5v310q0 51 -27.5 83.5t-76.5 32.5
q-48 0 -75.5 -32.5t-27.5 -83.5v-310q0 -51 27.5 -83.5t75.5 -32.5z" />
    <glyph glyph-name="one" unicode="1" horiz-adv-x="533" 
d="M253 601l-139 -122v113l139 120h102v-712h-102v601z" />
    <glyph glyph-name="two" unicode="2" horiz-adv-x="533" 
d="M63 91l274 333q20 25 29 46.5t9 48.5q0 48 -27 78t-77 30q-20 0 -39 -6t-33.5 -19t-23.5 -34t-9 -51h-102q0 45 15.5 82.5t43 63.5t65.5 40.5t83 14.5q46 0 84 -14t65 -40t42 -63t15 -83q0 -47 -17 -80.5t-50 -73.5l-223 -273h290v-91h-414v91z" />
    <glyph glyph-name="three" unicode="3" horiz-adv-x="533" 
d="M260 -7q-43 0 -81.5 11.5t-68.5 36t-48.5 62.5t-19.5 90h102q1 -29 11.5 -49t26 -33.5t36 -19.5t42.5 -6q50 0 83 30.5t33 87.5q0 54 -29.5 85.5t-89.5 31.5h-17v89h17q56 0 82 29t26 78q0 54 -30.5 82t-74.5 28q-47 0 -75 -27t-32 -75h-102q2 45 19 81t45 61t65 38.5
t80 13.5q45 0 83 -14.5t65.5 -41t43 -63t15.5 -80.5q0 -57 -23.5 -94t-65.5 -57q46 -20 73 -61t27 -107q0 -51 -17.5 -90t-47 -65t-69 -39t-84.5 -13z" />
    <glyph glyph-name="four" unicode="4" horiz-adv-x="533" 
d="M323 107h-288v95l251 510h110l-250 -510h177v166h99v-166h76v-95h-76v-107h-99v107z" />
    <glyph glyph-name="five" unicode="5" horiz-adv-x="533" 
d="M269 -6q-51 0 -90 16t-62 39q-29 29 -40 63.5t-14 72.5h102q6 -48 31 -73.5t73 -25.5q46 0 74 28q23 23 28.5 56t5.5 69q0 32 -4.5 59t-16.5 47t-32 31t-51 11q-44 0 -68.5 -19t-32.5 -45h-93v389h384v-91h-292v-188q18 19 48.5 30t69.5 11q42 0 74 -12t54 -34
q20 -20 32.5 -43t19 -47t8.5 -49t2 -50q0 -57 -10.5 -103.5t-49.5 -85.5q-24 -24 -61 -40t-89 -16z" />
    <glyph glyph-name="six" unicode="6" horiz-adv-x="533" 
d="M267 -6q-47 0 -85.5 14.5t-66.5 42.5t-43.5 67t-15.5 89q0 37 11 75t39 95l165 335h109l-155 -310q14 8 31 11.5t34 3.5q39 0 73 -15t59.5 -42t40 -65t14.5 -84q0 -49 -15.5 -89t-43 -68.5t-66.5 -44t-85 -15.5zM266 85q49 0 79 33t30 91q0 53 -29 88t-80 35
q-48 0 -78 -33t-30 -90q0 -58 30 -91t78 -33z" />
    <glyph glyph-name="seven" unicode="7" horiz-adv-x="533" 
d="M378 621h-217v-112h-98v203h424v-91l-238 -621h-110z" />
    <glyph glyph-name="eight" unicode="8" horiz-adv-x="533" 
d="M266 -6q-46 0 -86 14t-69.5 41t-46.5 65.5t-17 86.5q0 32 8.5 58t22 46.5t31 36t36.5 26.5q-35 21 -60.5 58.5t-25.5 94.5q0 45 16 81t44 62t65.5 40t81.5 14q43 0 81 -14t66.5 -40t44.5 -62t16 -81q0 -57 -25.5 -94.5t-60.5 -58.5q19 -11 36.5 -26.5t31 -36t22 -46.5
t8.5 -58q0 -48 -17 -86.5t-47 -65.5t-70 -41t-86 -14zM266 85q25 0 46 9t37 25t25 37.5t9 46.5t-9 46.5t-25 37.5t-37 25.5t-46 9.5t-46.5 -9.5t-37 -25.5t-24.5 -37.5t-9 -46.5t9 -46.5t24.5 -37.5t37 -25t46.5 -9zM266 410q47 0 76.5 30t29.5 78q0 47 -29.5 78t-76.5 31
t-76 -31t-29 -78q0 -48 29 -78t76 -30z" />
    <glyph glyph-name="nine" unicode="9" horiz-adv-x="533" 
d="M310 310q-14 -8 -31.5 -11.5t-34.5 -3.5q-38 0 -72 14.5t-59.5 41.5t-40 65t-14.5 85q0 49 15.5 89t43 68.5t66 44t85.5 15.5q46 0 84.5 -14.5t66.5 -42.5t43.5 -67.5t15.5 -88.5q0 -37 -10.5 -75t-38.5 -95l-165 -335h-110zM268 380q49 0 78.5 33t29.5 90q0 58 -29.5 91
t-78.5 33q-48 0 -78 -33t-30 -91q0 -53 28.5 -88t79.5 -35z" />
    <glyph glyph-name="colon" unicode=":" horiz-adv-x="303" 
d="M225 285h-121v122h121v-122zM225 0h-121v122h121v-122z" />
    <glyph glyph-name="semicolon" unicode=";" horiz-adv-x="303" 
d="M222 -60l-116 -95v271h116v-176zM225 285h-121v122h121v-122z" />
    <glyph glyph-name="less" unicode="&#x3c;" horiz-adv-x="533" 
d="M451 392l-245 -115l245 -114v-108l-369 177v91l369 177v-108z" />
    <glyph glyph-name="equal" unicode="=" horiz-adv-x="533" 
d="M482 327h-431v95h431v-95zM482 133h-431v95h431v-95z" />
    <glyph glyph-name="greater" unicode="&#x3e;" horiz-adv-x="533" 
d="M451 323v-91l-369 -177v108l245 114l-245 115v108z" />
    <glyph glyph-name="question" unicode="?" horiz-adv-x="511" 
d="M270 718q41 0 77.5 -13.5t63.5 -38t43 -60t16 -79.5q0 -36 -14 -65.5t-34 -57.5l-77 -108q-8 -11 -13 -26.5t-5 -27.5v-30h-102v35q0 31 8 53t26 46l78 105q14 18 22.5 36.5t8.5 39.5q0 42 -27 71t-71 29q-47 0 -72 -30t-25 -71h-102q0 42 15 77.5t42 61t63.5 39.5
t78.5 14zM332 0h-113v109h113v-109z" />
    <glyph glyph-name="at" unicode="@" horiz-adv-x="756" 
d="M444 715q54 0 96 -13.5t74 -45.5t46 -75t14 -100v-481h-95v52q-29 -33 -59 -45.5t-71 -12.5q-38 0 -68.5 11.5t-50.5 31.5q-35 35 -45.5 85t-10.5 112t10 112.5t46 85.5q20 20 50.5 31t68.5 11t69 -11.5t58 -43.5v61q0 35 -7.5 60.5t-29.5 47.5q-20 20 -46 27.5t-59 7.5
h-127q-32 0 -57.5 -7t-47.5 -28q-23 -22 -30 -47t-7 -61v-312q0 -21 2.5 -36.5t8.5 -27.5t15.5 -23t24.5 -23l-70 -70q-22 18 -37 35t-24.5 37.5t-13.5 45t-4 57.5v318q0 57 13.5 100t45.5 75t74 45.5t97 13.5h147zM475 388q-31 0 -51 -12t-31 -32.5t-15.5 -48.5t-4.5 -61
t4.5 -61t15.5 -48.5t31 -32.5t51 -12t50.5 12t30.5 32.5t15.5 48.5t4.5 61t-4.5 61t-15.5 48.5t-30.5 32.5t-50.5 12z" />
    <glyph glyph-name="A" unicode="A" horiz-adv-x="625" 
d="M617 0h-115l-49 143h-281l-49 -143h-115l261 712h87zM203 235h219l-110 316z" />
    <glyph glyph-name="B" unicode="B" horiz-adv-x="663" 
d="M370 712q100 0 157.5 -52t57.5 -143q0 -29 -8.5 -53.5t-22 -44t-30.5 -33t-35 -20.5q21 -8 40 -22.5t34 -34.5t24 -47t9 -61q0 -49 -16 -86.5t-44.5 -63t-68 -38.5t-86.5 -13h-288v712h277zM201 314v-217h170q57 0 87 30.5t30 78.5t-30 78t-87 30h-170zM201 615v-204h160
q52 0 84 26t32 76t-32 76t-84 26h-160z" />
    <glyph glyph-name="C" unicode="C" horiz-adv-x="628" 
d="M323 718q99 0 167 -56.5t87 -162.5h-110q-12 55 -48 88.5t-96 33.5q-65 0 -105 -43q-14 -14 -22 -31t-13 -41.5t-6.5 -60.5t-1.5 -89t1.5 -89t6.5 -60.5t13 -41.5t22 -31q40 -43 105 -43q60 0 96 33.5t48 88.5h110q-19 -106 -87.5 -162.5t-166.5 -56.5q-59 0 -104 18.5
t-80 53.5q-26 26 -40.5 54t-21.5 61.5t-8.5 76t-1.5 98.5t1.5 98.5t8.5 76t21.5 61.5t40.5 54q35 35 80 53.5t104 18.5z" />
    <glyph glyph-name="D" unicode="D" horiz-adv-x="666" 
d="M343 712q67 0 115.5 -21.5t86.5 -68.5q19 -24 30 -52.5t16.5 -61.5t6.5 -71t1 -81t-1 -81t-6.5 -71t-16.5 -61.5t-30 -52.5q-38 -47 -86.5 -68.5t-115.5 -21.5h-250v712h250zM201 615v-518h130q38 0 68.5 11t53.5 37q26 29 32 80t6 131t-6 131t-32 80q-23 26 -53.5 37
t-68.5 11h-130z" />
    <glyph glyph-name="E" unicode="E" horiz-adv-x="603" 
d="M548 615h-347v-208h296v-97h-296v-213h347v-97h-455v712h455v-97z" />
    <glyph glyph-name="F" unicode="F" horiz-adv-x="585" 
d="M548 615h-347v-217h296v-97h-296v-301h-108v712h455v-97z" />
    <glyph glyph-name="G" unicode="G" horiz-adv-x="649" 
d="M323 718q56 0 101 -17.5t77.5 -47.5t52.5 -70t27 -85h-108q-14 59 -52 91t-98 32q-65 0 -106 -43q-13 -14 -21.5 -31t-13 -41.5t-6 -60.5t-1.5 -89t1.5 -89t6 -60.5t13 -41.5t21.5 -31q41 -43 106 -43q35 0 65.5 12.5t51.5 37.5q20 23 27.5 50t7.5 62v40h-152v92h260
v-109q0 -70 -14.5 -116.5t-49.5 -84.5q-40 -42 -89.5 -61.5t-106.5 -19.5q-59 0 -104 18.5t-80 53.5q-26 26 -40.5 54t-21.5 61.5t-8.5 76t-1.5 98.5t1.5 98.5t8.5 76t21.5 61.5t40.5 54q35 35 80 53.5t104 18.5z" />
    <glyph glyph-name="H" unicode="H" horiz-adv-x="691" 
d="M598 0h-108v311h-289v-311h-108v712h108v-304h289v304h108v-712z" />
    <glyph glyph-name="I" unicode="I" horiz-adv-x="294" 
d="M201 0h-108v712h108v-712z" />
    <glyph glyph-name="J" unicode="J" horiz-adv-x="505" 
d="M423 225q0 -56 -18.5 -99t-51 -72t-75.5 -44.5t-92 -15.5q-55 0 -95.5 16t-77.5 53l72 71q19 -19 40.5 -31t60.5 -12q60 0 94.5 36t34.5 106v479h108v-487z" />
    <glyph glyph-name="K" unicode="K" horiz-adv-x="658" 
d="M393 433l255 -433h-127l-200 351l-120 -144v-207h-108v712h108v-358l291 358h132z" />
    <glyph glyph-name="L" unicode="L" horiz-adv-x="574" 
d="M201 97h343v-97h-451v712h108v-615z" />
    <glyph glyph-name="M" unicode="M" horiz-adv-x="814" 
d="M721 0h-108v476l-164 -347h-80l-168 347v-476h-108v712h108l208 -443l204 443h108v-712z" />
    <glyph glyph-name="N" unicode="N" horiz-adv-x="722" 
d="M629 0h-99l-329 501v-501h-108v712h99l329 -501v501h108v-712z" />
    <glyph glyph-name="O" unicode="O" horiz-adv-x="646" 
d="M323 718q59 0 104 -18.5t80 -53.5q26 -26 40.5 -54t21.5 -61.5t8.5 -76t1.5 -98.5t-1.5 -98.5t-8.5 -76t-21.5 -61.5t-40.5 -54q-35 -35 -80 -53.5t-104 -18.5t-104 18.5t-80 53.5q-26 26 -40.5 54t-21.5 61.5t-8.5 76t-1.5 98.5t1.5 98.5t8.5 76t21.5 61.5t40.5 54
q35 35 80 53.5t104 18.5zM323 621q-65 0 -106 -43q-13 -14 -21.5 -31t-13 -41.5t-6 -60.5t-1.5 -89t1.5 -88.5t6 -60.5t13 -41.5t21.5 -30.5q42 -44 106 -44t106 44q13 14 21.5 30.5t13 41t6 60.5t1.5 89t-1.5 89t-6 61t-13 41.5t-21.5 30.5q-41 43 -106 43z" />
    <glyph glyph-name="P" unicode="P" horiz-adv-x="629" 
d="M363 712q52 0 94 -16.5t72 -45t46 -68.5t16 -86q0 -47 -16 -86t-46 -68t-72 -45t-94 -16h-162v-281h-108v712h270zM201 615v-237h156q57 0 91.5 30.5t34.5 87.5t-34.5 88t-91.5 31h-156z" />
    <glyph glyph-name="Q" unicode="Q" horiz-adv-x="646" 
d="M323 718q59 0 104 -18.5t80 -53.5q26 -26 40.5 -54t21.5 -61.5t8.5 -76t1.5 -98.5q0 -48 -1 -85.5t-5.5 -68.5t-13.5 -56.5t-26 -48.5l70 -70l-60 -59l-70 70q-61 -44 -150 -44q-59 0 -104 18.5t-80 53.5q-26 26 -40.5 54t-21.5 61.5t-8.5 76t-1.5 98.5t1.5 98.5t8.5 76
t21.5 61.5t40.5 54q35 35 80 53.5t104 18.5zM323 621q-65 0 -106 -43q-13 -14 -21.5 -31t-13 -41.5t-6 -60.5t-1.5 -89t1.5 -88.5t6 -60.5t13 -41.5t21.5 -30.5q42 -44 106 -44q42 0 76 20l-78 78l60 60l74 -74q10 26 13 67.5t3 113.5q0 53 -1.5 89t-6 61t-13 41.5
t-21.5 30.5q-41 43 -106 43z" />
    <glyph glyph-name="R" unicode="R" horiz-adv-x="655" 
d="M369 712q51 0 91.5 -15.5t69.5 -43t44.5 -66t15.5 -83.5q0 -77 -41 -124.5t-101 -64.5l164 -315h-126l-150 300h-135v-300h-108v712h276zM201 615v-223h160q54 0 87.5 29t33.5 82t-33.5 82.5t-87.5 29.5h-160z" />
    <glyph glyph-name="S" unicode="S" horiz-adv-x="590" 
d="M292 718q72 0 123.5 -19t97.5 -62l-68 -68q-33 32 -72 43.5t-85 11.5q-63 0 -96 -31t-33 -80q0 -20 6 -37t20 -29t31.5 -19.5t46.5 -12.5l85 -13q49 -8 79 -20t53 -33q58 -53 58 -146q0 -49 -19 -88t-53 -66t-81 -41t-103 -14q-81 0 -140.5 21t-111.5 73l71 71
q39 -39 84 -54t99 -15q71 0 109 28.5t38 81.5q0 50 -28 74q-26 23 -78 30l-84 12q-89 14 -134 57q-53 48 -53 137q0 46 16.5 84.5t47 66t74.5 42.5t100 15z" />
    <glyph glyph-name="T" unicode="T" horiz-adv-x="560" 
d="M530 615h-196v-615h-108v615h-196v97h500v-97z" />
    <glyph glyph-name="U" unicode="U" horiz-adv-x="675" 
d="M593 240q0 -55 -19.5 -100.5t-54 -77.5t-81.5 -50t-101 -18t-101 18t-81 50t-53.5 77.5t-19.5 100.5v472h108v-467q0 -72 40 -113t107 -41t107.5 41t40.5 113v467h108v-472z" />
    <glyph glyph-name="V" unicode="V" horiz-adv-x="564" 
d="M6 712h112l164 -519l164 519h112l-235 -712h-83z" />
    <glyph glyph-name="W" unicode="W" horiz-adv-x="871" 
d="M674 0h-94l-145 499l-144 -499h-94l-186 712h114l124 -509l143 509h87l143 -509l124 509h114z" />
    <glyph glyph-name="X" unicode="X" horiz-adv-x="578" 
d="M347 365l221 -365h-125l-155 273l-154 -273h-124l220 365l-206 347h124l140 -255l141 255h124z" />
    <glyph glyph-name="Y" unicode="Y" horiz-adv-x="544" 
d="M326 293v-293h-108v293l-213 419h118l149 -313l149 313h118z" />
    <glyph glyph-name="Z" unicode="Z" horiz-adv-x="552" 
d="M504 624l-330 -527h330v-97h-456v88l330 527h-316v97h442v-88z" />
    <glyph glyph-name="bracketleft" unicode="[" horiz-adv-x="339" 
d="M299 695h-116v-678h116v-91h-218v860h218v-91z" />
    <glyph glyph-name="backslash" unicode="\" horiz-adv-x="380" 
d="M380 -74h-98l-282 852h98z" />
    <glyph glyph-name="bracketright" unicode="]" horiz-adv-x="339" 
d="M258 -74h-218v91h116v678h-116v91h218v-860z" />
    <glyph glyph-name="asciicircum" unicode="^" horiz-adv-x="533" 
d="M484 400h-106l-112 207l-112 -207h-106l172 318h93z" />
    <glyph glyph-name="underscore" unicode="_" horiz-adv-x="571" 
d="M571 -172h-571v69h571v-69z" />
    <glyph glyph-name="grave" unicode="`" horiz-adv-x="537" 
d="M309 599h-77l-111 162h113z" />
    <glyph glyph-name="a" unicode="a" horiz-adv-x="530" 
d="M245 513q106 0 157.5 -44t51.5 -130v-339h-100v46q-28 -28 -58 -40t-77 -12q-48 0 -80.5 11.5t-55.5 34.5q-40 42 -40 109q0 64 44 105t132 41h133v36q0 49 -25.5 72t-85.5 23q-41 0 -65 -11.5t-46 -38.5l-66 63q18 21 36.5 35t40 23t47 12.5t57.5 3.5zM235 224
q-93 0 -93 -73q0 -35 22.5 -53.5t73.5 -18.5q27 0 49.5 5t42.5 24q22 21 22 75v41h-117z" />
    <glyph glyph-name="b" unicode="b" horiz-adv-x="553" 
d="M183 456q28 33 60 45t73 12q38 0 70 -12t53 -33q18 -19 29.5 -43t17.5 -51.5t8 -58t2 -61.5q0 -63 -10 -120t-47 -95q-21 -21 -53.5 -33t-70.5 -12q-41 0 -73 12.5t-61 47.5v-54h-100v712h102v-256zM289 422q-35 0 -56 -13.5t-32 -36.5t-14.5 -53.5t-3.5 -64.5t3.5 -64.5
t14.5 -54t32 -37t56 -13.5q34 0 55 13.5t32 37t14.5 54t3.5 64.5t-3.5 64.5t-14.5 53.5t-32 36.5t-55 13.5z" />
    <glyph glyph-name="c" unicode="c" horiz-adv-x="487" 
d="M283 513q53 0 92 -16.5t75 -54.5l-70 -68q-24 26 -45.5 37t-51.5 11q-60 0 -94 -45q-17 -21 -23.5 -49.5t-6.5 -73.5t6.5 -74t23.5 -50q34 -45 94 -45q30 0 51.5 11t45.5 37l70 -67q-36 -38 -75 -55t-92 -17q-43 0 -83.5 14t-72 45t-51 80.5t-19.5 120.5t19.5 120.5
t51 80t72 44.5t83.5 14z" />
    <glyph glyph-name="d" unicode="d" horiz-adv-x="553" 
d="M472 0h-100v54q-29 -35 -61 -47.5t-73 -12.5q-39 0 -71 12t-53 33q-18 19 -29.5 43t-17.5 51.5t-8 58t-2 61.5t2 61.5t8 58.5t17.5 52t29.5 43q21 21 52.5 33t70.5 12q41 0 73 -12t60 -46v257h102v-712zM264 422q-35 0 -55.5 -14t-31.5 -37t-14.5 -53.5t-3.5 -64.5
t3.5 -64.5t14.5 -53.5t31.5 -36.5t55.5 -13.5t56 13.5t32 36.5t14.5 53.5t3.5 64.5t-3.5 64.5t-14.5 53.5t-32 37t-56 14z" />
    <glyph glyph-name="e" unicode="e" horiz-adv-x="540" 
d="M156 224q0 -66 33 -104t96 -38q43 0 69.5 12.5t53.5 39.5l65 -61q-20 -20 -39.5 -34.5t-42 -24.5t-49 -15t-59.5 -5q-48 0 -89.5 13.5t-72 44t-48.5 80.5t-18 122q0 125 58.5 192t156.5 67q51 0 91 -17.5t67.5 -50t42 -78t14.5 -100.5v-43h-329zM384 295q-2 23 -4 37.5
t-10 31.5q-13 29 -38.5 46.5t-61.5 17.5q-37 0 -62.5 -17.5t-38.5 -46.5q-8 -17 -10 -31.5t-3 -37.5h228z" />
    <glyph glyph-name="f" unicode="f" horiz-adv-x="328" 
d="M300 625h-45q-29 0 -42.5 -15.5t-13.5 -43.5v-59h101v-78h-101v-429h-102v429h-58v78h58v64q0 27 8.5 52.5t25.5 45t43 31.5t62 12h64v-87z" />
    <glyph glyph-name="g" unicode="g" horiz-adv-x="549" 
d="M236 513q41 0 72.5 -12.5t60.5 -47.5v54h99v-504q0 -47 -15 -86t-43 -67.5t-68 -44.5t-91 -16q-58 0 -98.5 15t-80.5 52l65 65q24 -23 48 -34t62 -11q32 0 54.5 10.5t37 28.5t21 41t6.5 49v65q-28 -33 -60 -45.5t-71 -12.5q-38 0 -69 12t-52 33q-37 37 -47 89t-10 117
t10 117t47 89q44 44 122 44zM263 422q-35 0 -55.5 -13.5t-31 -36t-14 -51t-3.5 -58.5t3.5 -58.5t14 -51t31 -36t55.5 -13.5q34 0 54.5 13.5t31.5 36t14 51t3 58.5t-3 58.5t-14 51t-31.5 36t-54.5 13.5z" />
    <glyph glyph-name="h" unicode="h" horiz-adv-x="568" 
d="M183 456q26 29 60 43t73 14t70.5 -12t54.5 -34q29 -29 40 -64.5t11 -78.5v-324h-102v309q0 59 -29.5 86t-72.5 27t-74 -27.5t-31 -85.5v-309h-102v712h102v-256z" />
    <glyph glyph-name="i" unicode="i" horiz-adv-x="264" 
d="M183 0h-102v507h102v-507zM186 607h-108v108h108v-108z" />
    <glyph glyph-name="j" unicode="j" horiz-adv-x="264" 
d="M183 -65q0 -28 -8 -53.5t-25 -44.5t-43.5 -30.5t-62.5 -11.5h-63v87h45q31 0 43 15t12 44v566h102v-572zM186 607h-108v108h108v-108z" />
    <glyph glyph-name="k" unicode="k" horiz-adv-x="548" 
d="M183 273l197 234h124l-176 -199l198 -308h-126l-142 234l-75 -85v-149h-102v712h102v-439z" />
    <glyph glyph-name="l" unicode="l" horiz-adv-x="311" 
d="M180 163q0 -41 12 -56.5t43 -15.5h45v-91h-56q-146 0 -146 157v555h102v-549z" />
    <glyph glyph-name="m" unicode="m" horiz-adv-x="877" 
d="M619 513q39 0 72 -12t56 -34q29 -29 41.5 -64.5t12.5 -78.5v-324h-102v309q0 59 -29.5 86t-72.5 27q-21 0 -40 -6.5t-33.5 -20t-23 -34t-8.5 -47.5v-314h-102v309q0 59 -29.5 86t-72.5 27t-74 -27.5t-31 -85.5v-309h-102v507h100v-51q26 28 61.5 42.5t73.5 14.5
q96 0 144 -74q61 74 159 74z" />
    <glyph glyph-name="n" unicode="n" horiz-adv-x="568" 
d="M316 513q39 0 70.5 -12t54.5 -34q29 -29 40 -64.5t11 -78.5v-324h-102v309q0 59 -29.5 86t-72.5 27t-74 -27.5t-31 -85.5v-309h-102v507h100v-51q26 29 61.5 43t73.5 14z" />
    <glyph glyph-name="o" unicode="o" horiz-adv-x="537" 
d="M268 513q52 0 89.5 -17t62.5 -43q36 -38 48 -86.5t12 -112.5q0 -65 -12 -113.5t-48 -86.5q-25 -26 -62.5 -43t-89.5 -17t-89 17t-62 43q-36 38 -48 86.5t-12 113.5q0 64 12 112.5t48 86.5q25 26 62 43t89 17zM268 422q-45 0 -74 -29q-23 -23 -29 -60t-6 -79t6 -79t29 -60
q30 -30 74 -30q45 0 75 30q23 23 29 60t6 79t-6 79t-29 60q-29 29 -75 29z" />
    <glyph glyph-name="p" unicode="p" horiz-adv-x="553" 
d="M315 513q39 0 71 -12t53 -33q18 -19 29.5 -43t17.5 -51.5t8 -58t2 -61.5t-2 -61.5t-8 -58.5t-17.5 -52t-29.5 -43q-21 -21 -52.5 -33t-70.5 -12q-41 0 -73 12t-60 46v-257h-102v712h100v-54q29 35 61 47.5t73 12.5zM289 422q-35 0 -56 -13.5t-32 -36.5t-14.5 -53.5
t-3.5 -64.5t3.5 -64.5t14.5 -54t32 -37t56 -13.5q34 0 55 13.5t32 37t14.5 54t3.5 64.5t-3.5 64.5t-14.5 53.5t-32 36.5t-55 13.5z" />
    <glyph glyph-name="q" unicode="q" horiz-adv-x="553" 
d="M238 513q41 0 73 -12.5t61 -47.5v54h100v-712h-102v256q-28 -33 -60 -45t-73 -12q-38 0 -70 12t-53 33q-18 19 -29.5 43t-17.5 51.5t-8 58t-2 61.5q0 63 10 120t47 95q21 21 53.5 33t70.5 12zM264 422q-35 0 -55.5 -14t-31.5 -37t-14.5 -53.5t-3.5 -64.5t3.5 -64.5
t14.5 -53.5t31.5 -36.5t55.5 -13.5t56 13.5t32 36.5t14.5 53.5t3.5 64.5t-3.5 64.5t-14.5 53.5t-32 37t-56 14z" />
    <glyph glyph-name="r" unicode="r" horiz-adv-x="439" 
d="M316 513q37 0 66 -11t55 -37l-77 -77q-17 17 -33.5 25.5t-42.5 8.5q-42 0 -71.5 -30.5t-29.5 -83.5v-308h-102v507h100v-55q20 27 56 44t79 17z" />
    <glyph glyph-name="s" unicode="s" horiz-adv-x="499" 
d="M248 513q58 0 105.5 -13t82.5 -44l-64 -65q-24 20 -56.5 28.5t-68.5 8.5q-47 0 -69.5 -18t-22.5 -47q0 -26 16 -40t54 -18l71 -6q79 -7 119.5 -42t40.5 -102q0 -40 -16 -70t-44 -50.5t-67 -30.5t-84 -10q-62 0 -115 14.5t-98 58.5l67 67q31 -32 69.5 -42.5t76.5 -10.5
q48 0 79.5 17t31.5 53q0 26 -15.5 41t-52.5 19l-81 7q-72 7 -111 40t-39 100q0 37 15 66t41 49t60.5 30t74.5 10z" />
    <glyph glyph-name="t" unicode="t" horiz-adv-x="342" 
d="M195 507h98v-78h-98v-283q0 -59 56 -59h42v-87h-61q-36 0 -62 11.5t-43 31t-25.5 45t-8.5 53.5v288h-58v78h58v145h102v-145z" />
    <glyph glyph-name="u" unicode="u" horiz-adv-x="568" 
d="M487 0h-100v51q-26 -29 -61.5 -43t-73.5 -14q-39 0 -70.5 12t-54.5 34q-29 29 -40 64.5t-11 78.5v324h102v-309q0 -59 29.5 -86t72.5 -27q21 0 40.5 6.5t33.5 20.5t22.5 35.5t8.5 50.5v309h102v-507z" />
    <glyph glyph-name="v" unicode="v" horiz-adv-x="471" 
d="M277 0h-83l-186 507h108l120 -357l119 357h108z" />
    <glyph glyph-name="w" unicode="w" horiz-adv-x="743" 
d="M8 507h108l99 -357l116 357h80l116 -357l99 357h109l-158 -507h-88l-118 366l-118 -366h-87z" />
    <glyph glyph-name="x" unicode="x" horiz-adv-x="503" 
d="M308 259l173 -259h-123l-106 173l-107 -173h-123l174 259l-167 248h123l100 -165l99 165h123z" />
    <glyph glyph-name="y" unicode="y" horiz-adv-x="472" 
d="M239 -105q-14 -40 -37 -63q-21 -21 -48 -29t-56 -8h-41v92h26q32 0 47 11.5t26 42.5l29 83l-177 483h108l121 -357l118 357h109z" />
    <glyph glyph-name="z" unicode="z" horiz-adv-x="469" 
d="M43 79l251 337h-237v91h364v-79l-252 -337h252v-91h-378v79z" />
    <glyph glyph-name="braceleft" unicode="{" horiz-adv-x="409" 
d="M363 695h-39q-24 0 -37 -3t-21 -11t-11.5 -23t-3.5 -41v-161q0 -24 -6 -41t-15 -28t-21 -18.5t-24 -12.5q12 -5 24 -12.5t21 -18.5t15 -28t6 -41v-161q0 -26 3.5 -41t11.5 -23t21 -11t37 -3h39v-91h-71q-38 0 -64 8.5t-43 25.5q-20 20 -28 44.5t-8 60.5v167q0 42 -18 60
q-8 8 -19.5 13.5t-28.5 5.5h-37v90h37q17 0 28.5 5.5t19.5 13.5q18 18 18 60v167q0 36 8 60.5t28 44.5q17 17 43 25.5t64 8.5h71v-91z" />
    <glyph glyph-name="bar" unicode="|" horiz-adv-x="338" 
d="M220 -74h-102v860h102v-860z" />
    <glyph glyph-name="braceright" unicode="}" horiz-adv-x="409" 
d="M117 786q38 0 64 -8.5t43 -25.5q20 -20 28 -44.5t8 -60.5v-167q0 -42 18 -60q8 -8 19.5 -13.5t28.5 -5.5h37v-90h-37q-17 0 -28.5 -5.5t-19.5 -13.5q-18 -18 -18 -60v-167q0 -36 -8 -60.5t-28 -44.5q-17 -17 -43 -25.5t-64 -8.5h-71v91h39q24 0 37 3t21 11t11.5 23
t3.5 41v161q0 24 6 41t15 28t21 18.5t24 12.5q-12 5 -24 12.5t-21 18.5t-15 28t-6 41v161q0 26 -3.5 41t-11.5 23t-21 11t-37 3h-39v91h71z" />
    <glyph glyph-name="asciitilde" unicode="~" horiz-adv-x="574" 
d="M190 357q29 0 54.5 -9t56.5 -24q21 -11 40 -17.5t40 -6.5q10 0 19.5 1.5t19 6t21 13.5t25.5 23l65 -64q-22 -22 -40.5 -37t-36 -24t-34.5 -13t-37 -4q-29 0 -55 9t-57 24q-21 11 -39.5 17.5t-39.5 6.5t-39 -8t-46 -36l-64 64q22 22 40.5 37t35.5 24t34 13t37 4z" />
    <glyph glyph-name="uni00A0" unicode="&#xa0;" horiz-adv-x="240" 
 />
    <glyph glyph-name="exclamdown" unicode="&#xa1;" horiz-adv-x="332" 
d="M211 -205h-124l22 500h80zM205 398h-112v109h112v-109z" />
    <glyph glyph-name="cent" unicode="&#xa2;" horiz-adv-x="505" 
d="M324 625q43 -5 77.5 -22t66.5 -49l-73 -68q-20 21 -38.5 32t-41.5 15v-334q23 4 41.5 15t38.5 32l73 -68q-32 -32 -66.5 -49t-77.5 -22v-107h-80v110q-38 7 -72 24.5t-59.5 48.5t-40.5 76t-15 107q0 61 15 106.5t40.5 76.5t59.5 48.5t72 24.5v90h80v-87zM253 529
q-35 -11 -57 -39q-17 -22 -24.5 -50.5t-7.5 -73.5t7.5 -73.5t24.5 -50.5q22 -29 57 -39v326z" />
    <glyph glyph-name="sterling" unicode="&#xa3;" horiz-adv-x="564" 
d="M343 718q55 0 95.5 -16t77.5 -53l-72 -71q-19 19 -40.5 31t-60.5 12q-61 0 -95.5 -36t-34.5 -106v-88h130v-78h-130v-216h303v-97h-411v313h-62v78h62v96q0 55 19 98.5t51 72.5t75.5 44.5t92.5 15.5z" />
    <glyph glyph-name="currency" unicode="&#xa4;" horiz-adv-x="664" 
d="M596 475l-71 -71q40 -57 40 -125q0 -69 -41 -127l72 -71l-66 -67l-73 72q-25 -17 -57.5 -26.5t-67.5 -9.5t-67.5 9.5t-57.5 26.5l-72 -72l-67 67l72 71q-41 58 -41 127t41 125l-72 71l67 67l71 -71q25 17 58 26.5t68 9.5t68 -9.5t58 -26.5l72 71zM332 416
q-27 0 -51.5 -10.5t-43 -29.5t-29 -44t-10.5 -53q0 -29 10.5 -54t29 -44t43 -29.5t51.5 -10.5t51.5 10.5t43 29.5t29 44t10.5 54q0 28 -10.5 53t-29 44t-43 29.5t-51.5 10.5z" />
    <glyph glyph-name="yen" unicode="&#xa5;" horiz-adv-x="544" 
d="M218 182h-153v67h153v44l-21 43h-132v66h98l-157 310h117l151 -314l147 314h117l-157 -310h98v-66h-132l-21 -43v-44h153v-67h-153v-182h-108v182z" />
    <glyph glyph-name="brokenbar" unicode="&#xa6;" horiz-adv-x="338" 
d="M220 436h-102v350h102v-350zM220 -74h-102v350h102v-350z" />
    <glyph glyph-name="section" unicode="&#xa7;" horiz-adv-x="546" 
d="M273 718q44 0 78.5 -12.5t58.5 -34t37 -52t14 -66.5h-98q-3 41 -27.5 58.5t-62.5 17.5q-42 0 -65 -20t-23 -57q0 -31 20 -50.5t55 -30.5l70 -21q69 -21 105.5 -66.5t36.5 -119.5q0 -29 -9 -54t-23 -44.5t-31 -34t-34 -23.5q38 -17 63 -50.5t25 -90.5q0 -43 -15.5 -76
t-42 -55.5t-61 -34.5t-72.5 -12q-37 0 -71 10t-61 31t-44 53t-18 76h100q3 -37 27.5 -58t66.5 -21q43 0 67 22.5t24 61.5q0 27 -18 51t-60 37l-70 21q-69 21 -105 66t-36 120q0 29 8.5 54t22.5 44.5t31.5 34t34.5 23.5q-37 18 -60.5 48.5t-23.5 85.5q0 35 12.5 65.5
t36.5 53.5t58.5 36.5t78.5 13.5zM273 369q-45 0 -71 -28q-14 -14 -21 -32.5t-7 -47.5t8 -47.5t20 -31.5q26 -28 71 -28q44 0 70 28q12 13 20.5 31t8.5 48q0 52 -29 80q-14 13 -30.5 20.5t-39.5 7.5z" />
    <glyph glyph-name="dieresis" unicode="&#xa8;" horiz-adv-x="537" 
d="M423 604h-92v108h92v-108zM207 604h-92v108h92v-108z" />
    <glyph glyph-name="copyright" unicode="&#xa9;" horiz-adv-x="858" 
d="M429 -6q-75 0 -141 28.5t-115 77.5t-77.5 115t-28.5 141t28.5 141t77.5 115t115 77.5t141 28.5t141 -28.5t115 -77.5t77.5 -115t28.5 -141t-28.5 -141t-77.5 -115t-115 -77.5t-141 -28.5zM435 156q-40 0 -73 14t-56 40t-36 63t-13 83t13 83t36 63t56 40t73 14
q42 0 72.5 -13t59.5 -39l-47 -47q-23 20 -41 27.5t-44 7.5q-57 0 -82 -38t-25 -98t25 -98t82 -38q26 0 44 7.5t41 27.5l47 -47q-29 -25 -59.5 -38.5t-72.5 -13.5zM429 62q60 0 113 22.5t92 62.5t61.5 93.5t22.5 115.5t-22.5 115.5t-61.5 93.5t-92 62.5t-113 22.5t-113 -22.5
t-92 -62.5t-61.5 -93.5t-22.5 -115.5t22.5 -115.5t61.5 -93.5t92 -62.5t113 -22.5z" />
    <glyph glyph-name="ordfeminine" unicode="&#xaa;" horiz-adv-x="452" 
d="M212 716q167 0 167 -139v-270h-82v36q-22 -22 -45 -31t-60 -9q-38 0 -63.5 8.5t-44.5 27.5q-17 17 -24.5 39t-7.5 48q0 51 34.5 84t103.5 33h106v28q0 38 -19.5 56t-67.5 18q-33 0 -52 -8.5t-36 -30.5l-54 52q29 34 62 46t83 12zM203 485q-35 0 -52.5 -15t-17.5 -42
q0 -55 71 -55q23 0 41.5 3.5t33.5 18.5q17 17 17 58v32h-93z" />
    <glyph glyph-name="guillemotleft" unicode="&#xab;" horiz-adv-x="592" 
d="M520 378l-108 -106l108 -107v-123l-230 230l230 229v-123zM267 378l-107 -106l107 -107v-123l-230 230l230 229v-123z" />
    <glyph glyph-name="logicalnot" unicode="&#xac;" horiz-adv-x="533" 
d="M484 89h-95v141h-341v95h436v-236z" />
    <glyph glyph-name="uni00AD" unicode="&#xad;" horiz-adv-x="426" 
d="M359 230h-292v95h292v-95z" />
    <glyph glyph-name="registered" unicode="&#xae;" horiz-adv-x="858" 
d="M429 -6q-75 0 -141 28.5t-115 77.5t-77.5 115t-28.5 141t28.5 141t77.5 115t115 77.5t141 28.5t141 -28.5t115 -77.5t77.5 -115t28.5 -141t-28.5 -141t-77.5 -115t-115 -77.5t-141 -28.5zM429 62q60 0 113 22.5t92 62.5t61.5 93.5t22.5 115.5t-22.5 115.5t-61.5 93.5
t-92 62.5t-113 22.5t-113 -22.5t-92 -62.5t-61.5 -93.5t-22.5 -115.5t22.5 -115.5t61.5 -93.5t92 -62.5t113 -22.5zM305 552h147q28 0 51 -9.5t39.5 -26t26 -38.5t9.5 -46q0 -42 -22.5 -68.5t-54.5 -37.5l87 -165h-81l-80 155h-50v-155h-72v391zM443 373q29 0 46.5 17
t17.5 42t-17.5 42t-46.5 17h-66v-118h66z" />
    <glyph glyph-name="macron" unicode="&#xaf;" horiz-adv-x="537" 
d="M423 618h-309v73h309v-73z" />
    <glyph glyph-name="degree" unicode="&#xb0;" horiz-adv-x="471" 
d="M235 724q36 0 68 -14t55.5 -37.5t37.5 -55.5t14 -68t-14 -67.5t-37.5 -55.5t-55.5 -37.5t-68 -13.5t-67.5 13.5t-55.5 37.5t-37.5 55.5t-13.5 67.5t13.5 68t37.5 55.5t55.5 37.5t67.5 14zM235 642q-38 0 -64 -27t-26 -66t26 -65.5t64 -26.5t64.5 26.5t26.5 65.5
q0 19 -7 36t-19.5 30t-29 20t-35.5 7z" />
    <glyph glyph-name="plusminus" unicode="&#xb1;" horiz-adv-x="533" 
d="M314 411h168v-95h-168v-169h-95v169h-168v95h168v168h95v-168zM482 0h-431v95h431v-95z" />
    <glyph glyph-name="uni00B2" unicode="&#xb2;" horiz-adv-x="231" 
d="M26 482l111 116q11 11 14.5 20.5t3.5 20.5q0 13 -10 22.5t-27 9.5q-34 0 -37 -36h-56q2 41 28.5 62.5t64.5 21.5q41 0 66 -22.5t25 -57.5q0 -20 -7.5 -34t-24.5 -32l-86 -91h115v-48h-180v48z" />
    <glyph glyph-name="uni00B3" unicode="&#xb3;" horiz-adv-x="232" 
d="M113 431q-39 0 -66.5 20.5t-29.5 67.5h57q2 -17 12.5 -27t26.5 -10q17 0 28.5 10.5t11.5 30.5t-12 28.5t-29 8.5h-9v39h9q17 0 27 8.5t10 24.5q0 17 -10.5 26t-25.5 9q-14 0 -23.5 -8.5t-11.5 -25.5h-57q2 42 27 64t65 22q44 0 68.5 -23.5t24.5 -55.5q0 -25 -10.5 -39
t-26.5 -20q17 -8 29 -24t12 -42q0 -38 -26.5 -61t-70.5 -23z" />
    <glyph glyph-name="acute" unicode="&#xb4;" horiz-adv-x="537" 
d="M303 599h-77l75 162h113z" />
    <glyph glyph-name="mu" unicode="&#xb5;" horiz-adv-x="574" 
d="M392 0v51q-26 -29 -61 -43t-73 -14q-45 0 -75 25v-224h-102v712h102v-309q0 -59 30 -86t73 -27t73.5 27t30.5 86v309h102v-507h-100z" />
    <glyph glyph-name="paragraph" unicode="&#xb6;" horiz-adv-x="637" 
d="M544 -205h-102v820h-108v-820h-102v522q-41 0 -76.5 16t-61.5 43t-41 62.5t-15 74.5q0 45 16 81.5t45 62.5t71 40.5t93 14.5h281v-917z" />
    <glyph glyph-name="periodcentered" unicode="&#xb7;" horiz-adv-x="278" 
d="M200 217h-122v122h122v-122z" />
    <glyph glyph-name="cedilla" unicode="&#xb8;" horiz-adv-x="537" 
d="M233 -63h82l-51 -147h-101z" />
    <glyph glyph-name="uni00B9" unicode="&#xb9;" horiz-adv-x="237" 
d="M109 651l-63 -53v65l63 53h57v-282h-57v217z" />
    <glyph glyph-name="ordmasculine" unicode="&#xba;" horiz-adv-x="459" 
d="M398 510q0 -52 -9.5 -90.5t-38.5 -68.5q-20 -20 -49.5 -34t-71.5 -14t-71 14t-49 34q-29 30 -38.5 68.5t-9.5 90.5q0 51 9.5 89.5t38.5 68.5q20 20 49 34t71 14t71.5 -14t49.5 -34q29 -30 38.5 -68.5t9.5 -89.5zM314 510q0 32 -3.5 61t-22.5 48q-23 23 -59 23
q-35 0 -58 -23q-19 -19 -23 -48t-4 -61t4 -61.5t23 -48.5q23 -23 58 -23q36 0 59 23q19 19 22.5 48.5t3.5 61.5z" />
    <glyph glyph-name="guillemotright" unicode="&#xbb;" horiz-adv-x="592" 
d="M555 271l-230 -229v123l107 106l-107 107v123zM302 271l-230 -229v123l108 106l-108 107v123z" />
    <glyph glyph-name="onequarter" unicode="&#xbc;" horiz-adv-x="873" 
d="M564 712h82l-335 -712h-82zM733 63h-171v66l147 298h75l-146 -298h95v89h70v-89h41v-66h-41v-63h-70v63zM155 626l-87 -76v87l87 75h77v-427h-77v341z" />
    <glyph glyph-name="onehalf" unicode="&#xbd;" horiz-adv-x="873" 
d="M564 712h82l-335 -712h-82zM574 69l167 186q14 15 18.5 27t4.5 29q0 23 -15.5 37t-42.5 14q-23 0 -40 -12t-17 -43h-75q0 58 37 91t95 33q60 0 96 -32t36 -88q0 -15 -2.5 -27.5t-8.5 -23.5t-15 -22.5t-22 -26.5l-130 -143h179v-68h-265v69zM155 626l-87 -76v87l87 75h77
v-427h-77v341z" />
    <glyph glyph-name="threequarters" unicode="&#xbe;" horiz-adv-x="873" 
d="M564 712h82l-335 -712h-82zM733 63h-171v66l147 298h75l-146 -298h95v89h70v-89h41v-66h-41v-63h-70v63zM166 281q-27 0 -52 7t-44.5 22.5t-31.5 39t-13 56.5h76q2 -31 20.5 -44.5t44.5 -13.5t45 16.5t19 44.5q0 61 -66 61h-11v67h11q29 0 44.5 15t15.5 40q0 29 -17 43
t-41 14q-27 0 -42 -14.5t-17 -39.5h-76q1 28 12 50.5t29 38t42.5 24t51.5 8.5q29 0 53.5 -9t42.5 -25t28 -38.5t10 -49.5q0 -35 -13 -55t-40 -33q29 -13 44 -36.5t15 -61.5q0 -32 -11 -56t-30.5 -39.5t-45 -23.5t-53.5 -8z" />
    <glyph glyph-name="questiondown" unicode="&#xbf;" horiz-adv-x="511" 
d="M286 260q0 -31 -8 -53t-26 -46l-78 -105q-14 -18 -22.5 -36.5t-8.5 -39.5q0 -42 27 -71t71 -29q47 0 72 30t25 71h102q0 -42 -15 -77.5t-42 -61t-63.5 -39.5t-78.5 -14q-41 0 -77.5 13t-63.5 38t-43 60.5t-16 79.5q0 36 14 65.5t34 57.5l77 108q8 11 13 26.5t5 27.5v30
h102v-35zM292 398h-113v109h113v-109z" />
    <glyph glyph-name="Agrave" unicode="&#xc0;" horiz-adv-x="625" 
d="M617 0h-115l-49 143h-281l-49 -143h-115l261 712h87zM203 235h219l-110 316zM359 781h-77l-111 162h113z" />
    <glyph glyph-name="Aacute" unicode="&#xc1;" horiz-adv-x="625" 
d="M617 0h-115l-49 143h-281l-49 -143h-115l261 712h87zM203 235h219l-110 316zM341 781h-77l75 162h113z" />
    <glyph glyph-name="Acircumflex" unicode="&#xc2;" horiz-adv-x="625" 
d="M617 0h-115l-49 143h-281l-49 -143h-115l261 712h87zM203 235h219l-110 316zM485 781h-85l-87 97l-87 -97h-85l129 161h86z" />
    <glyph glyph-name="Atilde" unicode="&#xc3;" horiz-adv-x="625" 
d="M617 0h-115l-49 143h-281l-49 -143h-115l261 712h87zM203 235h219l-110 316zM247 905q22 0 38.5 -6t36.5 -18q15 -9 27.5 -14t27.5 -5q12 0 25.5 5.5t33.5 25.5l48 -47q-34 -34 -57.5 -44.5t-46.5 -10.5q-22 0 -38.5 6t-36.5 17q-14 8 -27.5 13.5t-28.5 5.5
q-13 0 -25 -4.5t-33 -25.5l-48 47q34 34 57 44.5t47 10.5z" />
    <glyph glyph-name="Adieresis" unicode="&#xc4;" horiz-adv-x="625" 
d="M617 0h-115l-49 143h-281l-49 -143h-115l261 712h87zM203 235h219l-110 316zM467 786h-92v108h92v-108zM251 786h-92v108h92v-108z" />
    <glyph glyph-name="Aring" unicode="&#xc5;" horiz-adv-x="625" 
d="M617 0h-115l-49 143h-281l-49 -143h-115l261 712h87zM203 235h219l-110 316zM313 1004q26 0 48.5 -10t39.5 -27t27 -39.5t10 -48.5t-10 -48.5t-27 -39.5t-39.5 -27t-48.5 -10t-48.5 10t-39.5 27t-27 39.5t-10 48.5t10 48.5t27 39.5t39.5 27t48.5 10zM313 942
q-26 0 -45 -18.5t-19 -44.5t19 -44.5t45 -18.5t45 18.5t19 44.5t-19 44.5t-45 18.5z" />
    <glyph glyph-name="AE" unicode="&#xc6;" horiz-adv-x="955" 
d="M900 615h-347v-207h296v-97h-296v-214h347v-97h-455v162h-235l-84 -162h-118l374 712h518v-97zM257 254h188v361z" />
    <glyph glyph-name="Ccedilla" unicode="&#xc7;" horiz-adv-x="628" 
d="M323 718q99 0 167 -56.5t87 -162.5h-110q-12 55 -48 88.5t-96 33.5q-65 0 -105 -43q-14 -14 -22 -31t-13 -41.5t-6.5 -60.5t-1.5 -89t1.5 -89t6.5 -60.5t13 -41.5t22 -31q40 -43 105 -43q60 0 96 33.5t48 88.5h110q-19 -106 -87.5 -162.5t-166.5 -56.5q-59 0 -104 18.5
t-80 53.5q-26 26 -40.5 54t-21.5 61.5t-8.5 76t-1.5 98.5t1.5 98.5t8.5 76t21.5 61.5t40.5 54q35 35 80 53.5t104 18.5zM320 -209h-101l70 147h82z" />
    <glyph glyph-name="Egrave" unicode="&#xc8;" horiz-adv-x="603" 
d="M548 615h-347v-208h296v-97h-296v-213h347v-97h-455v712h455v-97zM355 781h-77l-111 162h113z" />
    <glyph glyph-name="Eacute" unicode="&#xc9;" horiz-adv-x="603" 
d="M548 615h-347v-208h296v-97h-296v-213h347v-97h-455v712h455v-97zM337 781h-77l75 162h113z" />
    <glyph glyph-name="Ecircumflex" unicode="&#xca;" horiz-adv-x="603" 
d="M548 615h-347v-208h296v-97h-296v-213h347v-97h-455v712h455v-97zM481 781h-85l-87 97l-87 -97h-85l129 161h86z" />
    <glyph glyph-name="Edieresis" unicode="&#xcb;" horiz-adv-x="603" 
d="M548 615h-347v-208h296v-97h-296v-213h347v-97h-455v712h455v-97zM463 786h-92v108h92v-108zM247 786h-92v108h92v-108z" />
    <glyph glyph-name="Igrave" unicode="&#xcc;" horiz-adv-x="294" 
d="M201 0h-108v712h108v-712zM195 781h-77l-111 162h113z" />
    <glyph glyph-name="Iacute" unicode="&#xcd;" horiz-adv-x="294" 
d="M201 0h-108v712h108v-712zM177 781h-77l75 162h113z" />
    <glyph glyph-name="Icircumflex" unicode="&#xce;" horiz-adv-x="294" 
d="M201 0h-108v712h108v-712zM321 781h-85l-87 97l-87 -97h-85l129 161h86z" />
    <glyph glyph-name="Idieresis" unicode="&#xcf;" horiz-adv-x="294" 
d="M201 0h-108v712h108v-712zM303 786h-92v108h92v-108zM87 786h-92v108h92v-108z" />
    <glyph glyph-name="Eth" unicode="&#xd0;" horiz-adv-x="685" 
d="M362 712q67 0 115.5 -21.5t86.5 -68.5q19 -24 30 -52.5t16.5 -61.5t6.5 -71t1 -81t-1 -81t-6.5 -71t-16.5 -61.5t-30 -52.5q-38 -47 -86.5 -68.5t-115.5 -21.5h-250v318h-74v83h74v311h250zM220 615v-214h138v-83h-138v-221h130q38 0 68.5 11t53.5 37q26 29 32 80t6 131
t-6 131t-32 80q-23 26 -53.5 37t-68.5 11h-130z" />
    <glyph glyph-name="Ntilde" unicode="&#xd1;" horiz-adv-x="722" 
d="M629 0h-99l-329 501v-501h-108v712h99l329 -501v501h108v-712zM295 905q22 0 38.5 -6t36.5 -18q15 -9 27.5 -14t27.5 -5q12 0 25.5 5.5t33.5 25.5l48 -47q-34 -34 -57.5 -44.5t-46.5 -10.5q-22 0 -38.5 6t-36.5 17q-14 8 -27.5 13.5t-28.5 5.5q-13 0 -25 -4.5t-33 -25.5
l-48 47q34 34 57 44.5t47 10.5z" />
    <glyph glyph-name="Ograve" unicode="&#xd2;" horiz-adv-x="646" 
d="M323 718q59 0 104 -18.5t80 -53.5q26 -26 40.5 -54t21.5 -61.5t8.5 -76t1.5 -98.5t-1.5 -98.5t-8.5 -76t-21.5 -61.5t-40.5 -54q-35 -35 -80 -53.5t-104 -18.5t-104 18.5t-80 53.5q-26 26 -40.5 54t-21.5 61.5t-8.5 76t-1.5 98.5t1.5 98.5t8.5 76t21.5 61.5t40.5 54
q35 35 80 53.5t104 18.5zM323 621q-65 0 -106 -43q-13 -14 -21.5 -31t-13 -41.5t-6 -60.5t-1.5 -89t1.5 -88.5t6 -60.5t13 -41.5t21.5 -30.5q42 -44 106 -44t106 44q13 14 21.5 30.5t13 41t6 60.5t1.5 89t-1.5 89t-6 61t-13 41.5t-21.5 30.5q-41 43 -106 43zM369 781h-77
l-111 162h113z" />
    <glyph glyph-name="Oacute" unicode="&#xd3;" horiz-adv-x="646" 
d="M323 718q59 0 104 -18.5t80 -53.5q26 -26 40.5 -54t21.5 -61.5t8.5 -76t1.5 -98.5t-1.5 -98.5t-8.5 -76t-21.5 -61.5t-40.5 -54q-35 -35 -80 -53.5t-104 -18.5t-104 18.5t-80 53.5q-26 26 -40.5 54t-21.5 61.5t-8.5 76t-1.5 98.5t1.5 98.5t8.5 76t21.5 61.5t40.5 54
q35 35 80 53.5t104 18.5zM323 621q-65 0 -106 -43q-13 -14 -21.5 -31t-13 -41.5t-6 -60.5t-1.5 -89t1.5 -88.5t6 -60.5t13 -41.5t21.5 -30.5q42 -44 106 -44t106 44q13 14 21.5 30.5t13 41t6 60.5t1.5 89t-1.5 89t-6 61t-13 41.5t-21.5 30.5q-41 43 -106 43zM351 781h-77
l75 162h113z" />
    <glyph glyph-name="Ocircumflex" unicode="&#xd4;" horiz-adv-x="646" 
d="M323 718q59 0 104 -18.5t80 -53.5q26 -26 40.5 -54t21.5 -61.5t8.5 -76t1.5 -98.5t-1.5 -98.5t-8.5 -76t-21.5 -61.5t-40.5 -54q-35 -35 -80 -53.5t-104 -18.5t-104 18.5t-80 53.5q-26 26 -40.5 54t-21.5 61.5t-8.5 76t-1.5 98.5t1.5 98.5t8.5 76t21.5 61.5t40.5 54
q35 35 80 53.5t104 18.5zM323 621q-65 0 -106 -43q-13 -14 -21.5 -31t-13 -41.5t-6 -60.5t-1.5 -89t1.5 -88.5t6 -60.5t13 -41.5t21.5 -30.5q42 -44 106 -44t106 44q13 14 21.5 30.5t13 41t6 60.5t1.5 89t-1.5 89t-6 61t-13 41.5t-21.5 30.5q-41 43 -106 43zM495 781h-85
l-87 97l-87 -97h-85l129 161h86z" />
    <glyph glyph-name="Otilde" unicode="&#xd5;" horiz-adv-x="646" 
d="M323 718q59 0 104 -18.5t80 -53.5q26 -26 40.5 -54t21.5 -61.5t8.5 -76t1.5 -98.5t-1.5 -98.5t-8.5 -76t-21.5 -61.5t-40.5 -54q-35 -35 -80 -53.5t-104 -18.5t-104 18.5t-80 53.5q-26 26 -40.5 54t-21.5 61.5t-8.5 76t-1.5 98.5t1.5 98.5t8.5 76t21.5 61.5t40.5 54
q35 35 80 53.5t104 18.5zM323 621q-65 0 -106 -43q-13 -14 -21.5 -31t-13 -41.5t-6 -60.5t-1.5 -89t1.5 -88.5t6 -60.5t13 -41.5t21.5 -30.5q42 -44 106 -44t106 44q13 14 21.5 30.5t13 41t6 60.5t1.5 89t-1.5 89t-6 61t-13 41.5t-21.5 30.5q-41 43 -106 43zM257 905
q22 0 38.5 -6t36.5 -18q15 -9 27.5 -14t27.5 -5q12 0 25.5 5.5t33.5 25.5l48 -47q-34 -34 -57.5 -44.5t-46.5 -10.5q-22 0 -38.5 6t-36.5 17q-14 8 -27.5 13.5t-28.5 5.5q-13 0 -25 -4.5t-33 -25.5l-48 47q34 34 57 44.5t47 10.5z" />
    <glyph glyph-name="Odieresis" unicode="&#xd6;" horiz-adv-x="646" 
d="M323 718q59 0 104 -18.5t80 -53.5q26 -26 40.5 -54t21.5 -61.5t8.5 -76t1.5 -98.5t-1.5 -98.5t-8.5 -76t-21.5 -61.5t-40.5 -54q-35 -35 -80 -53.5t-104 -18.5t-104 18.5t-80 53.5q-26 26 -40.5 54t-21.5 61.5t-8.5 76t-1.5 98.5t1.5 98.5t8.5 76t21.5 61.5t40.5 54
q35 35 80 53.5t104 18.5zM323 621q-65 0 -106 -43q-13 -14 -21.5 -31t-13 -41.5t-6 -60.5t-1.5 -89t1.5 -88.5t6 -60.5t13 -41.5t21.5 -30.5q42 -44 106 -44t106 44q13 14 21.5 30.5t13 41t6 60.5t1.5 89t-1.5 89t-6 61t-13 41.5t-21.5 30.5q-41 43 -106 43zM477 786h-92
v108h92v-108zM261 786h-92v108h92v-108z" />
    <glyph glyph-name="multiply" unicode="&#xd7;" horiz-adv-x="533" 
d="M476 424l-146 -146l146 -146l-64 -63l-146 145l-145 -145l-64 63l146 146l-146 146l64 64l145 -146l146 146z" />
    <glyph glyph-name="Oslash" unicode="&#xd8;" horiz-adv-x="646" 
d="M504 649q28 -27 43 -55t22 -62.5t8.5 -77t1.5 -98.5t-1.5 -98.5t-8.5 -76t-21.5 -61.5t-40.5 -54q-35 -35 -80 -53.5t-104 -18.5q-68 0 -120 26l-30 -64h-82l51 107l-3 3q-26 26 -40.5 53.5t-21.5 61.5t-8.5 76.5t-1.5 98.5t1.5 98.5t8.5 76t21.5 61.5t40.5 54
q35 35 80 53.5t104 18.5q68 0 120 -26l30 64h83zM175 356q0 -40 1 -69.5t3 -52t6.5 -39t10.5 -29.5l207 433q-34 23 -80 23q-64 0 -106 -44q-13 -14 -21.5 -31t-13 -41.5t-6 -60.5t-1.5 -89zM471 356q0 39 -1 69t-3 52.5t-6 39t-10 29.5l-207 -433q34 -23 79 -23q32 0 59 12
t47 33q13 14 21.5 30.5t13 41.5t6 60.5t1.5 88.5z" />
    <glyph glyph-name="Ugrave" unicode="&#xd9;" horiz-adv-x="675" 
d="M593 240q0 -55 -19.5 -100.5t-54 -77.5t-81.5 -50t-101 -18t-101 18t-81 50t-53.5 77.5t-19.5 100.5v472h108v-467q0 -72 40 -113t107 -41t107.5 41t40.5 113v467h108v-472zM384 781h-77l-111 162h113z" />
    <glyph glyph-name="Uacute" unicode="&#xda;" horiz-adv-x="675" 
d="M593 240q0 -55 -19.5 -100.5t-54 -77.5t-81.5 -50t-101 -18t-101 18t-81 50t-53.5 77.5t-19.5 100.5v472h108v-467q0 -72 40 -113t107 -41t107.5 41t40.5 113v467h108v-472zM366 781h-77l75 162h113z" />
    <glyph glyph-name="Ucircumflex" unicode="&#xdb;" horiz-adv-x="675" 
d="M593 240q0 -55 -19.5 -100.5t-54 -77.5t-81.5 -50t-101 -18t-101 18t-81 50t-53.5 77.5t-19.5 100.5v472h108v-467q0 -72 40 -113t107 -41t107.5 41t40.5 113v467h108v-472zM510 781h-85l-87 97l-87 -97h-85l129 161h86z" />
    <glyph glyph-name="Udieresis" unicode="&#xdc;" horiz-adv-x="675" 
d="M593 240q0 -55 -19.5 -100.5t-54 -77.5t-81.5 -50t-101 -18t-101 18t-81 50t-53.5 77.5t-19.5 100.5v472h108v-467q0 -72 40 -113t107 -41t107.5 41t40.5 113v467h108v-472zM492 786h-92v108h92v-108zM276 786h-92v108h92v-108z" />
    <glyph glyph-name="Yacute" unicode="&#xdd;" horiz-adv-x="544" 
d="M326 293v-293h-108v293l-213 419h118l149 -313l149 313h118zM301 781h-77l75 162h113z" />
    <glyph glyph-name="Thorn" unicode="&#xde;" horiz-adv-x="637" 
d="M201 575h162q52 0 94 -16.5t71.5 -45t45.5 -68.5t16 -86q0 -47 -16 -86t-45.5 -68t-71.5 -45t-94 -16h-162v-144h-108v712h108v-137zM201 478v-237h155q57 0 91.5 30.5t34.5 87.5t-34.5 88t-91.5 31h-155z" />
    <glyph glyph-name="germandbls" unicode="&#xdf;" horiz-adv-x="565" 
d="M295 718q44 0 81.5 -10t65 -31t43 -53.5t15.5 -76.5t-18 -71.5t-44 -44.5q32 -16 47.5 -41.5t15.5 -73.5v-164q0 -72 -41 -113q-21 -20 -47.5 -29.5t-66.5 -9.5h-53v87h32q19 0 30 4t22 13q21 18 21 57v155q0 19 -4.5 30.5t-13.5 22.5t-22 15t-30 4h-35v81h31q32 0 53 19
t21 56q0 38 -25 60q-26 24 -81 24q-60 0 -84 -30.5t-24 -82.5v-515h-103v521q0 50 15.5 87t44 61.5t67.5 36.5t87 12z" />
    <glyph glyph-name="agrave" unicode="&#xe0;" horiz-adv-x="530" 
d="M245 513q106 0 157.5 -44t51.5 -130v-339h-100v46q-28 -28 -58 -40t-77 -12q-48 0 -80.5 11.5t-55.5 34.5q-40 42 -40 109q0 64 44 105t132 41h133v36q0 49 -25.5 72t-85.5 23q-41 0 -65 -11.5t-46 -38.5l-66 63q18 21 36.5 35t40 23t47 12.5t57.5 3.5zM235 224
q-93 0 -93 -73q0 -35 22.5 -53.5t73.5 -18.5q27 0 49.5 5t42.5 24q22 21 22 75v41h-117zM299 599h-77l-111 162h113z" />
    <glyph glyph-name="aacute" unicode="&#xe1;" horiz-adv-x="530" 
d="M245 513q106 0 157.5 -44t51.5 -130v-339h-100v46q-28 -28 -58 -40t-77 -12q-48 0 -80.5 11.5t-55.5 34.5q-40 42 -40 109q0 64 44 105t132 41h133v36q0 49 -25.5 72t-85.5 23q-41 0 -65 -11.5t-46 -38.5l-66 63q18 21 36.5 35t40 23t47 12.5t57.5 3.5zM235 224
q-93 0 -93 -73q0 -35 22.5 -53.5t73.5 -18.5q27 0 49.5 5t42.5 24q22 21 22 75v41h-117zM293 599h-77l75 162h113z" />
    <glyph glyph-name="acircumflex" unicode="&#xe2;" horiz-adv-x="530" 
d="M245 513q106 0 157.5 -44t51.5 -130v-339h-100v46q-28 -28 -58 -40t-77 -12q-48 0 -80.5 11.5t-55.5 34.5q-40 42 -40 109q0 64 44 105t132 41h133v36q0 49 -25.5 72t-85.5 23q-41 0 -65 -11.5t-46 -38.5l-66 63q18 21 36.5 35t40 23t47 12.5t57.5 3.5zM235 224
q-93 0 -93 -73q0 -35 22.5 -53.5t73.5 -18.5q27 0 49.5 5t42.5 24q22 21 22 75v41h-117zM431 599h-85l-87 97l-87 -97h-85l129 161h86z" />
    <glyph glyph-name="atilde" unicode="&#xe3;" horiz-adv-x="530" 
d="M245 513q106 0 157.5 -44t51.5 -130v-339h-100v46q-28 -28 -58 -40t-77 -12q-48 0 -80.5 11.5t-55.5 34.5q-40 42 -40 109q0 64 44 105t132 41h133v36q0 49 -25.5 72t-85.5 23q-41 0 -65 -11.5t-46 -38.5l-66 63q18 21 36.5 35t40 23t47 12.5t57.5 3.5zM235 224
q-93 0 -93 -73q0 -35 22.5 -53.5t73.5 -18.5q27 0 49.5 5t42.5 24q22 21 22 75v41h-117zM192 723q22 0 38.5 -6t36.5 -18q15 -9 27.5 -14t27.5 -5q12 0 25.5 5.5t33.5 25.5l48 -47q-34 -34 -57.5 -44.5t-46.5 -10.5q-22 0 -38.5 6t-36.5 17q-14 8 -27.5 13.5t-28.5 5.5
q-13 0 -25 -4.5t-33 -25.5l-48 47q34 34 57 44.5t47 10.5z" />
    <glyph glyph-name="adieresis" unicode="&#xe4;" horiz-adv-x="530" 
d="M245 513q106 0 157.5 -44t51.5 -130v-339h-100v46q-28 -28 -58 -40t-77 -12q-48 0 -80.5 11.5t-55.5 34.5q-40 42 -40 109q0 64 44 105t132 41h133v36q0 49 -25.5 72t-85.5 23q-41 0 -65 -11.5t-46 -38.5l-66 63q18 21 36.5 35t40 23t47 12.5t57.5 3.5zM235 224
q-93 0 -93 -73q0 -35 22.5 -53.5t73.5 -18.5q27 0 49.5 5t42.5 24q22 21 22 75v41h-117zM413 604h-92v108h92v-108zM197 604h-92v108h92v-108z" />
    <glyph glyph-name="aring" unicode="&#xe5;" horiz-adv-x="530" 
d="M245 513q106 0 157.5 -44t51.5 -130v-339h-100v46q-28 -28 -58 -40t-77 -12q-48 0 -80.5 11.5t-55.5 34.5q-40 42 -40 109q0 64 44 105t132 41h133v36q0 49 -25.5 72t-85.5 23q-41 0 -65 -11.5t-46 -38.5l-66 63q18 21 36.5 35t40 23t47 12.5t57.5 3.5zM235 224
q-93 0 -93 -73q0 -35 22.5 -53.5t73.5 -18.5q27 0 49.5 5t42.5 24q22 21 22 75v41h-117zM259 826q26 0 48.5 -10t39.5 -27t27 -39.5t10 -48.5t-10 -48.5t-27 -39.5t-39.5 -27t-48.5 -10t-48.5 10t-39.5 27t-27 39.5t-10 48.5t10 48.5t27 39.5t39.5 27t48.5 10zM259 764
q-26 0 -45 -18.5t-19 -44.5t19 -44.5t45 -18.5t45 18.5t19 44.5t-19 44.5t-45 18.5z" />
    <glyph glyph-name="ae" unicode="&#xe6;" horiz-adv-x="837" 
d="M567 513q51 0 91 -17.5t67.5 -50t42 -78t14.5 -100.5v-43h-329q0 -66 33 -104t96 -38q43 0 70 12.5t53 39.5l65 -61q-19 -20 -38.5 -34.5t-42 -24.5t-49.5 -15t-60 -5q-56 0 -102 18.5t-77 60.5q-39 -47 -81 -63t-101 -16q-48 0 -80.5 11.5t-55.5 34.5q-40 42 -40 109
q0 64 44 105t132 41h133v36q0 49 -25.5 72t-85.5 23q-41 0 -65 -11.5t-46 -38.5l-66 63q18 21 36.5 35t40 23t47 12.5t57.5 3.5q124 0 172 -67q26 34 64 50.5t86 16.5zM235 224q-93 0 -93 -73q0 -35 22.5 -53.5t73.5 -18.5q27 0 49.5 5t42.5 24q22 21 22 75v41h-117z
M568 428q-37 0 -62.5 -17.5t-38.5 -46.5q-8 -17 -10 -31.5t-3 -37.5h228q-2 23 -4 37.5t-10 31.5q-13 29 -38.5 46.5t-61.5 17.5z" />
    <glyph glyph-name="ccedilla" unicode="&#xe7;" horiz-adv-x="487" 
d="M283 513q53 0 92 -16.5t75 -54.5l-70 -68q-24 26 -45.5 37t-51.5 11q-60 0 -94 -45q-17 -21 -23.5 -49.5t-6.5 -73.5t6.5 -74t23.5 -50q34 -45 94 -45q30 0 51.5 11t45.5 37l70 -67q-36 -38 -75 -55t-92 -17q-43 0 -83.5 14t-72 45t-51 80.5t-19.5 120.5t19.5 120.5
t51 80t72 44.5t83.5 14zM233 -63h82l-51 -147h-101z" />
    <glyph glyph-name="egrave" unicode="&#xe8;" horiz-adv-x="540" 
d="M156 224q0 -66 33 -104t96 -38q43 0 69.5 12.5t53.5 39.5l65 -61q-20 -20 -39.5 -34.5t-42 -24.5t-49 -15t-59.5 -5q-48 0 -89.5 13.5t-72 44t-48.5 80.5t-18 122q0 125 58.5 192t156.5 67q51 0 91 -17.5t67.5 -50t42 -78t14.5 -100.5v-43h-329zM384 295q-2 23 -4 37.5
t-10 31.5q-13 29 -38.5 46.5t-61.5 17.5q-37 0 -62.5 -17.5t-38.5 -46.5q-8 -17 -10 -31.5t-3 -37.5h228zM309 599h-77l-111 162h113z" />
    <glyph glyph-name="eacute" unicode="&#xe9;" horiz-adv-x="540" 
d="M156 224q0 -66 33 -104t96 -38q43 0 69.5 12.5t53.5 39.5l65 -61q-20 -20 -39.5 -34.5t-42 -24.5t-49 -15t-59.5 -5q-48 0 -89.5 13.5t-72 44t-48.5 80.5t-18 122q0 125 58.5 192t156.5 67q51 0 91 -17.5t67.5 -50t42 -78t14.5 -100.5v-43h-329zM384 295q-2 23 -4 37.5
t-10 31.5q-13 29 -38.5 46.5t-61.5 17.5q-37 0 -62.5 -17.5t-38.5 -46.5q-8 -17 -10 -31.5t-3 -37.5h228zM303 599h-77l75 162h113z" />
    <glyph glyph-name="ecircumflex" unicode="&#xea;" horiz-adv-x="540" 
d="M156 224q0 -66 33 -104t96 -38q43 0 69.5 12.5t53.5 39.5l65 -61q-20 -20 -39.5 -34.5t-42 -24.5t-49 -15t-59.5 -5q-48 0 -89.5 13.5t-72 44t-48.5 80.5t-18 122q0 125 58.5 192t156.5 67q51 0 91 -17.5t67.5 -50t42 -78t14.5 -100.5v-43h-329zM384 295q-2 23 -4 37.5
t-10 31.5q-13 29 -38.5 46.5t-61.5 17.5q-37 0 -62.5 -17.5t-38.5 -46.5q-8 -17 -10 -31.5t-3 -37.5h228zM441 599h-85l-87 97l-87 -97h-85l129 161h86z" />
    <glyph glyph-name="edieresis" unicode="&#xeb;" horiz-adv-x="540" 
d="M156 224q0 -66 33 -104t96 -38q43 0 69.5 12.5t53.5 39.5l65 -61q-20 -20 -39.5 -34.5t-42 -24.5t-49 -15t-59.5 -5q-48 0 -89.5 13.5t-72 44t-48.5 80.5t-18 122q0 125 58.5 192t156.5 67q51 0 91 -17.5t67.5 -50t42 -78t14.5 -100.5v-43h-329zM384 295q-2 23 -4 37.5
t-10 31.5q-13 29 -38.5 46.5t-61.5 17.5q-37 0 -62.5 -17.5t-38.5 -46.5q-8 -17 -10 -31.5t-3 -37.5h228zM423 604h-92v108h92v-108zM207 604h-92v108h92v-108z" />
    <glyph glyph-name="igrave" unicode="&#xec;" horiz-adv-x="264" 
d="M174 599h-77l-111 162h113zM183 0h-102v507h102v-507z" />
    <glyph glyph-name="iacute" unicode="&#xed;" horiz-adv-x="264" 
d="M168 599h-77l75 162h113zM183 0h-102v507h102v-507z" />
    <glyph glyph-name="icircumflex" unicode="&#xee;" horiz-adv-x="264" 
d="M306 599h-85l-87 97l-87 -97h-85l129 161h86zM183 0h-102v507h102v-507z" />
    <glyph glyph-name="idieresis" unicode="&#xef;" horiz-adv-x="264" 
d="M288 604h-92v108h92v-108zM72 604h-92v108h92v-108zM183 0h-102v507h102v-507z" />
    <glyph glyph-name="eth" unicode="&#xf0;" horiz-adv-x="529" 
d="M321 647h87v-72h-50l51 -94q19 -35 31.5 -62.5t19.5 -53.5t9.5 -53.5t2.5 -62.5q0 -63 -11.5 -111t-47.5 -85q-24 -26 -61 -42.5t-88 -16.5t-87.5 16.5t-60.5 42.5q-36 37 -47.5 85t-11.5 111t11.5 111t47.5 85q29 30 68 42t70 12q20 0 42 -5l-45 81h-116v72h78l-39 70
h108zM264 413q-43 0 -72 -29q-23 -23 -28 -59t-5 -76t5 -76t28 -59q29 -29 72 -29q22 0 40.5 7.5t32.5 21.5q23 23 28 59t5 76t-5 76t-28 59q-14 14 -32.5 21.5t-40.5 7.5z" />
    <glyph glyph-name="ntilde" unicode="&#xf1;" horiz-adv-x="568" 
d="M316 513q39 0 70.5 -12t54.5 -34q29 -29 40 -64.5t11 -78.5v-324h-102v309q0 59 -29.5 86t-72.5 27t-74 -27.5t-31 -85.5v-309h-102v507h100v-51q26 29 61.5 43t73.5 14zM220 723q22 0 38.5 -6t36.5 -18q15 -9 27.5 -14t27.5 -5q12 0 25.5 5.5t33.5 25.5l48 -47
q-34 -34 -57.5 -44.5t-46.5 -10.5q-22 0 -38.5 6t-36.5 17q-14 8 -27.5 13.5t-28.5 5.5q-13 0 -25 -4.5t-33 -25.5l-48 47q34 34 57 44.5t47 10.5z" />
    <glyph glyph-name="ograve" unicode="&#xf2;" horiz-adv-x="537" 
d="M268 513q52 0 89.5 -17t62.5 -43q36 -38 48 -86.5t12 -112.5q0 -65 -12 -113.5t-48 -86.5q-25 -26 -62.5 -43t-89.5 -17t-89 17t-62 43q-36 38 -48 86.5t-12 113.5q0 64 12 112.5t48 86.5q25 26 62 43t89 17zM268 422q-45 0 -74 -29q-23 -23 -29 -60t-6 -79t6 -79t29 -60
q30 -30 74 -30q45 0 75 30q23 23 29 60t6 79t-6 79t-29 60q-29 29 -75 29zM309 599h-77l-111 162h113z" />
    <glyph glyph-name="oacute" unicode="&#xf3;" horiz-adv-x="537" 
d="M268 513q52 0 89.5 -17t62.5 -43q36 -38 48 -86.5t12 -112.5q0 -65 -12 -113.5t-48 -86.5q-25 -26 -62.5 -43t-89.5 -17t-89 17t-62 43q-36 38 -48 86.5t-12 113.5q0 64 12 112.5t48 86.5q25 26 62 43t89 17zM268 422q-45 0 -74 -29q-23 -23 -29 -60t-6 -79t6 -79t29 -60
q30 -30 74 -30q45 0 75 30q23 23 29 60t6 79t-6 79t-29 60q-29 29 -75 29zM303 599h-77l75 162h113z" />
    <glyph glyph-name="ocircumflex" unicode="&#xf4;" horiz-adv-x="537" 
d="M268 513q52 0 89.5 -17t62.5 -43q36 -38 48 -86.5t12 -112.5q0 -65 -12 -113.5t-48 -86.5q-25 -26 -62.5 -43t-89.5 -17t-89 17t-62 43q-36 38 -48 86.5t-12 113.5q0 64 12 112.5t48 86.5q25 26 62 43t89 17zM268 422q-45 0 -74 -29q-23 -23 -29 -60t-6 -79t6 -79t29 -60
q30 -30 74 -30q45 0 75 30q23 23 29 60t6 79t-6 79t-29 60q-29 29 -75 29zM441 599h-85l-87 97l-87 -97h-85l129 161h86z" />
    <glyph glyph-name="otilde" unicode="&#xf5;" horiz-adv-x="537" 
d="M268 513q52 0 89.5 -17t62.5 -43q36 -38 48 -86.5t12 -112.5q0 -65 -12 -113.5t-48 -86.5q-25 -26 -62.5 -43t-89.5 -17t-89 17t-62 43q-36 38 -48 86.5t-12 113.5q0 64 12 112.5t48 86.5q25 26 62 43t89 17zM268 422q-45 0 -74 -29q-23 -23 -29 -60t-6 -79t6 -79t29 -60
q30 -30 74 -30q45 0 75 30q23 23 29 60t6 79t-6 79t-29 60q-29 29 -75 29zM202 723q22 0 38.5 -6t36.5 -18q15 -9 27.5 -14t27.5 -5q12 0 25.5 5.5t33.5 25.5l48 -47q-34 -34 -57.5 -44.5t-46.5 -10.5q-22 0 -38.5 6t-36.5 17q-14 8 -27.5 13.5t-28.5 5.5q-13 0 -25 -4.5
t-33 -25.5l-48 47q34 34 57 44.5t47 10.5z" />
    <glyph glyph-name="odieresis" unicode="&#xf6;" horiz-adv-x="537" 
d="M268 513q52 0 89.5 -17t62.5 -43q36 -38 48 -86.5t12 -112.5q0 -65 -12 -113.5t-48 -86.5q-25 -26 -62.5 -43t-89.5 -17t-89 17t-62 43q-36 38 -48 86.5t-12 113.5q0 64 12 112.5t48 86.5q25 26 62 43t89 17zM268 422q-45 0 -74 -29q-23 -23 -29 -60t-6 -79t6 -79t29 -60
q30 -30 74 -30q45 0 75 30q23 23 29 60t6 79t-6 79t-29 60q-29 29 -75 29zM423 604h-92v108h92v-108zM207 604h-92v108h92v-108z" />
    <glyph glyph-name="divide" unicode="&#xf7;" horiz-adv-x="533" 
d="M484 230h-436v95h436v-95zM321 33h-109v109h109v-109zM321 414h-109v109h109v-109z" />
    <glyph glyph-name="oslash" unicode="&#xf8;" horiz-adv-x="537" 
d="M420 453q36 -38 48 -86.5t12 -112.5q0 -65 -12 -113.5t-48 -86.5q-25 -26 -62.5 -43t-89.5 -17q-32 0 -57.5 7t-46.5 18l-37 -63h-69l58 99q-35 38 -47 86.5t-12 112.5t12 112.5t48 86.5q25 26 62 43t89 17q32 0 58 -7t47 -18l37 63h69zM209 103q25 -18 59 -18
q45 0 75 30q23 23 29 60t6 79q0 30 -2.5 58t-12.5 51zM268 422q-45 0 -74 -29q-23 -23 -29 -60t-6 -79q0 -30 2.5 -58t12.5 -51l154 260q-26 17 -60 17z" />
    <glyph glyph-name="ugrave" unicode="&#xf9;" horiz-adv-x="568" 
d="M487 0h-100v51q-26 -29 -61.5 -43t-73.5 -14q-39 0 -70.5 12t-54.5 34q-29 29 -40 64.5t-11 78.5v324h102v-309q0 -59 29.5 -86t72.5 -27q21 0 40.5 6.5t33.5 20.5t22.5 35.5t8.5 50.5v309h102v-507zM321 599h-77l-111 162h113z" />
    <glyph glyph-name="uacute" unicode="&#xfa;" horiz-adv-x="568" 
d="M487 0h-100v51q-26 -29 -61.5 -43t-73.5 -14q-39 0 -70.5 12t-54.5 34q-29 29 -40 64.5t-11 78.5v324h102v-309q0 -59 29.5 -86t72.5 -27q21 0 40.5 6.5t33.5 20.5t22.5 35.5t8.5 50.5v309h102v-507zM315 599h-77l75 162h113z" />
    <glyph glyph-name="ucircumflex" unicode="&#xfb;" horiz-adv-x="568" 
d="M487 0h-100v51q-26 -29 -61.5 -43t-73.5 -14q-39 0 -70.5 12t-54.5 34q-29 29 -40 64.5t-11 78.5v324h102v-309q0 -59 29.5 -86t72.5 -27q21 0 40.5 6.5t33.5 20.5t22.5 35.5t8.5 50.5v309h102v-507zM453 599h-85l-87 97l-87 -97h-85l129 161h86z" />
    <glyph glyph-name="udieresis" unicode="&#xfc;" horiz-adv-x="568" 
d="M487 0h-100v51q-26 -29 -61.5 -43t-73.5 -14q-39 0 -70.5 12t-54.5 34q-29 29 -40 64.5t-11 78.5v324h102v-309q0 -59 29.5 -86t72.5 -27q21 0 40.5 6.5t33.5 20.5t22.5 35.5t8.5 50.5v309h102v-507zM435 604h-92v108h92v-108zM219 604h-92v108h92v-108z" />
    <glyph glyph-name="yacute" unicode="&#xfd;" horiz-adv-x="472" 
d="M239 -105q-14 -40 -37 -63q-21 -21 -48 -29t-56 -8h-41v92h26q32 0 47 11.5t26 42.5l29 83l-177 483h108l121 -357l118 357h109zM272 599h-77l75 162h113z" />
    <glyph glyph-name="thorn" unicode="&#xfe;" horiz-adv-x="553" 
d="M183 456q28 33 60 45t73 12q38 0 70 -12t53 -33q18 -19 29.5 -43t17.5 -51.5t8 -58t2 -61.5t-2 -61.5t-8 -58.5t-17.5 -52t-29.5 -43q-21 -21 -53 -33t-70 -12q-41 0 -73 12t-60 46v-257h-102v917h102v-256zM289 422q-35 0 -56 -13.5t-32 -36.5t-14.5 -53.5t-3.5 -64.5
t3.5 -64.5t14.5 -54t32 -37t56 -13.5q34 0 55 13.5t32 37t14.5 54t3.5 64.5t-3.5 64.5t-14.5 53.5t-32 36.5t-55 13.5z" />
    <glyph glyph-name="ydieresis" unicode="&#xff;" horiz-adv-x="472" 
d="M239 -105q-14 -40 -37 -63q-21 -21 -48 -29t-56 -8h-41v92h26q32 0 47 11.5t26 42.5l29 83l-177 483h108l121 -357l118 357h109zM392 604h-92v108h92v-108zM176 604h-92v108h92v-108z" />
    <glyph glyph-name="dotlessi" unicode="&#x131;" horiz-adv-x="264" 
d="M183 0h-102v507h102v-507z" />
    <glyph glyph-name="IJ" unicode="&#x132;" horiz-adv-x="799" 
d="M201 0h-108v712h108v-712zM717 225q0 -56 -18.5 -99t-51 -72t-75.5 -44.5t-92 -15.5q-55 0 -95.5 16t-77.5 53l72 71q19 -19 40.5 -31t60.5 -12q60 0 94.5 36t34.5 106v479h108v-487z" />
    <glyph glyph-name="ij" unicode="&#x133;" horiz-adv-x="528" 
d="M183 0h-102v507h102v-507zM186 607h-108v108h108v-108zM447 -65q0 -28 -8 -53.5t-25 -44.5t-43.5 -30.5t-62.5 -11.5h-63v87h45q31 0 43 15t12 44v566h102v-572zM450 607h-108v108h108v-108z" />
    <glyph glyph-name="Lslash" unicode="&#x141;" horiz-adv-x="587" 
d="M215 426l141 89v-91l-141 -89v-238h342v-97h-450v266l-69 -44v93l69 43v354h108v-286z" />
    <glyph glyph-name="lslash" unicode="&#x142;" horiz-adv-x="325" 
d="M194 470l70 43v-86l-70 -43v-221q0 -41 12 -56.5t43 -15.5h45v-91h-56q-146 0 -146 157v164l-59 -36v87l59 36v304h102v-242z" />
    <glyph glyph-name="OE" unicode="&#x152;" horiz-adv-x="981" 
d="M321 718q42 0 81 -15t69 -50v59h455v-97h-347v-208h296v-97h-296v-213h347v-97h-455v59q-29 -34 -69.5 -49.5t-81.5 -15.5q-59 0 -103 18.5t-79 53.5q-26 25 -40 53.5t-21 63t-8.5 77t-1.5 96.5t1.5 96.5t8.5 77t21 62.5t40 54q35 35 79.5 53.5t103.5 18.5zM323 622
q-65 0 -106 -44q-13 -14 -21.5 -31t-13 -41.5t-6 -60.5t-1.5 -89t1.5 -88.5t6 -60.5t13 -41.5t21.5 -30.5q20 -21 47 -33t59 -12t59 12t47 33q13 14 21.5 30.5t13 41.5t6 60.5t1.5 88.5t-1.5 89t-6 60.5t-13 41.5t-21.5 31q-41 44 -106 44z" />
    <glyph glyph-name="oe" unicode="&#x153;" horiz-adv-x="864" 
d="M478 224q0 -66 33 -104t96 -38q43 0 70 12.5t53 39.5l65 -61q-19 -20 -38.5 -34.5t-42 -24.5t-49 -15t-59.5 -5q-56 0 -100.5 19t-74.5 61q-24 -37 -65.5 -58.5t-97.5 -21.5q-51 0 -88.5 17t-62.5 43q-36 38 -48 86.5t-12 113.5q0 64 12 112.5t48 86.5q25 26 62.5 43
t88.5 17q57 0 98.5 -21.5t65.5 -59.5q26 40 67 60.5t93 20.5q51 0 91 -17.5t67.5 -50t42 -77.5t14.5 -99v-45h-329zM378 254q0 42 -6 79t-29 60q-29 29 -75 29q-45 0 -74 -29q-23 -23 -29 -60t-6 -79t6 -79t29 -60q30 -30 74 -30q45 0 75 30q23 23 29 60t6 79zM707 295
q-2 23 -4 37.5t-10 31.5q-13 29 -38.5 46.5t-61.5 17.5q-37 0 -62.5 -17.5t-38.5 -46.5q-8 -17 -10 -31.5t-3 -37.5h228z" />
    <glyph glyph-name="Scaron" unicode="&#x160;" horiz-adv-x="590" 
d="M292 718q72 0 123.5 -19t97.5 -62l-68 -68q-33 32 -72 43.5t-85 11.5q-63 0 -96 -31t-33 -80q0 -20 6 -37t20 -29t31.5 -19.5t46.5 -12.5l85 -13q49 -8 79 -20t53 -33q58 -53 58 -146q0 -49 -19 -88t-53 -66t-81 -41t-103 -14q-81 0 -140.5 21t-111.5 73l71 71
q39 -39 84 -54t99 -15q71 0 109 28.5t38 81.5q0 50 -28 74q-26 23 -78 30l-84 12q-89 14 -134 57q-53 48 -53 137q0 46 16.5 84.5t47 66t74.5 42.5t100 15zM338 781h-86l-129 161h85l87 -97l87 97h85z" />
    <glyph glyph-name="scaron" unicode="&#x161;" horiz-adv-x="499" 
d="M248 513q58 0 105.5 -13t82.5 -44l-64 -65q-24 20 -56.5 28.5t-68.5 8.5q-47 0 -69.5 -18t-22.5 -47q0 -26 16 -40t54 -18l71 -6q79 -7 119.5 -42t40.5 -102q0 -40 -16 -70t-44 -50.5t-67 -30.5t-84 -10q-62 0 -115 14.5t-98 58.5l67 67q31 -32 69.5 -42.5t76.5 -10.5
q48 0 79.5 17t31.5 53q0 26 -15.5 41t-52.5 19l-81 7q-72 7 -111 40t-39 100q0 37 15 66t41 49t60.5 30t74.5 10zM292 599h-86l-129 161h85l87 -97l87 97h85z" />
    <glyph glyph-name="Ydieresis" unicode="&#x178;" horiz-adv-x="544" 
d="M326 293v-293h-108v293l-213 419h118l149 -313l149 313h118zM427 786h-92v108h92v-108zM211 786h-92v108h92v-108z" />
    <glyph glyph-name="Zcaron" unicode="&#x17d;" horiz-adv-x="552" 
d="M504 624l-330 -527h330v-97h-456v88l330 527h-316v97h442v-88zM321 781h-86l-129 161h85l87 -97l87 97h85z" />
    <glyph glyph-name="zcaron" unicode="&#x17e;" horiz-adv-x="469" 
d="M43 79l251 337h-237v91h364v-79l-252 -337h252v-91h-378v79zM274 599h-86l-129 161h85l87 -97l87 97h85z" />
    <glyph glyph-name="longs" unicode="&#x17f;" horiz-adv-x="264" 
d="M281 625h-45q-56 0 -56 -59v-566h-102v571q0 28 8.5 53.5t25.5 45t43 31t62 11.5h64v-87z" />
    <glyph glyph-name="florin" unicode="&#x192;" horiz-adv-x="415" 
d="M385 630h-59q-29 0 -45 -15.5t-21 -43.5l-32 -180h99v-78h-113l-91 -518h-102l91 518h-58v78h72l33 185q5 27 17.5 52.5t33 45t48.5 31.5t64 12h63v-87z" />
    <glyph glyph-name="uni0237" unicode="&#x237;" horiz-adv-x="264" 
d="M183 -65q0 -28 -8 -53.5t-25 -44.5t-43.5 -30.5t-62.5 -11.5h-63v87h45q31 0 43 15t12 44v566h102v-572z" />
    <glyph glyph-name="uni02BB" unicode="&#x2bb;" horiz-adv-x="268" 
d="M190 600h-112v112l112 92v-204z" />
    <glyph glyph-name="uni02BC" unicode="&#x2bc;" horiz-adv-x="268" 
d="M190 600l-112 -92v204h112v-112z" />
    <glyph glyph-name="circumflex" unicode="&#x2c6;" horiz-adv-x="537" 
d="M441 599h-85l-87 97l-87 -97h-85l129 161h86z" />
    <glyph glyph-name="caron" unicode="&#x2c7;" horiz-adv-x="537" 
d="M312 599h-86l-129 161h85l87 -97l87 97h85z" />
    <glyph glyph-name="breve" unicode="&#x2d8;" horiz-adv-x="537" 
d="M433 738q-5 -75 -49 -110t-115 -35q-72 0 -116 35t-49 110h72q5 -35 30 -52.5t63 -17.5q14 0 29.5 4t28.5 12.5t22.5 21.5t11.5 32h72z" />
    <glyph glyph-name="dotaccent" unicode="&#x2d9;" horiz-adv-x="537" 
d="M314 604h-92v108h92v-108z" />
    <glyph glyph-name="ring" unicode="&#x2da;" horiz-adv-x="537" 
d="M269 826q26 0 48.5 -10t39.5 -27t27 -39.5t10 -48.5t-10 -48.5t-27 -39.5t-39.5 -27t-48.5 -10t-48.5 10t-39.5 27t-27 39.5t-10 48.5t10 48.5t27 39.5t39.5 27t48.5 10zM269 764q-26 0 -45 -18.5t-19 -44.5t19 -44.5t45 -18.5t45 18.5t19 44.5t-19 44.5t-45 18.5z" />
    <glyph glyph-name="ogonek" unicode="&#x2db;" horiz-adv-x="537" 
d="M233 -64h80l-51 -146h-98z" />
    <glyph glyph-name="tilde" unicode="&#x2dc;" horiz-adv-x="537" 
d="M202 723q22 0 38.5 -6t36.5 -18q15 -9 27.5 -14t27.5 -5q12 0 25.5 5.5t33.5 25.5l48 -47q-34 -34 -57.5 -44.5t-46.5 -10.5q-22 0 -38.5 6t-36.5 17q-14 8 -27.5 13.5t-28.5 5.5q-13 0 -25 -4.5t-33 -25.5l-48 47q34 34 57 44.5t47 10.5z" />
    <glyph glyph-name="hungarumlaut" unicode="&#x2dd;" horiz-adv-x="537" 
d="M396 761h106l-105 -162h-84zM199 761h106l-104 -162h-84z" />
    <glyph glyph-name="gravecomb" unicode="&#x300;" horiz-adv-x="1" 
d="M96 599h-77l-111 162h113z" />
    <glyph glyph-name="acutecomb" unicode="&#x301;" horiz-adv-x="1" 
d="M-15 599h-77l75 162h113z" />
    <glyph glyph-name="uni0302" unicode="&#x302;" horiz-adv-x="1" 
d="M174 599h-85l-87 97l-87 -97h-85l129 161h86z" />
    <glyph glyph-name="tildecomb" unicode="&#x303;" horiz-adv-x="1" 
d="M-65 723q22 0 38.5 -6t36.5 -18q15 -9 27.5 -14t27.5 -5q12 0 25.5 5.5t33.5 25.5l48 -47q-34 -34 -57.5 -44.5t-46.5 -10.5q-22 0 -38.5 6t-36.5 17q-14 8 -27.5 13.5t-28.5 5.5q-13 0 -25 -4.5t-33 -25.5l-48 47q34 34 57 44.5t47 10.5z" />
    <glyph glyph-name="uni0304" unicode="&#x304;" horiz-adv-x="1" 
d="M156 618h-309v73h309v-73z" />
    <glyph glyph-name="uni0306" unicode="&#x306;" horiz-adv-x="1" 
d="M166 738q-5 -75 -49 -110t-115 -35q-72 0 -116 35t-49 110h72q5 -35 30 -52.5t63 -17.5q14 0 29.5 4t28.5 12.5t22.5 21.5t11.5 32h72z" />
    <glyph glyph-name="uni0307" unicode="&#x307;" horiz-adv-x="1" 
d="M48 604h-92v108h92v-108z" />
    <glyph glyph-name="uni0308" unicode="&#x308;" horiz-adv-x="1" 
d="M156 604h-92v108h92v-108zM-60 604h-92v108h92v-108z" />
    <glyph glyph-name="uni030A" unicode="&#x30a;" horiz-adv-x="1" 
d="M2 826q26 0 48.5 -10t39.5 -27t27 -39.5t10 -48.5t-10 -48.5t-27 -39.5t-39.5 -27t-48.5 -10t-48.5 10t-39.5 27t-27 39.5t-10 48.5t10 48.5t27 39.5t39.5 27t48.5 10zM2 764q-26 0 -45 -18.5t-19 -44.5t19 -44.5t45 -18.5t45 18.5t19 44.5t-19 44.5t-45 18.5z" />
    <glyph glyph-name="uni030B" unicode="&#x30b;" horiz-adv-x="1" 
d="M88 761h106l-105 -162h-84zM-109 761h106l-104 -162h-84z" />
    <glyph glyph-name="uni030C" unicode="&#x30c;" horiz-adv-x="1" 
d="M45 599h-86l-129 161h85l87 -97l87 97h85z" />
    <glyph glyph-name="uni0326" unicode="&#x326;" horiz-adv-x="1" 
d="M27 -210h-101l70 147h82z" />
    <glyph glyph-name="uni0327" unicode="&#x327;" horiz-adv-x="1" 
d="M-4 -63h82l-51 -147h-101z" />
    <glyph glyph-name="uni0328" unicode="&#x328;" horiz-adv-x="1" 
d="M-4 -64h80l-51 -146h-98z" />
    <glyph glyph-name="uni037E" unicode="&#x37e;" horiz-adv-x="303" 
d="M222 -60l-116 -95v271h116v-176zM225 285h-121v122h121v-122z" />
    <glyph glyph-name="uni0394" unicode="&#x394;" horiz-adv-x="624" 
d="M5 0l261 712h87l260 -712h-608zM311 551l-162 -459h323z" />
    <glyph glyph-name="uni03A9" unicode="&#x3a9;" horiz-adv-x="646" 
d="M67 96h70q-30 29 -45 60q-17 37 -21 85.5t-4 114.5q0 56 1.5 98.5t8.5 76t21.5 61.5t40.5 54q35 35 80 53.5t104 18.5t104 -18.5t80 -53.5q26 -26 40.5 -54t21.5 -61.5t8.5 -76t1.5 -98.5q0 -66 -4 -114.5t-21 -85.5q-8 -16 -18 -30.5t-27 -29.5h70v-96h-207v87
q24 12 41.5 25.5t31.5 34.5q8 12 13 29t8 41.5t4 58.5t1 80q0 53 -1.5 89t-6 60.5t-13 41.5t-21.5 31q-40 43 -106 43t-106 -43q-13 -14 -21.5 -31t-13 -41.5t-6 -60.5t-1.5 -89q0 -46 1.5 -80t4.5 -58.5t8 -41.5t13 -29q13 -21 30.5 -34.5t41.5 -25.5v-87h-207v96z" />
    <glyph glyph-name="uni03BC" unicode="&#x3bc;" horiz-adv-x="574" 
d="M392 0v51q-26 -29 -61 -43t-73 -14q-45 0 -75 25v-224h-102v712h102v-309q0 -59 30 -86t73 -27t73.5 27t30.5 86v309h102v-507h-100z" />
    <glyph glyph-name="pi" unicode="&#x3c0;" horiz-adv-x="568" 
d="M487 0h-102v416h-202v-416h-102v507h406v-507z" />
    <glyph glyph-name="uni2007" unicode="&#x2007;" horiz-adv-x="533" 
 />
    <glyph glyph-name="uni2008" unicode="&#x2008;" horiz-adv-x="278" 
 />
    <glyph glyph-name="uni200B" unicode="&#x200b;" horiz-adv-x="0" 
 />
    <glyph glyph-name="endash" unicode="&#x2013;" horiz-adv-x="565" 
d="M498 230h-431v95h431v-95z" />
    <glyph glyph-name="emdash" unicode="&#x2014;" horiz-adv-x="972" 
d="M905 231h-838v97h838v-97z" />
    <glyph glyph-name="quoteleft" unicode="&#x2018;" horiz-adv-x="268" 
d="M190 600h-112v112l112 92v-204z" />
    <glyph glyph-name="quoteright" unicode="&#x2019;" horiz-adv-x="268" 
d="M190 600l-112 -92v204h112v-112z" />
    <glyph glyph-name="quotesinglbase" unicode="&#x201a;" horiz-adv-x="268" 
d="M190 -7l-112 -92v204h112v-112z" />
    <glyph glyph-name="quotedblleft" unicode="&#x201c;" horiz-adv-x="459" 
d="M381 601h-112v112l112 92v-204zM190 601h-112v112l112 92v-204z" />
    <glyph glyph-name="quotedblright" unicode="&#x201d;" horiz-adv-x="459" 
d="M381 600l-112 -92v204h112v-112zM190 600l-112 -92v204h112v-112z" />
    <glyph glyph-name="quotedblbase" unicode="&#x201e;" horiz-adv-x="459" 
d="M381 -7l-112 -92v204h112v-112zM190 -7l-112 -92v204h112v-112z" />
    <glyph glyph-name="dagger" unicode="&#x2020;" horiz-adv-x="590" 
d="M346 518h180v-91h-180v-427h-102v427h-180v91h180v194h102v-194z" />
    <glyph glyph-name="daggerdbl" unicode="&#x2021;" horiz-adv-x="590" 
d="M346 518h180v-91h-180v-347h180v-91h-180v-194h-102v194h-180v91h180v347h-180v91h180v194h102v-194z" />
    <glyph glyph-name="bullet" unicode="&#x2022;" horiz-adv-x="512" 
d="M256 441q34 0 63.5 -13t51.5 -35t35 -51.5t13 -63.5t-13 -63.5t-35 -51.5t-51.5 -35t-63.5 -13t-63.5 13t-51.5 35t-35 51.5t-13 63.5t13 63.5t35 51.5t51.5 35t63.5 13z" />
    <glyph glyph-name="ellipsis" unicode="&#x2026;" horiz-adv-x="803" 
d="M725 0h-117v117h117v-117zM195 0h-117v117h117v-117zM460 0h-117v117h117v-117z" />
    <glyph glyph-name="perthousand" unicode="&#x2030;" horiz-adv-x="1195" 
d="M548 712h81l-335 -712h-82zM198 344q-29 0 -54.5 9t-44.5 26.5t-30 43t-11 58.5v101q0 33 11 58.5t30 42.5t44.5 26t54.5 9t54.5 -9t44.5 -26t30 -42.5t11 -58.5v-101q0 -33 -11 -58.5t-30 -43t-44.5 -26.5t-54.5 -9zM198 413q29 0 46.5 18.5t17.5 54.5v90
q0 36 -17.5 54.5t-46.5 18.5t-46 -18.5t-17 -54.5v-90q0 -36 17 -54.5t46 -18.5zM643 -6q-29 0 -54.5 9t-44.5 26t-30 42.5t-11 58.5v101q0 33 11 58.5t30 43t44.5 26.5t54.5 9t54.5 -9t44.5 -26.5t30 -43t11 -58.5v-101q0 -33 -11 -58.5t-30 -42.5t-44.5 -26t-54.5 -9z
M643 63q29 0 46 18.5t17 54.5v90q0 36 -17 54.5t-46 18.5t-46.5 -18.5t-17.5 -54.5v-90q0 -36 17.5 -54.5t46.5 -18.5zM997 -6q-29 0 -54.5 9t-44.5 26t-30 42.5t-11 58.5v101q0 33 11 58.5t30 43t44.5 26.5t54.5 9t54.5 -9t44.5 -26.5t30 -43t11 -58.5v-101
q0 -33 -11 -58.5t-30 -42.5t-44.5 -26t-54.5 -9zM997 63q29 0 46 18.5t17 54.5v90q0 36 -17 54.5t-46 18.5t-46.5 -18.5t-17.5 -54.5v-90q0 -36 17.5 -54.5t46.5 -18.5z" />
    <glyph glyph-name="minute" unicode="&#x2032;" horiz-adv-x="292" 
d="M159 387h-102l76 325h102z" />
    <glyph glyph-name="second" unicode="&#x2033;" horiz-adv-x="481" 
d="M348 387h-102l76 325h102zM159 387h-102l76 325h102z" />
    <glyph glyph-name="guilsinglleft" unicode="&#x2039;" horiz-adv-x="339" 
d="M267 378l-107 -106l107 -107v-123l-230 230l230 229v-123z" />
    <glyph glyph-name="guilsinglright" unicode="&#x203a;" horiz-adv-x="339" 
d="M303 272l-230 -229v123l107 106l-107 107v123z" />
    <glyph glyph-name="fraction" unicode="&#x2044;" horiz-adv-x="197" 
d="M225 712h82l-335 -712h-82z" />
    <glyph glyph-name="uni2070" unicode="&#x2070;" horiz-adv-x="237" 
d="M117 430q-38 1 -66 25t-28 65v110q0 44 28 66.5t66 22.5t66.5 -22.5t28.5 -66.5v-110q0 -41 -28.5 -65t-66.5 -25zM118 482q18 0 27 11t9 28v108q0 17 -9 28t-27 11q-19 0 -28 -11t-9 -28v-108q0 -17 9 -28t28 -11z" />
    <glyph glyph-name="uni2071" unicode="&#x2071;" horiz-adv-x="150" 
d="M108 328h-66v269h66v-269zM108 654h-66v61h66v-61z" />
    <glyph glyph-name="uni2074" unicode="&#x2074;" horiz-adv-x="229" 
d="M133 479h-114v47l94 190h55l-93 -189h58v59h49v-59h25v-48h-25v-45h-49v45z" />
    <glyph glyph-name="uni2075" unicode="&#x2075;" horiz-adv-x="225" 
d="M112 431q-37 0 -60 17q-23 18 -27 54h52q6 -25 35 -25q38 0 38 49q0 28 -9 40t-28 12q-15 0 -23.5 -6t-15.5 -20h-45v164h161v-42h-119v-75q12 11 24 15.5t26 4.5q17 0 32.5 -5.5t28.5 -19.5q21 -21 21 -68q0 -20 -4.5 -36.5t-15.5 -30.5q-22 -28 -71 -28z" />
    <glyph glyph-name="uni2076" unicode="&#x2076;" horiz-adv-x="238" 
d="M119 431q-40 0 -68.5 24.5t-28.5 70.5q0 17 4 34.5t18 44.5l55 111h62l-54 -109q12 5 25 5q33 -1 58.5 -21.5t25.5 -64.5q0 -46 -28.5 -70.5t-68.5 -24.5zM118 481q21 0 31.5 12.5t10.5 32.5q0 45 -42 45q-20 0 -29.5 -12.5t-9.5 -32.5t9.5 -32.5t29.5 -12.5z" />
    <glyph glyph-name="uni2077" unicode="&#x2077;" horiz-adv-x="238" 
d="M162 670h-77v-42h-54v88h185v-47l-91 -235h-54z" />
    <glyph glyph-name="uni2078" unicode="&#x2078;" horiz-adv-x="233" 
d="M117 431q-40 0 -69 22t-29 64q0 22 10.5 38t27.5 24q-16 10 -25 24t-9 34q0 19 8 34.5t21 26t30 16t35 5.5t35 -5.5t29.5 -16t20.5 -26t8 -34.5q0 -20 -9 -34t-25 -24q17 -8 27.5 -24t10.5 -38q0 -42 -29 -64t-68 -22zM117 479q17 0 28.5 11.5t11.5 28.5t-11.5 28.5
t-28.5 11.5t-29 -11.5t-12 -28.5t12 -28.5t29 -11.5zM117 599q14 0 25 10t11 25t-11 25.5t-25 10.5q-16 0 -26.5 -10.5t-10.5 -25.5t10.5 -25t26.5 -10z" />
    <glyph glyph-name="uni2079" unicode="&#x2079;" horiz-adv-x="240" 
d="M133 543q-12 -5 -25 -5q-33 1 -59 21.5t-26 64.5q0 46 29 70.5t69 24.5t68.5 -24.5t28.5 -70.5q0 -17 -4 -34.5t-18 -44.5l-55 -111h-62zM121 579q20 0 30 12.5t10 32.5t-10 32.5t-30 12.5t-30.5 -12.5t-10.5 -32.5q0 -45 41 -45z" />
    <glyph glyph-name="uni207F" unicode="&#x207f;" horiz-adv-x="314" 
d="M178 606q22 0 38 -6.5t28 -17.5q17 -17 23 -36t6 -43v-175h-66v166q0 29 -12 41t-36 12q-20 0 -35 -13.5t-15 -40.5v-165h-65v274h65v-29q24 33 69 33z" />
    <glyph glyph-name="uni2080" unicode="&#x2080;" horiz-adv-x="237" 
d="M118 -153q-38 1 -66 25t-28 65v110q0 44 28 66.5t66 22.5t66.5 -22.5t28.5 -66.5v-110q0 -41 -28.5 -65t-66.5 -25zM119 -101q18 0 27 11t9 28v108q0 17 -9 28t-27 11q-19 0 -28 -11t-9 -28v-108q0 -17 9 -28t28 -11z" />
    <glyph glyph-name="uni2081" unicode="&#x2081;" horiz-adv-x="237" 
d="M109 68l-63 -53v65l63 53h57v-282h-57v217z" />
    <glyph glyph-name="uni2082" unicode="&#x2082;" horiz-adv-x="231" 
d="M26 -101l111 116q11 11 14.5 20.5t3.5 20.5q0 13 -10 22.5t-27 9.5q-34 0 -37 -36h-56q2 41 28.5 62.5t64.5 21.5q41 0 66 -22.5t25 -57.5q0 -20 -7.5 -34t-24.5 -32l-86 -91h115v-48h-180v48z" />
    <glyph glyph-name="uni2083" unicode="&#x2083;" horiz-adv-x="232" 
d="M113 -152q-39 0 -66.5 20.5t-29.5 67.5h57q2 -17 12.5 -27t26.5 -10q17 0 28.5 10.5t11.5 30.5t-12 28.5t-29 8.5h-9v39h9q17 0 27 8.5t10 24.5q0 17 -10.5 26t-25.5 9q-14 0 -23.5 -8.5t-11.5 -25.5h-57q2 42 27 64t65 22q44 0 68.5 -23.5t24.5 -55.5q0 -25 -10.5 -39
t-26.5 -20q17 -8 29 -24t12 -42q0 -38 -26.5 -61t-70.5 -23z" />
    <glyph glyph-name="uni2084" unicode="&#x2084;" horiz-adv-x="229" 
d="M133 -104h-114v47l94 190h55l-93 -189h58v59h49v-59h25v-48h-25v-45h-49v45z" />
    <glyph glyph-name="uni2085" unicode="&#x2085;" horiz-adv-x="225" 
d="M112 -152q-37 0 -60 17q-23 18 -27 54h52q6 -25 35 -25q38 0 38 49q0 28 -9 40t-28 12q-15 0 -23.5 -6t-15.5 -20h-45v164h161v-42h-119v-75q12 11 24 15.5t26 4.5q17 0 32.5 -5.5t28.5 -19.5q21 -21 21 -68q0 -20 -4.5 -36.5t-15.5 -30.5q-22 -28 -71 -28z" />
    <glyph glyph-name="uni2086" unicode="&#x2086;" horiz-adv-x="238" 
d="M119 -152q-40 0 -68.5 24.5t-28.5 70.5q0 17 4 34.5t18 44.5l55 111h62l-54 -109q12 5 25 5q33 -1 58.5 -21.5t25.5 -64.5q0 -46 -28.5 -70.5t-68.5 -24.5zM118 -102q21 0 31.5 12.5t10.5 32.5q0 45 -42 45q-20 0 -29.5 -12.5t-9.5 -32.5t9.5 -32.5t29.5 -12.5z" />
    <glyph glyph-name="uni2087" unicode="&#x2087;" horiz-adv-x="238" 
d="M162 87h-77v-42h-54v88h185v-47l-91 -235h-54z" />
    <glyph glyph-name="uni2088" unicode="&#x2088;" horiz-adv-x="233" 
d="M117 -152q-40 0 -69 22t-29 64q0 22 10.5 38t27.5 24q-16 10 -25 24t-9 34q0 19 8 34.5t21 26t30 16t35 5.5t35 -5.5t29.5 -16t20.5 -26t8 -34.5q0 -20 -9 -34t-25 -24q17 -8 27.5 -24t10.5 -38q0 -42 -29 -64t-68 -22zM117 -104q17 0 28.5 11.5t11.5 28.5t-11.5 28.5
t-28.5 11.5t-29 -11.5t-12 -28.5t12 -28.5t29 -11.5zM117 16q14 0 25 10t11 25t-11 25.5t-25 10.5q-16 0 -26.5 -10.5t-10.5 -25.5t10.5 -25t26.5 -10z" />
    <glyph glyph-name="uni2089" unicode="&#x2089;" horiz-adv-x="240" 
d="M133 -40q-12 -5 -25 -5q-33 1 -59 21.5t-26 64.5q0 46 29 70.5t69 24.5t68.5 -24.5t28.5 -70.5q0 -17 -4 -34.5t-18 -44.5l-55 -111h-62zM121 -4q20 0 30 12.5t10 32.5t-10 32.5t-30 12.5t-30.5 -12.5t-10.5 -32.5q0 -45 41 -45z" />
    <glyph glyph-name="uni2090" unicode="&#x2090;" horiz-adv-x="290" 
d="M116 -163q-26 0 -42 6t-28 19q-23 23 -23 60q0 34 23 55.5t73 21.5h68v19q0 44 -56 44q-18 0 -30.5 -5.5t-23.5 -17.5l-41 39q20 21 41.5 31t56.5 10q115 0 115 -97v-181h-64v26q-23 -30 -69 -30zM131 -113q22 0 38 12.5t17 33.5l1 23h-38q-62 0 -62 -40q0 -10 7 -17
q12 -12 37 -12z" />
    <glyph glyph-name="uni2091" unicode="&#x2091;" horiz-adv-x="295" 
d="M156 -163q-61 0 -93 39.5t-32 100.5q0 71 31 106.5t87 35.5q25 0 46 -8.5t36 -26.5t24 -46.5t9 -68.5v-6h-173q1 -34 17.5 -53t47.5 -19q20 0 34.5 6.5t27.5 19.5l38 -37q-21 -24 -44.5 -33.5t-55.5 -9.5zM208 1q-1 28 -13 44q-7 9 -18 15t-28 6q-16 0 -27.5 -6
t-18.5 -15q-6 -8 -8.5 -19t-3.5 -25h117z" />
    <glyph glyph-name="uni2092" unicode="&#x2092;" horiz-adv-x="298" 
d="M149 119q30 0 51 -9.5t35 -23.5q17 -17 24.5 -41.5t7.5 -66.5t-7.5 -66t-24.5 -42q-14 -14 -35 -23.5t-51 -9.5t-51.5 9.5t-35.5 23.5q-17 18 -24 42t-7 66t7 66.5t24 41.5q13 14 35 23.5t52 9.5zM149 60q-25 0 -38 -16q-15 -18 -15 -66q0 -46 15 -66q12 -15 38 -15
t38 15q15 20 15 66q0 48 -15 66q-13 16 -38 16z" />
    <glyph glyph-name="uni2093" unicode="&#x2093;" horiz-adv-x="285" 
d="M179 -20l94 -140h-78l-53 84l-52 -84h-78l95 140l-91 135h78l48 -82l51 82h78z" />
    <glyph glyph-name="dong" unicode="&#x20ab;" horiz-adv-x="443" 
d="M205 145q-38 0 -65 13t-44 36q-21 29 -30 67t-9 84q0 47 9 85t30 66q17 23 44 36.5t65 13.5q33 0 56.5 -15t36.5 -39v107h-85v54h85v59h74v-59h46v-54h-46v-450h-72v49q-14 -24 -38 -38.5t-57 -14.5zM61 67h311v-67h-311v67zM215 211q26 0 42 10t25 28t12.5 42.5
t3.5 53.5t-3.5 53.5t-12.5 42.5t-25 28t-42 10q-27 0 -43.5 -9.5t-25.5 -27.5t-12 -42.5t-3 -54.5q0 -29 3 -53.5t12 -42.5t25.5 -28t43.5 -10z" />
    <glyph glyph-name="Euro" unicode="&#x20ac;" horiz-adv-x="681" 
d="M367 718q99 0 167 -56.5t87 -162.5h-110q-12 55 -48 89t-96 34q-64 0 -105 -44q-18 -20 -27 -43.5t-13 -66.5h184v-67h-187v-86h187v-67h-184q3 -45 12 -69.5t28 -44.5q41 -44 105 -44q60 0 96 34t48 89h110q-19 -106 -87.5 -162.5t-166.5 -56.5q-59 0 -104 18.5
t-80 53.5q-38 37 -52.5 79t-17.5 103h-70v67h68v86h-68v67h70q4 59 18.5 99.5t51.5 78.5q35 35 80 53.5t104 18.5z" />
    <glyph glyph-name="uni20B4" unicode="&#x20b4;" horiz-adv-x="670" 
d="M349 -6q-56 0 -103 14t-81 41t-53 66t-19 88q0 24 3 45h-53v67h79q6 9 13 17.5t16 16.5q22 20 50.5 32t76.5 20h-235v67h418q11 20 11 45q0 48 -33.5 79.5t-96.5 31.5q-45 0 -83.5 -11.5t-71.5 -43.5l-69 68q46 43 98 62t123 19q55 0 99.5 -15t75 -43t47 -66.5
t16.5 -84.5q0 -22 -3 -41h53v-67h-79q-10 -16 -23 -28q-48 -45 -135 -57l-8 -1h245v-67h-418q-9 -21 -9 -48q0 -52 38.5 -80.5t108.5 -28.5q55 0 99 14.5t83 53.5l72 -71q-51 -52 -111 -73t-141 -21z" />
    <glyph glyph-name="uni20B8" unicode="&#x20b8;" horiz-adv-x="560" 
d="M530 465h-196v-465h-108v465h-196v97h500v-97zM529 645h-498v67h498v-67z" />
    <glyph glyph-name="uni20BA" unicode="&#x20ba;" horiz-adv-x="590" 
d="M106 181l-68 -43v71l68 43v87l-68 -43v71l68 43v302h108v-234l146 92v-71l-146 -92v-87l146 92v-71l-146 -92v-153h82q69 0 105 33.5t49 89.5h110q-19 -107 -84.5 -163t-171.5 -56h-198v181z" />
    <glyph glyph-name="uni20BD" unicode="&#x20bd;" horiz-adv-x="636" 
d="M100 281h-62v96h62v335h270q52 0 94 -16.5t72 -45t46 -68.5t16 -86q0 -47 -16 -86t-46 -68t-72 -45t-94 -16h-162v-281h-108v281zM364 377q57 0 91.5 31t34.5 88t-34.5 88t-91.5 31h-156v-238h156z" />
    <glyph glyph-name="uni2116" unicode="&#x2116;" horiz-adv-x="975" 
d="M580 0h-92l-293 513v-513h-102v712h93l292 -512v512h102v-712zM919 240h-275v76h275v-76zM782 717q33 0 59.5 -12t43.5 -29q23 -24 32 -59t9 -80q0 -46 -8.5 -80.5t-32.5 -58.5q-17 -17 -43.5 -29t-59.5 -12t-59 12t-43 29q-24 24 -32.5 59t-8.5 80q0 46 8 80t33 59
q17 17 43 29t59 12zM782 646q-26 0 -42 -16q-14 -14 -17 -39t-3 -54t3 -53.5t17 -38.5q17 -17 42 -17q14 0 24 4.5t18 12.5q14 14 17 38.5t3 53.5t-3 54t-17 39q-16 16 -42 16z" />
    <glyph glyph-name="uni2117" unicode="&#x2117;" horiz-adv-x="858" 
d="M429 -6q-75 0 -141 28.5t-115 77.5t-77.5 115t-28.5 141t28.5 141t77.5 115t115 77.5t141 28.5t141 -28.5t115 -77.5t77.5 -115t28.5 -141t-28.5 -141t-77.5 -115t-115 -77.5t-141 -28.5zM429 62q60 0 113 22.5t92 62.5t61.5 93.5t22.5 115.5t-22.5 115.5t-61.5 93.5
t-92 62.5t-113 22.5t-113 -22.5t-92 -62.5t-61.5 -93.5t-22.5 -115.5t22.5 -115.5t61.5 -93.5t92 -62.5t113 -22.5zM305 552h167q28 0 51 -9.5t39.5 -26t26 -38.5t9.5 -46t-9.5 -46t-26 -38.5t-39.5 -26t-51 -9.5h-95v-151h-72v391zM463 373q29 0 46.5 17t17.5 42t-17.5 42
t-46.5 17h-86v-118h86z" />
    <glyph glyph-name="trademark" unicode="&#x2122;" horiz-adv-x="870" 
d="M809 286h-69v282l-95 -205h-53l-97 205v-282h-69v426h69l123 -260l122 260h69v-426zM340 650h-115v-364h-69v364h-115v62h299v-62z" />
    <glyph glyph-name="Omega" unicode="&#x2126;" horiz-adv-x="646" 
d="M67 96h70q-30 29 -45 60q-17 37 -21 85.5t-4 114.5q0 56 1.5 98.5t8.5 76t21.5 61.5t40.5 54q35 35 80 53.5t104 18.5t104 -18.5t80 -53.5q26 -26 40.5 -54t21.5 -61.5t8.5 -76t1.5 -98.5q0 -66 -4 -114.5t-21 -85.5q-8 -16 -18 -30.5t-27 -29.5h70v-96h-207v87
q24 12 41.5 25.5t31.5 34.5q8 12 13 29t8 41.5t4 58.5t1 80q0 53 -1.5 89t-6 60.5t-13 41.5t-21.5 31q-40 43 -106 43t-106 -43q-13 -14 -21.5 -31t-13 -41.5t-6 -60.5t-1.5 -89q0 -46 1.5 -80t4.5 -58.5t8 -41.5t13 -29q13 -21 30.5 -34.5t41.5 -25.5v-87h-207v96z" />
    <glyph glyph-name="uni2150" unicode="&#x2150;" horiz-adv-x="877" 
d="M564 712h82l-335 -712h-82zM769 359h-121v-71h-69v139h265v-68l-143 -359h-73zM155 626l-87 -76v87l87 75h77v-427h-77v341z" />
    <glyph glyph-name="uni2151" unicode="&#x2151;" horiz-adv-x="869" 
d="M564 712h82l-335 -712h-82zM716 177q-15 -5 -33 -5q-23 0 -43 8.5t-35.5 24.5t-24.5 39.5t-9 52.5q0 63 38 98.5t95 35.5q28 0 52 -9t42 -25.5t28 -41.5t10 -56q0 -23 -7.5 -47t-25.5 -61l-93 -191h-83zM704 234q24 0 40 16.5t16 47.5t-15.5 47.5t-40.5 16.5
q-26 0 -41 -16.5t-15 -47.5q0 -29 15 -46.5t41 -17.5zM155 626l-87 -76v87l87 75h77v-427h-77v341z" />
    <glyph glyph-name="uni2152" unicode="&#x2152;" horiz-adv-x="1092" 
d="M523 712h82l-335 -712h-82zM611 341l-87 -76v87l87 75h77v-427h-77v341zM923 -4q-27 0 -51 8.5t-42 24.5t-28.5 39.5t-10.5 53.5v182q0 30 10.5 54t28.5 40t42 24.5t51 8.5t51 -8.5t42.5 -24.5t29 -40t10.5 -54v-182q0 -30 -10.5 -53.5t-29 -39.5t-42.5 -24.5t-51 -8.5z
M923 64q26 0 41 16t15 43v180q0 27 -15 43t-41 16t-41 -16t-15 -43v-180q0 -27 15 -43t41 -16zM155 626l-87 -76v87l87 75h77v-427h-77v341z" />
    <glyph glyph-name="onethird" unicode="&#x2153;" horiz-adv-x="875" 
d="M564 712h82l-335 -712h-82zM702 -4q-27 0 -52 7t-44.5 22.5t-31.5 39t-13 56.5h76q2 -31 20.5 -44.5t44.5 -13.5t45 16.5t19 44.5q0 61 -66 61h-11v67h11q29 0 44.5 15t15.5 40q0 29 -17 43t-41 14q-27 0 -42 -14.5t-17 -39.5h-76q1 28 12 50.5t29 38t42.5 24t51.5 8.5
q29 0 53.5 -9t42.5 -25t28 -38.5t10 -49.5q0 -35 -13 -55t-40 -33q29 -13 44 -36.5t15 -61.5q0 -32 -11 -56t-30.5 -39.5t-45 -23.5t-53.5 -8zM155 626l-87 -76v87l87 75h77v-427h-77v341z" />
    <glyph glyph-name="twothirds" unicode="&#x2154;" horiz-adv-x="873" 
d="M562 712h82l-335 -712h-82zM700 -4q-27 0 -52 7t-44.5 22.5t-31.5 39t-13 56.5h76q2 -31 20.5 -44.5t44.5 -13.5t45 16.5t19 44.5q0 61 -66 61h-11v67h11q29 0 44.5 15t15.5 40q0 29 -17 43t-41 14q-27 0 -42 -14.5t-17 -39.5h-76q1 28 12 50.5t29 38t42.5 24t51.5 8.5
q29 0 53.5 -9t42.5 -25t28 -38.5t10 -49.5q0 -35 -13 -55t-40 -33q29 -13 44 -36.5t15 -61.5q0 -32 -11 -56t-30.5 -39.5t-45 -23.5t-53.5 -8zM38 354l167 186q14 15 18.5 27t4.5 29q0 23 -15.5 37t-42.5 14q-23 0 -40 -12t-17 -43h-75q0 58 37 91t95 33q60 0 96 -32t36 -88
q0 -15 -2.5 -27.5t-8.5 -23.5t-15 -22.5t-22 -26.5l-130 -143h179v-68h-265v69z" />
    <glyph glyph-name="uni2155" unicode="&#x2155;" horiz-adv-x="869" 
d="M564 712h82l-335 -712h-82zM704 -4q-34 0 -57.5 10t-38.5 24q-20 19 -26 38t-8 45h76q2 -25 15.5 -39t38.5 -14t40 15q11 12 13.5 29.5t2.5 38.5q0 35 -11 56.5t-43 21.5q-23 0 -37 -10t-19 -25h-70v241h247v-64h-179v-103q24 26 70 26q26 0 46 -8t34 -21
q26 -26 32.5 -54.5t6.5 -59.5q0 -36 -7.5 -62.5t-30.5 -49.5q-15 -15 -38 -25t-57 -10zM155 626l-87 -76v87l87 75h77v-427h-77v341z" />
    <glyph glyph-name="uni2156" unicode="&#x2156;" horiz-adv-x="867" 
d="M562 712h82l-335 -712h-82zM702 -4q-34 0 -57.5 10t-38.5 24q-20 19 -26 38t-8 45h76q2 -25 15.5 -39t38.5 -14t40 15q11 12 13.5 29.5t2.5 38.5q0 35 -11 56.5t-43 21.5q-23 0 -37 -10t-19 -25h-70v241h247v-64h-179v-103q24 26 70 26q26 0 46 -8t34 -21
q26 -26 32.5 -54.5t6.5 -59.5q0 -36 -7.5 -62.5t-30.5 -49.5q-15 -15 -38 -25t-57 -10zM38 354l167 186q14 15 18.5 27t4.5 29q0 23 -15.5 37t-42.5 14q-23 0 -40 -12t-17 -43h-75q0 58 37 91t95 33q60 0 96 -32t36 -88q0 -15 -2.5 -27.5t-8.5 -23.5t-15 -22.5t-22 -26.5
l-130 -143h179v-68h-265v69z" />
    <glyph glyph-name="uni2157" unicode="&#x2157;" horiz-adv-x="869" 
d="M564 712h82l-335 -712h-82zM704 -4q-34 0 -57.5 10t-38.5 24q-20 19 -26 38t-8 45h76q2 -25 15.5 -39t38.5 -14t40 15q11 12 13.5 29.5t2.5 38.5q0 35 -11 56.5t-43 21.5q-23 0 -37 -10t-19 -25h-70v241h247v-64h-179v-103q24 26 70 26q26 0 46 -8t34 -21
q26 -26 32.5 -54.5t6.5 -59.5q0 -36 -7.5 -62.5t-30.5 -49.5q-15 -15 -38 -25t-57 -10zM166 281q-27 0 -52 7t-44.5 22.5t-31.5 39t-13 56.5h76q2 -31 20.5 -44.5t44.5 -13.5t45 16.5t19 44.5q0 61 -66 61h-11v67h11q29 0 44.5 15t15.5 40q0 29 -17 43t-41 14
q-27 0 -42 -14.5t-17 -39.5h-76q1 28 12 50.5t29 38t42.5 24t51.5 8.5q29 0 53.5 -9t42.5 -25t28 -38.5t10 -49.5q0 -35 -13 -55t-40 -33q29 -13 44 -36.5t15 -61.5q0 -32 -11 -56t-30.5 -39.5t-45 -23.5t-53.5 -8z" />
    <glyph glyph-name="uni2158" unicode="&#x2158;" horiz-adv-x="867" 
d="M562 712h82l-335 -712h-82zM702 -4q-34 0 -57.5 10t-38.5 24q-20 19 -26 38t-8 45h76q2 -25 15.5 -39t38.5 -14t40 15q11 12 13.5 29.5t2.5 38.5q0 35 -11 56.5t-43 21.5q-23 0 -37 -10t-19 -25h-70v241h247v-64h-179v-103q24 26 70 26q26 0 46 -8t34 -21
q26 -26 32.5 -54.5t6.5 -59.5q0 -36 -7.5 -62.5t-30.5 -49.5q-15 -15 -38 -25t-57 -10zM197 348h-171v66l147 298h75l-146 -298h95v89h70v-89h41v-66h-41v-63h-70v63z" />
    <glyph glyph-name="uni2159" unicode="&#x2159;" horiz-adv-x="876" 
d="M564 712h82l-335 -712h-82zM707 -4q-29 0 -54 9t-43.5 25.5t-29 41t-10.5 56.5q0 23 7.5 46.5t26.5 61.5l98 191h83l-94 -180q16 8 36 8q23 0 44 -8.5t36.5 -24.5t25 -39.5t9.5 -52.5q0 -63 -38 -98.5t-97 -35.5zM706 65q26 0 42.5 16.5t16.5 47.5q0 29 -16 46.5
t-43 17.5q-26 0 -42.5 -16.5t-16.5 -47.5t16.5 -47.5t42.5 -16.5zM155 626l-87 -76v87l87 75h77v-427h-77v341z" />
    <glyph glyph-name="uni215A" unicode="&#x215a;" horiz-adv-x="870" 
d="M558 712h82l-335 -712h-82zM701 -4q-29 0 -54 9t-43.5 25.5t-29 41t-10.5 56.5q0 23 7.5 46.5t26.5 61.5l98 191h83l-94 -180q16 8 36 8q23 0 44 -8.5t36.5 -24.5t25 -39.5t9.5 -52.5q0 -63 -38 -98.5t-97 -35.5zM700 65q26 0 42.5 16.5t16.5 47.5q0 29 -16 46.5
t-43 17.5q-26 0 -42.5 -16.5t-16.5 -47.5t16.5 -47.5t42.5 -16.5zM168 281q-34 0 -57.5 10t-38.5 24q-20 19 -26 38t-8 45h76q2 -25 15.5 -39t38.5 -14t40 15q11 12 13.5 29.5t2.5 38.5q0 35 -11 56.5t-43 21.5q-23 0 -37 -10t-19 -25h-70v241h247v-64h-179v-103
q24 26 70 26q26 0 46 -8t34 -21q26 -26 32.5 -54.5t6.5 -59.5q0 -36 -7.5 -62.5t-30.5 -49.5q-15 -15 -38 -25t-57 -10z" />
    <glyph glyph-name="oneeighth" unicode="&#x215b;" horiz-adv-x="871" 
d="M564 712h82l-335 -712h-82zM704 -4q-29 0 -54.5 8.5t-44.5 24.5t-30 40t-11 55q0 37 17 60t40 37q-20 12 -35.5 33.5t-15.5 54.5q0 28 10.5 50.5t29 38.5t43 24.5t51.5 8.5t51 -8.5t42.5 -24.5t29 -38.5t10.5 -50.5q0 -33 -15.5 -54.5t-35.5 -33.5q23 -14 40 -37t17 -60
q0 -31 -11 -55t-29.5 -40t-44 -24.5t-54.5 -8.5zM704 63q29 0 46 17.5t17 43.5q0 27 -18 44.5t-45 17.5t-45 -17.5t-18 -44.5q0 -26 17.5 -43.5t45.5 -17.5zM704 253q25 0 41 15.5t16 39.5q0 25 -15.5 41t-41.5 16t-41.5 -16t-15.5 -41q0 -24 15.5 -39.5t41.5 -15.5z
M155 626l-87 -76v87l87 75h77v-427h-77v341z" />
    <glyph glyph-name="threeeighths" unicode="&#x215c;" horiz-adv-x="871" 
d="M564 712h82l-335 -712h-82zM704 -4q-29 0 -54.5 8.5t-44.5 24.5t-30 40t-11 55q0 37 17 60t40 37q-20 12 -35.5 33.5t-15.5 54.5q0 28 10.5 50.5t29 38.5t43 24.5t51.5 8.5t51 -8.5t42.5 -24.5t29 -38.5t10.5 -50.5q0 -33 -15.5 -54.5t-35.5 -33.5q23 -14 40 -37t17 -60
q0 -31 -11 -55t-29.5 -40t-44 -24.5t-54.5 -8.5zM704 63q29 0 46 17.5t17 43.5q0 27 -18 44.5t-45 17.5t-45 -17.5t-18 -44.5q0 -26 17.5 -43.5t45.5 -17.5zM704 253q25 0 41 15.5t16 39.5q0 25 -15.5 41t-41.5 16t-41.5 -16t-15.5 -41q0 -24 15.5 -39.5t41.5 -15.5z
M166 281q-27 0 -52 7t-44.5 22.5t-31.5 39t-13 56.5h76q2 -31 20.5 -44.5t44.5 -13.5t45 16.5t19 44.5q0 61 -66 61h-11v67h11q29 0 44.5 15t15.5 40q0 29 -17 43t-41 14q-27 0 -42 -14.5t-17 -39.5h-76q1 28 12 50.5t29 38t42.5 24t51.5 8.5q29 0 53.5 -9t42.5 -25
t28 -38.5t10 -49.5q0 -35 -13 -55t-40 -33q29 -13 44 -36.5t15 -61.5q0 -32 -11 -56t-30.5 -39.5t-45 -23.5t-53.5 -8z" />
    <glyph glyph-name="fiveeighths" unicode="&#x215d;" horiz-adv-x="865" 
d="M558 712h82l-335 -712h-82zM698 -4q-29 0 -54.5 8.5t-44.5 24.5t-30 40t-11 55q0 37 17 60t40 37q-20 12 -35.5 33.5t-15.5 54.5q0 28 10.5 50.5t29 38.5t43 24.5t51.5 8.5t51 -8.5t42.5 -24.5t29 -38.5t10.5 -50.5q0 -33 -15.5 -54.5t-35.5 -33.5q23 -14 40 -37t17 -60
q0 -31 -11 -55t-29.5 -40t-44 -24.5t-54.5 -8.5zM698 63q29 0 46 17.5t17 43.5q0 27 -18 44.5t-45 17.5t-45 -17.5t-18 -44.5q0 -26 17.5 -43.5t45.5 -17.5zM698 253q25 0 41 15.5t16 39.5q0 25 -15.5 41t-41.5 16t-41.5 -16t-15.5 -41q0 -24 15.5 -39.5t41.5 -15.5z
M168 281q-34 0 -57.5 10t-38.5 24q-20 19 -26 38t-8 45h76q2 -25 15.5 -39t38.5 -14t40 15q11 12 13.5 29.5t2.5 38.5q0 35 -11 56.5t-43 21.5q-23 0 -37 -10t-19 -25h-70v241h247v-64h-179v-103q24 26 70 26q26 0 46 -8t34 -21q26 -26 32.5 -54.5t6.5 -59.5
q0 -36 -7.5 -62.5t-30.5 -49.5q-15 -15 -38 -25t-57 -10z" />
    <glyph glyph-name="seveneighths" unicode="&#x215e;" horiz-adv-x="868" 
d="M561 712h82l-335 -712h-82zM701 -4q-29 0 -54.5 8.5t-44.5 24.5t-30 40t-11 55q0 37 17 60t40 37q-20 12 -35.5 33.5t-15.5 54.5q0 28 10.5 50.5t29 38.5t43 24.5t51.5 8.5t51 -8.5t42.5 -24.5t29 -38.5t10.5 -50.5q0 -33 -15.5 -54.5t-35.5 -33.5q23 -14 40 -37t17 -60
q0 -31 -11 -55t-29.5 -40t-44 -24.5t-54.5 -8.5zM701 63q29 0 46 17.5t17 43.5q0 27 -18 44.5t-45 17.5t-45 -17.5t-18 -44.5q0 -26 17.5 -43.5t45.5 -17.5zM701 253q25 0 41 15.5t16 39.5q0 25 -15.5 41t-41.5 16t-41.5 -16t-15.5 -41q0 -24 15.5 -39.5t41.5 -15.5z
M228 644h-121v-71h-69v139h265v-68l-143 -359h-73z" />
    <glyph glyph-name="uni215F" unicode="&#x215f;" horiz-adv-x="536" 
d="M564 712h82l-335 -712h-82zM155 626l-87 -76v87l87 75h77v-427h-77v341z" />
    <glyph glyph-name="uni2189" unicode="&#x2189;" horiz-adv-x="875" 
d="M564 712h82l-335 -712h-82zM702 -4q-27 0 -52 7t-44.5 22.5t-31.5 39t-13 56.5h76q2 -31 20.5 -44.5t44.5 -13.5t45 16.5t19 44.5q0 61 -66 61h-11v67h11q29 0 44.5 15t15.5 40q0 29 -17 43t-41 14q-27 0 -42 -14.5t-17 -39.5h-76q1 28 12 50.5t29 38t42.5 24t51.5 8.5
q29 0 53.5 -9t42.5 -25t28 -38.5t10 -49.5q0 -35 -13 -55t-40 -33q29 -13 44 -36.5t15 -61.5q0 -32 -11 -56t-30.5 -39.5t-45 -23.5t-53.5 -8zM169 281q-27 0 -51 8.5t-42 24.5t-28.5 39.5t-10.5 53.5v182q0 30 10.5 54t28.5 40t42 24.5t51 8.5t51 -8.5t42.5 -24.5t29 -40
t10.5 -54v-182q0 -30 -10.5 -53.5t-29 -39.5t-42.5 -24.5t-51 -8.5zM169 349q26 0 41 16t15 43v180q0 27 -15 43t-41 16t-41 -16t-15 -43v-180q0 -27 15 -43t41 -16z" />
    <glyph glyph-name="arrowleft" unicode="&#x2190;" horiz-adv-x="1027" 
d="M229 326h745v-97h-745l345 -343h-130l-392 391l392 392h130z" />
    <glyph glyph-name="arrowup" unicode="&#x2191;" horiz-adv-x="1027" 
d="M905 347v-130l-343 345v-745h-97v745l-343 -345v130l391 392z" />
    <glyph glyph-name="arrowright" unicode="&#x2192;" horiz-adv-x="1027" 
d="M974 277l-392 -391h-130l345 343h-745v97h745l-345 343h130z" />
    <glyph glyph-name="arrowdown" unicode="&#x2193;" horiz-adv-x="1027" 
d="M562 -6l343 345v-130l-392 -392l-391 392v130l343 -345v745h97v-745z" />
    <glyph glyph-name="uni2196" unicode="&#x2196;" horiz-adv-x="1027" 
d="M817 511l-487 1l526 -526l-68 -68l-527 526l1 -487l-92 92v554h555z" />
    <glyph glyph-name="uni2197" unicode="&#x2197;" horiz-adv-x="1027" 
d="M856 49l-92 -92l1 487l-527 -526l-68 68l526 526l-487 -1l92 92h555v-554z" />
    <glyph glyph-name="uni2198" unicode="&#x2198;" horiz-adv-x="1027" 
d="M766 94l-2 487l92 -93v-553h-554l-92 91l487 -1l-527 527l69 69z" />
    <glyph glyph-name="uni2199" unicode="&#x2199;" horiz-adv-x="1027" 
d="M856 552l-527 -527l487 1l-92 -91h-554v553l92 93l-2 -487l527 527z" />
    <glyph glyph-name="partialdiff" unicode="&#x2202;" horiz-adv-x="549" 
d="M265 -6q-50 0 -86.5 16.5t-60.5 42.5q-35 37 -46 85t-11 111q0 66 11 114t46 84q22 23 56.5 40t84.5 17q29 0 56.5 -8t50.5 -34v47q0 21 -6 43t-20.5 39.5t-37 28.5t-55.5 11q-38 0 -62 -10.5t-48 -33.5l-64 64q40 37 80 52t98 15q54 0 94.5 -17t68 -47t41 -71.5
t13.5 -91.5v-242q0 -63 -11 -111t-46 -85q-24 -26 -60 -42.5t-86 -16.5zM265 85q21 0 38 7.5t31 21.5q22 23 27 59t5 76t-5 76t-27 59q-14 14 -31 21.5t-38 7.5q-41 0 -70 -29q-22 -23 -27 -59t-5 -76t5 -76t27 -59q29 -29 70 -29z" />
    <glyph glyph-name="Delta" unicode="&#x2206;" horiz-adv-x="624" 
d="M5 0l261 712h87l260 -712h-608zM311 551l-162 -459h323z" />
    <glyph glyph-name="product" unicode="&#x220f;" horiz-adv-x="691" 
d="M598 -205h-108v868h-289v-868h-108v965h505v-965z" />
    <glyph glyph-name="summation" unicode="&#x2211;" horiz-adv-x="556" 
d="M505 663h-329l161 -325v-100l-164 -346h335v-97h-460v88l195 406l-193 383v88h455v-97z" />
    <glyph glyph-name="minus" unicode="&#x2212;" horiz-adv-x="533" 
d="M482 230h-431v95h431v-95z" />
    <glyph glyph-name="uni2219" unicode="&#x2219;" horiz-adv-x="533" 
d="M266 441q34 0 63.5 -13t51.5 -35t35 -51.5t13 -63.5t-13 -63.5t-35 -51.5t-51.5 -35t-63.5 -13t-63.5 13t-51.5 35t-35 51.5t-13 63.5t13 63.5t35 51.5t51.5 35t63.5 13z" />
    <glyph glyph-name="radical" unicode="&#x221a;" horiz-adv-x="545" 
d="M515 617h-103l-189 -617h-83l-132 400h102l72 -250l157 562h176v-95z" />
    <glyph glyph-name="uni221B" unicode="&#x221b;" horiz-adv-x="545" 
d="M515 617h-103l-189 -617h-83l-132 400h102l72 -250l157 562h176v-95zM106 428q-39 0 -66.5 20.5t-29.5 67.5h57q2 -17 12.5 -27t26.5 -10q17 0 28.5 10.5t11.5 30.5t-12 28.5t-29 8.5h-9v39h9q17 0 27 8.5t10 24.5q0 17 -10.5 26t-25.5 9q-14 0 -23.5 -8.5t-11.5 -25.5
h-57q2 42 27 64t65 22q44 0 68.5 -23.5t24.5 -55.5q0 -25 -10.5 -39t-26.5 -20q17 -8 29 -24t12 -42q0 -38 -26.5 -61t-70.5 -23z" />
    <glyph glyph-name="uni221C" unicode="&#x221c;" horiz-adv-x="545" 
d="M515 617h-103l-189 -617h-83l-132 400h102l72 -250l157 562h176v-95zM128 475h-114v47l94 190h55l-93 -189h58v59h49v-59h25v-48h-25v-45h-49v45z" />
    <glyph glyph-name="infinity" unicode="&#x221e;" horiz-adv-x="830" 
d="M594 453q42 0 74.5 -13.5t55 -37t34 -55.5t11.5 -69t-11.5 -68.5t-34 -55t-55 -37t-74.5 -13.5q-53 0 -95 25t-84 74q-42 -49 -84.5 -74.5t-94.5 -25.5q-42 0 -74.5 13.5t-55 37t-34 55.5t-11.5 69t11.5 69t34 55.5t55 37t74.5 13.5q51 0 94 -25.5t85 -74.5
q42 49 83.5 74.5t95.5 25.5zM237 355q-33 0 -55.5 -21.5t-22.5 -57.5t22.5 -57.5t55.5 -21.5q32 0 56.5 22.5t53.5 56.5q-29 34 -53.5 56.5t-56.5 22.5zM592 354q-32 0 -56 -22t-53 -56q29 -34 53 -56.5t56 -22.5q33 0 56 21.5t23 57.5t-23 57t-56 21z" />
    <glyph glyph-name="integral" unicode="&#x222b;" horiz-adv-x="433" 
d="M385 631h-44q-72 0 -72 -74v-600q0 -76 -44.5 -119t-119.5 -43h-57v87h44q71 0 71 74v600q0 76 45 119t120 43h57v-87z" />
    <glyph glyph-name="approxequal" unicode="&#x2248;" horiz-adv-x="574" 
d="M190 455q29 0 54.5 -9t56.5 -24q21 -11 40 -17.5t40 -6.5q10 0 19.5 1.5t19 6t21 13.5t25.5 23l65 -64q-22 -22 -40.5 -37t-36 -24t-34.5 -13t-37 -4q-29 0 -55 9t-57 24q-21 11 -39.5 17.5t-39.5 6.5t-39 -8t-46 -36l-64 64q22 22 40.5 37t35.5 24t34 13t37 4zM190 253
q29 0 54.5 -9t56.5 -24q21 -11 40 -17.5t40 -6.5q10 0 19.5 1.5t19 6t21 13.5t25.5 23l65 -64q-22 -22 -40.5 -37t-36 -24t-34.5 -13t-37 -4q-29 0 -55 9t-57 24q-21 11 -39.5 17.5t-39.5 6.5t-39 -8t-46 -36l-64 64q22 22 40.5 37t35.5 24t34 13t37 4z" />
    <glyph glyph-name="notequal" unicode="&#x2260;" horiz-adv-x="574" 
d="M521 491l-61 -69h61v-95h-138l-88 -99h226v-95h-303l-103 -120l-63 51l61 69h-61v95h138l88 99h-226v95h302l104 120z" />
    <glyph glyph-name="lessequal" unicode="&#x2264;" horiz-adv-x="533" 
d="M451 493l-245 -115l245 -115v-108l-369 178v90l369 178v-108zM451 79v-108l-369 177v108z" />
    <glyph glyph-name="greaterequal" unicode="&#x2265;" horiz-adv-x="533" 
d="M451 423v-90l-369 -178v108l245 115l-245 115v108zM451 148l-369 -177v108l369 177v-108z" />
    <glyph glyph-name="dotmath" unicode="&#x22c5;" horiz-adv-x="533" 
d="M327 217h-122v122h122v-122z" />
    <glyph glyph-name="uni2460" unicode="&#x2460;" 
d="M406 470l-79 -68v78l79 68h68v-384h-68v306zM443 718q75 0 141 -28.5t115 -77.5t77.5 -115t28.5 -141t-28.5 -141t-77.5 -115t-115 -77.5t-141 -28.5t-141 28.5t-115 77.5t-77.5 115t-28.5 141t28.5 141t77.5 115t115 77.5t141 28.5zM443 665q-63 0 -118.5 -24
t-96.5 -65.5t-64.5 -98t-23.5 -121.5t23.5 -121.5t64.5 -98t96.5 -65.5t118.5 -24q64 0 119 24t96 65.5t64.5 98t23.5 121.5t-23.5 121.5t-64.5 98t-96 65.5t-119 24z" />
    <glyph glyph-name="uni2461" unicode="&#x2461;" 
d="M325 225l146 165q13 14 17.5 25t4.5 28q0 20 -13 33.5t-37 13.5q-21 0 -35 -12t-15 -39h-67q1 24 7.5 43.5t20.5 33.5q33 35 89 35q57 0 87 -32q30 -30 30 -76q0 -28 -11 -46.5t-34 -45.5l-110 -128h157v-59h-237v61zM443 718q75 0 141 -28.5t115 -77.5t77.5 -115
t28.5 -141t-28.5 -141t-77.5 -115t-115 -77.5t-141 -28.5t-141 28.5t-115 77.5t-77.5 115t-28.5 141t28.5 141t77.5 115t115 77.5t141 28.5zM443 665q-63 0 -118.5 -24t-96.5 -65.5t-64.5 -98t-23.5 -121.5t23.5 -121.5t64.5 -98t96.5 -65.5t118.5 -24q64 0 119 24t96 65.5
t64.5 98t23.5 121.5t-23.5 121.5t-64.5 98t-96 65.5t-119 24z" />
    <glyph glyph-name="uni2462" unicode="&#x2462;" 
d="M442 161q-24 0 -46 6.5t-39 20t-27.5 35.5t-11.5 52h68q2 -27 18.5 -40.5t37.5 -13.5q24 0 39.5 15.5t15.5 41.5q0 28 -15 42.5t-41 14.5h-12v56h12q24 0 37.5 14t13.5 35q0 26 -13.5 39t-36.5 13q-21 0 -34.5 -13.5t-15.5 -36.5h-68q3 53 36 81.5t82 28.5q54 0 86 -30.5
t32 -78.5q0 -32 -12 -49.5t-35 -28.5q24 -11 38 -32.5t14 -56.5q0 -57 -35.5 -86t-87.5 -29zM443 718q75 0 141 -28.5t115 -77.5t77.5 -115t28.5 -141t-28.5 -141t-77.5 -115t-115 -77.5t-141 -28.5t-141 28.5t-115 77.5t-77.5 115t-28.5 141t28.5 141t77.5 115t115 77.5
t141 28.5zM443 665q-63 0 -118.5 -24t-96.5 -65.5t-64.5 -98t-23.5 -121.5t23.5 -121.5t64.5 -98t96.5 -65.5t118.5 -24q64 0 119 24t96 65.5t64.5 98t23.5 121.5t-23.5 121.5t-64.5 98t-96 65.5t-119 24z" />
    <glyph glyph-name="uni2463" unicode="&#x2463;" 
d="M461 222h-156v55l132 271h67l-132 -271h89v85h61v-85h46v-55h-46v-58h-61v58zM443 718q75 0 141 -28.5t115 -77.5t77.5 -115t28.5 -141t-28.5 -141t-77.5 -115t-115 -77.5t-141 -28.5t-141 28.5t-115 77.5t-77.5 115t-28.5 141t28.5 141t77.5 115t115 77.5t141 28.5z
M443 665q-63 0 -118.5 -24t-96.5 -65.5t-64.5 -98t-23.5 -121.5t23.5 -121.5t64.5 -98t96.5 -65.5t118.5 -24q64 0 119 24t96 65.5t64.5 98t23.5 121.5t-23.5 121.5t-64.5 98t-96 65.5t-119 24z" />
    <glyph glyph-name="uni2464" unicode="&#x2464;" 
d="M443 160q-31 0 -52.5 8.5t-35.5 22.5q-17 17 -23 33t-8 41h68q5 -47 51 -47q24 0 36 15q9 10 12 24.5t3 34.5q0 33 -10.5 52t-40.5 19q-20 0 -31.5 -9t-17.5 -25h-63v219h225v-58h-166v-95q24 24 63 24q24 0 43.5 -7t31.5 -19q22 -22 28 -48.5t6 -52.5q0 -34 -7 -57
t-26 -43q-30 -32 -86 -32zM443 718q75 0 141 -28.5t115 -77.5t77.5 -115t28.5 -141t-28.5 -141t-77.5 -115t-115 -77.5t-141 -28.5t-141 28.5t-115 77.5t-77.5 115t-28.5 141t28.5 141t77.5 115t115 77.5t141 28.5zM443 665q-63 0 -118.5 -24t-96.5 -65.5t-64.5 -98
t-23.5 -121.5t23.5 -121.5t64.5 -98t96.5 -65.5t118.5 -24q64 0 119 24t96 65.5t64.5 98t23.5 121.5t-23.5 121.5t-64.5 98t-96 65.5t-119 24z" />
    <glyph glyph-name="uni2465" unicode="&#x2465;" 
d="M443 161q-51 0 -85 31t-34 89q0 20 5.5 42t22.5 55l84 170h76l-82 -161q13 8 32 8q21 0 39.5 -7.5t32.5 -22.5t22 -36t8 -48q0 -57 -34 -88.5t-87 -31.5zM443 224q23 0 38 14.5t15 42.5q0 29 -15 44.5t-38 15.5q-22 0 -36.5 -15.5t-14.5 -44.5t14 -43t37 -14zM443 718
q75 0 141 -28.5t115 -77.5t77.5 -115t28.5 -141t-28.5 -141t-77.5 -115t-115 -77.5t-141 -28.5t-141 28.5t-115 77.5t-77.5 115t-28.5 141t28.5 141t77.5 115t115 77.5t141 28.5zM443 665q-63 0 -118.5 -24t-96.5 -65.5t-64.5 -98t-23.5 -121.5t23.5 -121.5t64.5 -98
t96.5 -65.5t118.5 -24q64 0 119 24t96 65.5t64.5 98t23.5 121.5t-23.5 121.5t-64.5 98t-96 65.5t-119 24z" />
    <glyph glyph-name="uni2466" unicode="&#x2466;" 
d="M502 490h-109v-66h-61v124h236v-58l-126 -326h-66zM443 718q75 0 141 -28.5t115 -77.5t77.5 -115t28.5 -141t-28.5 -141t-77.5 -115t-115 -77.5t-141 -28.5t-141 28.5t-115 77.5t-77.5 115t-28.5 141t28.5 141t77.5 115t115 77.5t141 28.5zM443 665q-63 0 -118.5 -24
t-96.5 -65.5t-64.5 -98t-23.5 -121.5t23.5 -121.5t64.5 -98t96.5 -65.5t118.5 -24q64 0 119 24t96 65.5t64.5 98t23.5 121.5t-23.5 121.5t-64.5 98t-96 65.5t-119 24z" />
    <glyph glyph-name="uni2467" unicode="&#x2467;" 
d="M441 161q-52 0 -88 29.5t-36 85.5q0 32 14.5 53.5t35.5 33.5q-19 12 -31.5 31.5t-12.5 48.5q0 25 9.5 45.5t25.5 34.5t37.5 21.5t45.5 7.5t46 -7.5t38 -21.5t25.5 -34.5t9.5 -45.5q0 -29 -12.5 -48.5t-31.5 -31.5q21 -12 35.5 -33.5t14.5 -53.5q0 -56 -36 -85.5
t-89 -29.5zM441 220q26 0 41 16.5t15 40.5q0 25 -16 40.5t-40 15.5t-40 -15.5t-16 -40.5q0 -24 15.5 -40.5t40.5 -16.5zM441 390q23 0 37 14t14 37t-14 37.5t-37 14.5t-36.5 -14.5t-13.5 -37.5t14 -37t36 -14zM443 718q75 0 141 -28.5t115 -77.5t77.5 -115t28.5 -141
t-28.5 -141t-77.5 -115t-115 -77.5t-141 -28.5t-141 28.5t-115 77.5t-77.5 115t-28.5 141t28.5 141t77.5 115t115 77.5t141 28.5zM443 665q-63 0 -118.5 -24t-96.5 -65.5t-64.5 -98t-23.5 -121.5t23.5 -121.5t64.5 -98t96.5 -65.5t118.5 -24q64 0 119 24t96 65.5t64.5 98
t23.5 121.5t-23.5 121.5t-64.5 98t-96 65.5t-119 24z" />
    <glyph glyph-name="uni2468" unicode="&#x2468;" 
d="M456 325q-13 -8 -32 -8q-21 0 -39.5 7.5t-32.5 22.5t-22 36t-8 48q0 57 34 88.5t87 31.5q51 0 85 -31t34 -89q0 -20 -5.5 -42t-22.5 -55l-84 -170h-76zM443 371q22 0 36.5 15.5t14.5 44.5t-14 43t-37 14t-38 -14.5t-15 -42.5q0 -29 15 -44.5t38 -15.5zM443 718
q75 0 141 -28.5t115 -77.5t77.5 -115t28.5 -141t-28.5 -141t-77.5 -115t-115 -77.5t-141 -28.5t-141 28.5t-115 77.5t-77.5 115t-28.5 141t28.5 141t77.5 115t115 77.5t141 28.5zM443 665q-63 0 -118.5 -24t-96.5 -65.5t-64.5 -98t-23.5 -121.5t23.5 -121.5t64.5 -98
t96.5 -65.5t118.5 -24q64 0 119 24t96 65.5t64.5 98t23.5 121.5t-23.5 121.5t-64.5 98t-96 65.5t-119 24z" />
    <glyph glyph-name="uni2469" unicode="&#x2469;" 
d="M533 160q-45 0 -72 22q-33 30 -33 85v177q0 56 33 85q26 23 72 23t72 -23q33 -29 33 -85v-177q0 -55 -33 -85q-27 -22 -72 -22zM533 208q51 0 51 61v174q0 61 -51 61q-52 0 -52 -61v-174q0 -61 52 -61zM308 487l-68 -56v61l68 56h53v-384h-53v323zM443 718
q75 0 141 -28.5t115 -77.5t77.5 -115t28.5 -141t-28.5 -141t-77.5 -115t-115 -77.5t-141 -28.5t-141 28.5t-115 77.5t-77.5 115t-28.5 141t28.5 141t77.5 115t115 77.5t141 28.5zM443 665q-63 0 -118.5 -24t-96.5 -65.5t-64.5 -98t-23.5 -121.5t23.5 -121.5t64.5 -98
t96.5 -65.5t118.5 -24q64 0 119 24t96 65.5t64.5 98t23.5 121.5t-23.5 121.5t-64.5 98t-96 65.5t-119 24z" />
    <glyph glyph-name="uni246A" unicode="&#x246a;" 
d="M308 487l-68 -56v61l68 56h53v-384h-53v323zM541 487l-68 -56v61l68 56h53v-384h-53v323zM443 718q75 0 141 -28.5t115 -77.5t77.5 -115t28.5 -141t-28.5 -141t-77.5 -115t-115 -77.5t-141 -28.5t-141 28.5t-115 77.5t-77.5 115t-28.5 141t28.5 141t77.5 115t115 77.5
t141 28.5zM443 665q-63 0 -118.5 -24t-96.5 -65.5t-64.5 -98t-23.5 -121.5t23.5 -121.5t64.5 -98t96.5 -65.5t118.5 -24q64 0 119 24t96 65.5t64.5 98t23.5 121.5t-23.5 121.5t-64.5 98t-96 65.5t-119 24z" />
    <glyph glyph-name="uni246B" unicode="&#x246b;" 
d="M308 487l-68 -56v61l68 56h53v-384h-53v323zM434 210l126 181q12 18 17.5 32t5.5 31q0 23 -13 36.5t-36 13.5q-22 0 -36.5 -12.5t-14.5 -38.5v-14h-53v14q0 46 30 73q26 26 74 26q46 0 72 -24q14 -12 22 -31.5t8 -42.5t-7.5 -40.5t-24.5 -41.5l-112 -160h144v-48h-202v46
zM443 718q75 0 141 -28.5t115 -77.5t77.5 -115t28.5 -141t-28.5 -141t-77.5 -115t-115 -77.5t-141 -28.5t-141 28.5t-115 77.5t-77.5 115t-28.5 141t28.5 141t77.5 115t115 77.5t141 28.5zM443 665q-63 0 -118.5 -24t-96.5 -65.5t-64.5 -98t-23.5 -121.5t23.5 -121.5
t64.5 -98t96.5 -65.5t118.5 -24q64 0 119 24t96 65.5t64.5 98t23.5 121.5t-23.5 121.5t-64.5 98t-96 65.5t-119 24z" />
    <glyph glyph-name="uni246C" unicode="&#x246c;" 
d="M308 487l-68 -56v61l68 56h53v-384h-53v323zM533 161q-42 0 -70 20q-22 17 -30 38.5t-9 48.5h53q2 -29 14.5 -44t41.5 -15q25 0 39 14q15 14 15 51q0 23 -3.5 35.5t-10.5 20.5q-14 15 -39 15h-17v44h17q28 0 39 18q5 6 7.5 14.5t2.5 22.5q0 18 -4.5 30t-12.5 20
q-13 11 -33 11q-28 0 -37.5 -15t-12.5 -44h-53q2 29 8.5 48.5t23.5 34.5q13 13 31 18.5t40 5.5q42 0 69 -22q18 -16 25.5 -35t7.5 -47q0 -37 -11 -55q-10 -17 -34 -27q19 -8 31 -23q19 -23 19 -70q0 -35 -10 -57.5t-28 -36.5q-27 -19 -69 -19zM443 718q75 0 141 -28.5
t115 -77.5t77.5 -115t28.5 -141t-28.5 -141t-77.5 -115t-115 -77.5t-141 -28.5t-141 28.5t-115 77.5t-77.5 115t-28.5 141t28.5 141t77.5 115t115 77.5t141 28.5zM443 665q-63 0 -118.5 -24t-96.5 -65.5t-64.5 -98t-23.5 -121.5t23.5 -121.5t64.5 -98t96.5 -65.5t118.5 -24
q64 0 119 24t96 65.5t64.5 98t23.5 121.5t-23.5 121.5t-64.5 98t-96 65.5t-119 24z" />
    <glyph glyph-name="uni246D" unicode="&#x246d;" 
d="M308 487l-68 -56v61l68 56h53v-384h-53v323zM558 222h-132v47l119 279h55l-118 -278h76v83h53v-83h35v-48h-35v-58h-53v58zM443 718q75 0 141 -28.5t115 -77.5t77.5 -115t28.5 -141t-28.5 -141t-77.5 -115t-115 -77.5t-141 -28.5t-141 28.5t-115 77.5t-77.5 115
t-28.5 141t28.5 141t77.5 115t115 77.5t141 28.5zM443 665q-63 0 -118.5 -24t-96.5 -65.5t-64.5 -98t-23.5 -121.5t23.5 -121.5t64.5 -98t96.5 -65.5t118.5 -24q64 0 119 24t96 65.5t64.5 98t23.5 121.5t-23.5 121.5t-64.5 98t-96 65.5t-119 24z" />
    <glyph glyph-name="uni246E" unicode="&#x246e;" 
d="M308 487l-68 -56v61l68 56h53v-384h-53v323zM531 160q-49 0 -74 25q-16 15 -22 34.5t-7 42.5h53q2 -27 13 -40.5t37 -13.5q27 0 40 17q14 20 14 66q0 26 -3.5 43.5t-14.5 27.5q-12 12 -35 12t-34 -10t-15 -27h-48v211h199v-48h-151v-107q9 11 25 20t38 9q43 0 62 -22
q17 -19 23.5 -45t6.5 -64t-7 -63t-25 -43q-26 -25 -75 -25zM443 718q75 0 141 -28.5t115 -77.5t77.5 -115t28.5 -141t-28.5 -141t-77.5 -115t-115 -77.5t-141 -28.5t-141 28.5t-115 77.5t-77.5 115t-28.5 141t28.5 141t77.5 115t115 77.5t141 28.5zM443 665
q-63 0 -118.5 -24t-96.5 -65.5t-64.5 -98t-23.5 -121.5t23.5 -121.5t64.5 -98t96.5 -65.5t118.5 -24q64 0 119 24t96 65.5t64.5 98t23.5 121.5t-23.5 121.5t-64.5 98t-96 65.5t-119 24z" />
    <glyph glyph-name="uni246F" unicode="&#x246f;" 
d="M308 487l-68 -56v61l68 56h53v-384h-53v323zM533 160q-49 0 -74 27q-15 16 -22 35.5t-7 51.5q0 25 4 45t14 41l82 188h56l-74 -168q15 9 35 9q19 0 36.5 -7.5t28.5 -20.5q13 -16 19 -35t6 -54q0 -30 -7.5 -50t-21.5 -34q-26 -28 -75 -28zM533 208q27 0 40 19q11 14 11 47
q0 32 -12 49q-14 19 -39 19t-38 -19q-12 -15 -12 -49q0 -33 9 -46q14 -20 41 -20zM443 718q75 0 141 -28.5t115 -77.5t77.5 -115t28.5 -141t-28.5 -141t-77.5 -115t-115 -77.5t-141 -28.5t-141 28.5t-115 77.5t-77.5 115t-28.5 141t28.5 141t77.5 115t115 77.5t141 28.5z
M443 665q-63 0 -118.5 -24t-96.5 -65.5t-64.5 -98t-23.5 -121.5t23.5 -121.5t64.5 -98t96.5 -65.5t118.5 -24q64 0 119 24t96 65.5t64.5 98t23.5 121.5t-23.5 121.5t-64.5 98t-96 65.5t-119 24z" />
    <glyph glyph-name="uni2470" unicode="&#x2470;" 
d="M308 487l-68 -56v61l68 56h53v-384h-53v323zM575 501h-104v-57h-48v104h205v-45l-116 -339h-53zM443 718q75 0 141 -28.5t115 -77.5t77.5 -115t28.5 -141t-28.5 -141t-77.5 -115t-115 -77.5t-141 -28.5t-141 28.5t-115 77.5t-77.5 115t-28.5 141t28.5 141t77.5 115
t115 77.5t141 28.5zM443 665q-63 0 -118.5 -24t-96.5 -65.5t-64.5 -98t-23.5 -121.5t23.5 -121.5t64.5 -98t96.5 -65.5t118.5 -24q64 0 119 24t96 65.5t64.5 98t23.5 121.5t-23.5 121.5t-64.5 98t-96 65.5t-119 24z" />
    <glyph glyph-name="uni2471" unicode="&#x2471;" 
d="M308 487l-68 -56v61l68 56h53v-384h-53v323zM443 718q75 0 141 -28.5t115 -77.5t77.5 -115t28.5 -141t-28.5 -141t-77.5 -115t-115 -77.5t-141 -28.5t-141 28.5t-115 77.5t-77.5 115t-28.5 141t28.5 141t77.5 115t115 77.5t141 28.5zM443 665q-63 0 -118.5 -24
t-96.5 -65.5t-64.5 -98t-23.5 -121.5t23.5 -121.5t64.5 -98t96.5 -65.5t118.5 -24q64 0 119 24t96 65.5t64.5 98t23.5 121.5t-23.5 121.5t-64.5 98t-96 65.5t-119 24zM533 161q-50 0 -78 28q-16 17 -23.5 37.5t-7.5 49.5q0 20 5 35.5t14 28.5q6 8 12.5 14.5t16.5 11.5
q-22 13 -32 32q-10 20 -10 49q0 51 28 79q27 27 75 27t75 -27q28 -28 28 -79q0 -29 -10 -49q-10 -19 -32 -32q10 -5 16.5 -11.5t12.5 -14.5q9 -13 14 -28.5t5 -35.5q0 -29 -7.5 -49.5t-23.5 -37.5q-28 -28 -78 -28zM533 344q-26 0 -39 -16q-17 -20 -17 -52q0 -29 13 -48
q15 -19 43 -19t43 19q13 19 13 48q0 32 -17 52q-13 16 -39 16zM533 505q-23 0 -37 -16q-13 -14 -13 -42q0 -22 8 -34q14 -23 42 -23t42 23q8 12 8 34q0 28 -13 42q-14 16 -37 16z" />
    <glyph glyph-name="uni2472" unicode="&#x2472;" 
d="M308 487l-68 -56v61l68 56h53v-384h-53v323zM443 718q75 0 141 -28.5t115 -77.5t77.5 -115t28.5 -141t-28.5 -141t-77.5 -115t-115 -77.5t-141 -28.5t-141 28.5t-115 77.5t-77.5 115t-28.5 141t28.5 141t77.5 115t115 77.5t141 28.5zM443 665q-63 0 -118.5 -24
t-96.5 -65.5t-64.5 -98t-23.5 -121.5t23.5 -121.5t64.5 -98t96.5 -65.5t118.5 -24q64 0 119 24t96 65.5t64.5 98t23.5 121.5t-23.5 121.5t-64.5 98t-96 65.5t-119 24zM533 552q48 0 74 -27q15 -16 22 -35.5t7 -51.5q0 -25 -4 -45t-14 -41l-82 -188h-56l74 168q-15 -9 -35 -9
q-19 0 -36.5 7.5t-28.5 20.5q-13 16 -19 35t-6 54q0 30 7.5 50t21.5 34q26 28 75 28zM533 504q-27 0 -40 -19q-11 -14 -11 -47q0 -32 12 -49q14 -19 39 -19t38 19q12 15 12 49q0 32 -9 46q-14 20 -41 20z" />
    <glyph glyph-name="uni2473" unicode="&#x2473;" 
d="M565 160q-45 0 -72 22q-33 30 -33 85v177q0 56 33 85q26 23 72 23t72 -23q33 -29 33 -85v-177q0 -55 -33 -85q-27 -22 -72 -22zM565 208q51 0 51 61v174q0 61 -51 61q-52 0 -52 -61v-174q0 -61 52 -61zM230 210l126 181q12 18 17.5 32t5.5 31q0 23 -13 36.5t-36 13.5
q-22 0 -36.5 -12.5t-14.5 -38.5v-14h-53v14q0 46 30 73q26 26 74 26q46 0 72 -24q14 -12 22 -31.5t8 -42.5t-7.5 -40.5t-24.5 -41.5l-112 -160h144v-48h-202v46zM443 718q75 0 141 -28.5t115 -77.5t77.5 -115t28.5 -141t-28.5 -141t-77.5 -115t-115 -77.5t-141 -28.5
t-141 28.5t-115 77.5t-77.5 115t-28.5 141t28.5 141t77.5 115t115 77.5t141 28.5zM443 665q-63 0 -118.5 -24t-96.5 -65.5t-64.5 -98t-23.5 -121.5t23.5 -121.5t64.5 -98t96.5 -65.5t118.5 -24q64 0 119 24t96 65.5t64.5 98t23.5 121.5t-23.5 121.5t-64.5 98t-96 65.5
t-119 24z" />
    <glyph glyph-name="uni24EA" unicode="&#x24ea;" 
d="M442 161q-51 0 -84.5 30t-33.5 87v158q0 56 33.5 86t84.5 30t84.5 -30t33.5 -86v-158q0 -57 -33.5 -87t-84.5 -30zM442 222q24 0 37 15t13 41v157q0 26 -13.5 41t-36.5 15q-24 0 -37 -15t-13 -41v-157q0 -26 13 -41t37 -15zM443 718q75 0 141 -28.5t115 -77.5t77.5 -115
t28.5 -141t-28.5 -141t-77.5 -115t-115 -77.5t-141 -28.5t-141 28.5t-115 77.5t-77.5 115t-28.5 141t28.5 141t77.5 115t115 77.5t141 28.5zM443 665q-63 0 -118.5 -24t-96.5 -65.5t-64.5 -98t-23.5 -121.5t23.5 -121.5t64.5 -98t96.5 -65.5t118.5 -24q64 0 119 24t96 65.5
t64.5 98t23.5 121.5t-23.5 121.5t-64.5 98t-96 65.5t-119 24z" />
    <glyph glyph-name="uni24EB" unicode="&#x24eb;" 
d="M443 718q75 0 141 -28.5t115 -77.5t77.5 -115t28.5 -141t-28.5 -141t-77.5 -115t-115 -77.5t-141 -28.5t-141 28.5t-115 77.5t-77.5 115t-28.5 141t28.5 141t77.5 115t115 77.5t141 28.5zM308 164h53v384h-53l-68 -56v-61l68 56v-323zM541 164h53v384h-53l-68 -56v-61
l68 56v-323z" />
    <glyph glyph-name="uni24EC" unicode="&#x24ec;" 
d="M308 164h53v384h-53l-68 -56v-61l68 56v-323zM434 164h202v48h-144l112 160q17 24 24.5 41.5t7.5 40.5t-8 42.5t-22 31.5q-26 24 -72 24q-48 0 -74 -26q-30 -27 -30 -73v-14h53v14q0 26 14.5 38.5t36.5 12.5q23 0 36 -13.5t13 -36.5q0 -17 -5.5 -31t-17.5 -32l-126 -181
v-46zM443 718q75 0 141 -28.5t115 -77.5t77.5 -115t28.5 -141t-28.5 -141t-77.5 -115t-115 -77.5t-141 -28.5t-141 28.5t-115 77.5t-77.5 115t-28.5 141t28.5 141t77.5 115t115 77.5t141 28.5z" />
    <glyph glyph-name="uni24ED" unicode="&#x24ed;" 
d="M308 164h53v384h-53l-68 -56v-61l68 56v-323zM533 161q42 0 69 19q18 14 28 36.5t10 57.5q0 47 -19 70q-12 15 -31 23q24 10 34 27q11 18 11 55q0 28 -7.5 47t-25.5 35q-27 22 -69 22q-22 0 -40 -5.5t-31 -18.5q-17 -15 -23.5 -34.5t-8.5 -48.5h53q3 29 12.5 44t37.5 15
q20 0 33 -11q8 -8 12.5 -20t4.5 -30q0 -14 -2.5 -22.5t-7.5 -14.5q-11 -18 -39 -18h-17v-44h17q25 0 39 -15q7 -8 10.5 -20.5t3.5 -35.5q0 -37 -15 -51q-14 -14 -39 -14q-29 0 -41.5 15t-14.5 44h-53q1 -27 9 -48.5t30 -38.5q28 -20 70 -20zM443 718q75 0 141 -28.5
t115 -77.5t77.5 -115t28.5 -141t-28.5 -141t-77.5 -115t-115 -77.5t-141 -28.5t-141 28.5t-115 77.5t-77.5 115t-28.5 141t28.5 141t77.5 115t115 77.5t141 28.5z" />
    <glyph glyph-name="uni24EE" unicode="&#x24ee;" 
d="M308 164h53v384h-53l-68 -56v-61l68 56v-323zM443 718q75 0 141 -28.5t115 -77.5t77.5 -115t28.5 -141t-28.5 -141t-77.5 -115t-115 -77.5t-141 -28.5t-141 28.5t-115 77.5t-77.5 115t-28.5 141t28.5 141t77.5 115t115 77.5t141 28.5zM558 164h53v58h35v48h-35v83h-53
v-83h-76l118 278h-55l-119 -279v-47h132v-58z" />
    <glyph glyph-name="uni24EF" unicode="&#x24ef;" 
d="M308 164h53v384h-53l-68 -56v-61l68 56v-323zM443 718q75 0 141 -28.5t115 -77.5t77.5 -115t28.5 -141t-28.5 -141t-77.5 -115t-115 -77.5t-141 -28.5t-141 28.5t-115 77.5t-77.5 115t-28.5 141t28.5 141t77.5 115t115 77.5t141 28.5zM531 160q49 0 75 25q18 18 25 43
t7 63t-6.5 64t-23.5 45q-19 22 -62 22q-22 0 -38 -9t-25 -20v107h151v48h-199v-211h48q4 17 15 27t34 10t35 -12q11 -10 14.5 -27.5t3.5 -43.5q0 -46 -14 -66q-13 -17 -40 -17q-26 0 -37 13.5t-13 40.5h-53q1 -23 7 -42.5t22 -34.5q25 -25 74 -25z" />
    <glyph glyph-name="uni24F0" unicode="&#x24f0;" 
d="M308 164h53v384h-53l-68 -56v-61l68 56v-323zM533 160q49 0 75 28q14 14 21.5 34t7.5 50q0 35 -6 54t-19 35q-11 13 -28.5 20.5t-36.5 7.5q-20 0 -35 -9l74 168h-56l-82 -188q-10 -21 -14 -41t-4 -45q0 -32 7 -51.5t22 -35.5q25 -27 74 -27zM533 208q-27 0 -41 20
q-9 13 -9 46q0 34 12 49q13 19 38 19t39 -19q12 -17 12 -49q0 -33 -11 -47q-13 -19 -40 -19zM443 718q75 0 141 -28.5t115 -77.5t77.5 -115t28.5 -141t-28.5 -141t-77.5 -115t-115 -77.5t-141 -28.5t-141 28.5t-115 77.5t-77.5 115t-28.5 141t28.5 141t77.5 115t115 77.5
t141 28.5z" />
    <glyph glyph-name="uni24F1" unicode="&#x24f1;" 
d="M308 164h53v384h-53l-68 -56v-61l68 56v-323zM443 718q75 0 141 -28.5t115 -77.5t77.5 -115t28.5 -141t-28.5 -141t-77.5 -115t-115 -77.5t-141 -28.5t-141 28.5t-115 77.5t-77.5 115t-28.5 141t28.5 141t77.5 115t115 77.5t141 28.5zM459 164h53l116 339v45h-205v-104
h48v57h104z" />
    <glyph glyph-name="uni24F2" unicode="&#x24f2;" 
d="M308 164h53v384h-53l-68 -56v-61l68 56v-323zM443 718q75 0 141 -28.5t115 -77.5t77.5 -115t28.5 -141t-28.5 -141t-77.5 -115t-115 -77.5t-141 -28.5t-141 28.5t-115 77.5t-77.5 115t-28.5 141t28.5 141t77.5 115t115 77.5t141 28.5zM533 161q50 0 78 28
q16 17 23.5 37.5t7.5 49.5q0 20 -5 35.5t-14 28.5q-6 8 -12.5 14.5t-16.5 11.5q22 13 32 32q10 20 10 49q0 51 -28 79q-27 27 -75 27t-75 -27q-28 -28 -28 -79q0 -29 10 -49q10 -19 32 -32q-10 -5 -16.5 -11.5t-12.5 -14.5q-9 -13 -14 -28.5t-5 -35.5q0 -29 7.5 -49.5
t23.5 -37.5q28 -28 78 -28zM533 344q26 0 39 -16q17 -20 17 -52q0 -29 -13 -48q-15 -19 -43 -19t-43 19q-13 19 -13 48q0 32 17 52q13 16 39 16zM533 505q23 0 37 -16q13 -14 13 -42q0 -22 -8 -34q-14 -23 -42 -23t-42 23q-8 12 -8 34q0 28 13 42q14 16 37 16z" />
    <glyph glyph-name="uni24F3" unicode="&#x24f3;" 
d="M308 164h53v384h-53l-68 -56v-61l68 56v-323zM443 718q75 0 141 -28.5t115 -77.5t77.5 -115t28.5 -141t-28.5 -141t-77.5 -115t-115 -77.5t-141 -28.5t-141 28.5t-115 77.5t-77.5 115t-28.5 141t28.5 141t77.5 115t115 77.5t141 28.5zM533 552q-49 0 -75 -28
q-14 -14 -21.5 -34t-7.5 -50q0 -35 6 -54t19 -35q11 -13 28.5 -20.5t36.5 -7.5q20 0 35 9l-74 -168h56l82 188q10 21 14 41t4 45q0 32 -7 51.5t-22 35.5q-26 27 -74 27zM533 504q27 0 41 -20q9 -14 9 -46q0 -34 -12 -49q-13 -19 -38 -19t-39 19q-12 17 -12 49q0 33 11 47
q13 19 40 19z" />
    <glyph glyph-name="uni24F4" unicode="&#x24f4;" 
d="M565 160q45 0 72 22q33 30 33 85v177q0 56 -33 85q-26 23 -72 23t-72 -23q-33 -29 -33 -85v-177q0 -55 33 -85q27 -22 72 -22zM565 208q-52 0 -52 61v174q0 61 52 61q51 0 51 -61v-174q0 -61 -51 -61zM230 164h202v48h-144l112 160q17 24 24.5 41.5t7.5 40.5t-8 42.5
t-22 31.5q-26 24 -72 24q-48 0 -74 -26q-30 -27 -30 -73v-14h53v14q0 26 14.5 38.5t36.5 12.5q23 0 36 -13.5t13 -36.5q0 -17 -5.5 -31t-17.5 -32l-126 -181v-46zM443 718q75 0 141 -28.5t115 -77.5t77.5 -115t28.5 -141t-28.5 -141t-77.5 -115t-115 -77.5t-141 -28.5
t-141 28.5t-115 77.5t-77.5 115t-28.5 141t28.5 141t77.5 115t115 77.5t141 28.5z" />
    <glyph glyph-name="uni24FF" unicode="&#x24ff;" 
d="M443 161q51 0 84.5 30t33.5 87v158q0 56 -33.5 86t-84.5 30t-84.5 -30t-33.5 -86v-158q0 -57 33.5 -87t84.5 -30zM443 222q-24 0 -37 15t-13 41v157q0 26 13 41t37 15q23 0 36.5 -15t13.5 -41v-157q0 -26 -13 -41t-37 -15zM443 -6q-75 0 -141 28.5t-115 77.5t-77.5 115
t-28.5 141t28.5 141t77.5 115t115 77.5t141 28.5t141 -28.5t115 -77.5t77.5 -115t28.5 -141t-28.5 -141t-77.5 -115t-115 -77.5t-141 -28.5z" />
    <glyph glyph-name="filledbox" unicode="&#x25a0;" horiz-adv-x="1000" 
d="M856 0h-712v712h712v-712z" />
    <glyph glyph-name="H22073" unicode="&#x25a1;" horiz-adv-x="1000" 
d="M856 0h-712v712h712v-712zM217 644v-576h566v576h-566z" />
    <glyph glyph-name="lozenge" unicode="&#x25ca;" horiz-adv-x="642" 
d="M582 356l-261 -365l-260 365l260 365zM175 356l146 -208l146 208l-146 207z" />
    <glyph glyph-name="circle" unicode="&#x25cb;" 
d="M443 718q75 0 141 -28.5t115 -77.5t77.5 -115t28.5 -141t-28.5 -141t-77.5 -115t-115 -77.5t-141 -28.5t-141 28.5t-115 77.5t-77.5 115t-28.5 141t28.5 141t77.5 115t115 77.5t141 28.5zM443 627q-53 0 -100 -21t-82.5 -57.5t-56.5 -86t-21 -106.5t21 -106.5t56.5 -86
t82.5 -57.5t100 -21t100 21t82.5 57.5t56.5 86t21 106.5t-21 106.5t-56.5 86t-82.5 57.5t-100 21z" />
    <glyph glyph-name="H18533" unicode="&#x25cf;" 
d="M443 718q75 0 141 -28.5t115 -77.5t77.5 -115t28.5 -141t-28.5 -141t-77.5 -115t-115 -77.5t-141 -28.5t-141 28.5t-115 77.5t-77.5 115t-28.5 141t28.5 141t77.5 115t115 77.5t141 28.5z" />
    <glyph glyph-name="uni2776" unicode="&#x2776;" 
d="M443 -7q-75 0 -141 28.5t-115 78t-77.5 115.5t-28.5 141t28.5 141t77.5 115t115 77.5t141 28.5t141 -28.5t115 -77.5t77.5 -115t28.5 -141t-28.5 -141t-77.5 -115.5t-115 -78t-141 -28.5zM475 164v384h-68l-79 -68v-78l79 68v-306h68z" />
    <glyph glyph-name="uni2777" unicode="&#x2777;" 
d="M443 -6q-75 0 -141 28.5t-115 77.5t-77.5 115t-28.5 141t28.5 141t77.5 115t115 77.5t141 28.5t141 -28.5t115 -77.5t77.5 -115t28.5 -141t-28.5 -141t-77.5 -115t-115 -77.5t-141 -28.5zM562 164v59h-157l110 128q23 27 34 45.5t11 46.5q0 46 -30 76q-30 32 -87 32
q-56 0 -89 -35q-14 -14 -20.5 -33.5t-7.5 -43.5h67q1 27 15 39t35 12q24 0 37 -13.5t13 -33.5q0 -17 -4.5 -28t-17.5 -25l-146 -165v-61h237z" />
    <glyph glyph-name="uni2778" unicode="&#x2778;" 
d="M443 -6q-75 0 -141 28.5t-115 77.5t-77.5 115t-28.5 141t28.5 141t77.5 115t115 77.5t141 28.5t141 -28.5t115 -77.5t77.5 -115t28.5 -141t-28.5 -141t-77.5 -115t-115 -77.5t-141 -28.5zM442 161q52 0 87.5 29t35.5 86q0 35 -14 56.5t-38 32.5q23 11 35 28.5t12 49.5
q0 48 -32 78.5t-86 30.5q-49 0 -82 -28.5t-36 -81.5h68q2 23 15.5 36.5t34.5 13.5q23 0 36.5 -13t13.5 -39q0 -21 -13.5 -35t-37.5 -14h-12v-56h12q26 0 41 -14.5t15 -42.5q0 -26 -15.5 -41.5t-39.5 -15.5q-21 0 -37.5 13.5t-18.5 40.5h-68q1 -30 11.5 -52t27.5 -35.5
t39 -20t46 -6.5z" />
    <glyph glyph-name="uni2779" unicode="&#x2779;" 
d="M443 -6q-75 0 -141 28.5t-115 77.5t-77.5 115t-28.5 141t28.5 141t77.5 115t115 77.5t141 28.5t141 -28.5t115 -77.5t77.5 -115t28.5 -141t-28.5 -141t-77.5 -115t-115 -77.5t-141 -28.5zM461 164h61v58h46v55h-46v85h-61v-85h-89l132 271h-67l-132 -271v-55h156v-58z
" />
    <glyph glyph-name="uni277A" unicode="&#x277a;" 
d="M443 -6q-75 0 -141 28.5t-115 77.5t-77.5 115t-28.5 141t28.5 141t77.5 115t115 77.5t141 28.5t141 -28.5t115 -77.5t77.5 -115t28.5 -141t-28.5 -141t-77.5 -115t-115 -77.5t-141 -28.5zM443 160q56 0 86 32q19 20 26 43t7 57q0 26 -6 52.5t-28 48.5q-12 12 -31.5 19
t-43.5 7q-39 0 -63 -24v95h166v58h-225v-219h63q6 16 17.5 25t31.5 9q30 0 40.5 -19t10.5 -52q0 -20 -3 -34.5t-12 -24.5q-12 -15 -36 -15q-46 0 -51 47h-68q2 -25 8 -41t23 -33q14 -14 35.5 -22.5t52.5 -8.5z" />
    <glyph glyph-name="uni277B" unicode="&#x277b;" 
d="M443 -7q-75 0 -141 28.5t-115 77.5t-77.5 115t-28.5 141t28.5 141t77.5 115t115 77.5t141 28.5t141 -28.5t115 -77.5t77.5 -115t28.5 -141t-28.5 -141t-77.5 -115t-115 -77.5t-141 -28.5zM443 224q-23 0 -37 14t-14 43t14.5 44.5t36.5 15.5q23 0 38 -15.5t15 -44.5
q0 -28 -15 -42.5t-38 -14.5zM443 161q53 0 87 31.5t34 88.5q0 27 -8 48t-22 36t-32.5 22.5t-39.5 7.5q-19 0 -32 -8l82 161h-76l-84 -170q-17 -33 -22.5 -55t-5.5 -42q0 -58 34 -89t85 -31z" />
    <glyph glyph-name="uni277C" unicode="&#x277c;" 
d="M443 -6q-75 0 -141 28.5t-115 77.5t-77.5 115t-28.5 141t28.5 141t77.5 115t115 77.5t141 28.5t141 -28.5t115 -77.5t77.5 -115t28.5 -141t-28.5 -141t-77.5 -115t-115 -77.5t-141 -28.5zM376 164h66l126 326v58h-236v-124h61v66h109z" />
    <glyph glyph-name="uni277D" unicode="&#x277d;" 
d="M443 -6q-75 0 -141 28.5t-115 77.5t-77.5 115t-28.5 141t28.5 141t77.5 115t115 77.5t141 28.5t141 -28.5t115 -77.5t77.5 -115t28.5 -141t-28.5 -141t-77.5 -115t-115 -77.5t-141 -28.5zM443 220q-25 0 -40.5 16.5t-15.5 40.5q0 25 16 40.5t40 15.5t40 -15.5t16 -40.5
q0 -24 -15 -40.5t-41 -16.5zM443 161q53 0 89 29.5t36 85.5q0 32 -14.5 53.5t-35.5 33.5q19 12 31.5 31.5t12.5 48.5q0 25 -9.5 45.5t-25.5 34.5t-38 21.5t-46 7.5t-45.5 -7.5t-37.5 -21.5t-25.5 -34.5t-9.5 -45.5q0 -29 12.5 -48.5t31.5 -31.5q-21 -12 -35.5 -33.5
t-14.5 -53.5q0 -56 36 -85.5t88 -29.5zM443 390q-22 0 -36 14t-14 37t13.5 37.5t36.5 14.5t37 -14.5t14 -37.5t-14 -37t-37 -14z" />
    <glyph glyph-name="uni277E" unicode="&#x277e;" 
d="M443 -6q-75 0 -141 28.5t-115 77.5t-77.5 115t-28.5 141t28.5 141t77.5 115t115 77.5t141 28.5t141 -28.5t115 -77.5t77.5 -115t28.5 -141t-28.5 -141t-77.5 -115t-115 -77.5t-141 -28.5zM450 164l84 170q17 33 22.5 55t5.5 42q0 58 -34 89t-85 31q-53 0 -87 -31.5
t-34 -88.5q0 -27 8 -48t22 -36t32.5 -22.5t39.5 -7.5q19 0 32 8l-82 -161h76zM443 371q-23 0 -38 15.5t-15 44.5q0 28 15 42.5t38 14.5t37 -14t14 -43t-14.5 -44.5t-36.5 -15.5z" />
    <glyph glyph-name="uni277F" unicode="&#x277f;" 
d="M533 160q45 0 72 22q33 30 33 85v177q0 56 -33 85q-26 23 -72 23t-72 -23q-33 -29 -33 -85v-177q0 -55 33 -85q27 -22 72 -22zM533 208q-52 0 -52 61v174q0 61 52 61q51 0 51 -61v-174q0 -61 -51 -61zM308 164h53v384h-53l-68 -56v-61l68 56v-323zM443 718
q75 0 141 -28.5t115 -77.5t77.5 -115t28.5 -141t-28.5 -141t-77.5 -115t-115 -77.5t-141 -28.5t-141 28.5t-115 77.5t-77.5 115t-28.5 141t28.5 141t77.5 115t115 77.5t141 28.5z" />
    <glyph glyph-name="uni2780" unicode="&#x2780;" 
d="M406 470l-79 -68v78l79 68h68v-384h-68v306zM443 718q75 0 141 -28.5t115 -77.5t77.5 -115t28.5 -141t-28.5 -141t-77.5 -115t-115 -77.5t-141 -28.5t-141 28.5t-115 77.5t-77.5 115t-28.5 141t28.5 141t77.5 115t115 77.5t141 28.5zM443 665q-63 0 -118.5 -24
t-96.5 -65.5t-64.5 -98t-23.5 -121.5t23.5 -121.5t64.5 -98t96.5 -65.5t118.5 -24q64 0 119 24t96 65.5t64.5 98t23.5 121.5t-23.5 121.5t-64.5 98t-96 65.5t-119 24z" />
    <glyph glyph-name="uni2781" unicode="&#x2781;" 
d="M325 225l146 165q13 14 17.5 25t4.5 28q0 20 -13 33.5t-37 13.5q-21 0 -35 -12t-15 -39h-67q1 24 7.5 43.5t20.5 33.5q33 35 89 35q57 0 87 -32q30 -30 30 -76q0 -28 -11 -46.5t-34 -45.5l-110 -128h157v-59h-237v61zM443 718q75 0 141 -28.5t115 -77.5t77.5 -115
t28.5 -141t-28.5 -141t-77.5 -115t-115 -77.5t-141 -28.5t-141 28.5t-115 77.5t-77.5 115t-28.5 141t28.5 141t77.5 115t115 77.5t141 28.5zM443 665q-63 0 -118.5 -24t-96.5 -65.5t-64.5 -98t-23.5 -121.5t23.5 -121.5t64.5 -98t96.5 -65.5t118.5 -24q64 0 119 24t96 65.5
t64.5 98t23.5 121.5t-23.5 121.5t-64.5 98t-96 65.5t-119 24z" />
    <glyph glyph-name="uni2782" unicode="&#x2782;" 
d="M442 161q-24 0 -46 6.5t-39 20t-27.5 35.5t-11.5 52h68q2 -27 18.5 -40.5t37.5 -13.5q24 0 39.5 15.5t15.5 41.5q0 28 -15 42.5t-41 14.5h-12v56h12q24 0 37.5 14t13.5 35q0 26 -13.5 39t-36.5 13q-21 0 -34.5 -13.5t-15.5 -36.5h-68q3 53 36 81.5t82 28.5q54 0 86 -30.5
t32 -78.5q0 -32 -12 -49.5t-35 -28.5q24 -11 38 -32.5t14 -56.5q0 -57 -35.5 -86t-87.5 -29zM443 718q75 0 141 -28.5t115 -77.5t77.5 -115t28.5 -141t-28.5 -141t-77.5 -115t-115 -77.5t-141 -28.5t-141 28.5t-115 77.5t-77.5 115t-28.5 141t28.5 141t77.5 115t115 77.5
t141 28.5zM443 665q-63 0 -118.5 -24t-96.5 -65.5t-64.5 -98t-23.5 -121.5t23.5 -121.5t64.5 -98t96.5 -65.5t118.5 -24q64 0 119 24t96 65.5t64.5 98t23.5 121.5t-23.5 121.5t-64.5 98t-96 65.5t-119 24z" />
    <glyph glyph-name="uni2783" unicode="&#x2783;" 
d="M461 222h-156v55l132 271h67l-132 -271h89v85h61v-85h46v-55h-46v-58h-61v58zM443 718q75 0 141 -28.5t115 -77.5t77.5 -115t28.5 -141t-28.5 -141t-77.5 -115t-115 -77.5t-141 -28.5t-141 28.5t-115 77.5t-77.5 115t-28.5 141t28.5 141t77.5 115t115 77.5t141 28.5z
M443 665q-63 0 -118.5 -24t-96.5 -65.5t-64.5 -98t-23.5 -121.5t23.5 -121.5t64.5 -98t96.5 -65.5t118.5 -24q64 0 119 24t96 65.5t64.5 98t23.5 121.5t-23.5 121.5t-64.5 98t-96 65.5t-119 24z" />
    <glyph glyph-name="uni2784" unicode="&#x2784;" 
d="M443 160q-31 0 -52.5 8.5t-35.5 22.5q-17 17 -23 33t-8 41h68q5 -47 51 -47q24 0 36 15q9 10 12 24.5t3 34.5q0 33 -10.5 52t-40.5 19q-20 0 -31.5 -9t-17.5 -25h-63v219h225v-58h-166v-95q24 24 63 24q24 0 43.5 -7t31.5 -19q22 -22 28 -48.5t6 -52.5q0 -34 -7 -57
t-26 -43q-30 -32 -86 -32zM443 718q75 0 141 -28.5t115 -77.5t77.5 -115t28.5 -141t-28.5 -141t-77.5 -115t-115 -77.5t-141 -28.5t-141 28.5t-115 77.5t-77.5 115t-28.5 141t28.5 141t77.5 115t115 77.5t141 28.5zM443 665q-63 0 -118.5 -24t-96.5 -65.5t-64.5 -98
t-23.5 -121.5t23.5 -121.5t64.5 -98t96.5 -65.5t118.5 -24q64 0 119 24t96 65.5t64.5 98t23.5 121.5t-23.5 121.5t-64.5 98t-96 65.5t-119 24z" />
    <glyph glyph-name="uni2785" unicode="&#x2785;" 
d="M443 161q-51 0 -85 31t-34 89q0 20 5.5 42t22.5 55l84 170h76l-82 -161q13 8 32 8q21 0 39.5 -7.5t32.5 -22.5t22 -36t8 -48q0 -57 -34 -88.5t-87 -31.5zM443 224q23 0 38 14.5t15 42.5q0 29 -15 44.5t-38 15.5q-22 0 -36.5 -15.5t-14.5 -44.5t14 -43t37 -14zM443 718
q75 0 141 -28.5t115 -77.5t77.5 -115t28.5 -141t-28.5 -141t-77.5 -115t-115 -77.5t-141 -28.5t-141 28.5t-115 77.5t-77.5 115t-28.5 141t28.5 141t77.5 115t115 77.5t141 28.5zM443 665q-63 0 -118.5 -24t-96.5 -65.5t-64.5 -98t-23.5 -121.5t23.5 -121.5t64.5 -98
t96.5 -65.5t118.5 -24q64 0 119 24t96 65.5t64.5 98t23.5 121.5t-23.5 121.5t-64.5 98t-96 65.5t-119 24z" />
    <glyph glyph-name="uni2786" unicode="&#x2786;" 
d="M502 490h-109v-66h-61v124h236v-58l-126 -326h-66zM443 718q75 0 141 -28.5t115 -77.5t77.5 -115t28.5 -141t-28.5 -141t-77.5 -115t-115 -77.5t-141 -28.5t-141 28.5t-115 77.5t-77.5 115t-28.5 141t28.5 141t77.5 115t115 77.5t141 28.5zM443 665q-63 0 -118.5 -24
t-96.5 -65.5t-64.5 -98t-23.5 -121.5t23.5 -121.5t64.5 -98t96.5 -65.5t118.5 -24q64 0 119 24t96 65.5t64.5 98t23.5 121.5t-23.5 121.5t-64.5 98t-96 65.5t-119 24z" />
    <glyph glyph-name="uni2787" unicode="&#x2787;" 
d="M441 161q-52 0 -88 29.5t-36 85.5q0 32 14.5 53.5t35.5 33.5q-19 12 -31.5 31.5t-12.5 48.5q0 25 9.5 45.5t25.5 34.5t37.5 21.5t45.5 7.5t46 -7.5t38 -21.5t25.5 -34.5t9.5 -45.5q0 -29 -12.5 -48.5t-31.5 -31.5q21 -12 35.5 -33.5t14.5 -53.5q0 -56 -36 -85.5
t-89 -29.5zM441 220q26 0 41 16.5t15 40.5q0 25 -16 40.5t-40 15.5t-40 -15.5t-16 -40.5q0 -24 15.5 -40.5t40.5 -16.5zM441 390q23 0 37 14t14 37t-14 37.5t-37 14.5t-36.5 -14.5t-13.5 -37.5t14 -37t36 -14zM443 718q75 0 141 -28.5t115 -77.5t77.5 -115t28.5 -141
t-28.5 -141t-77.5 -115t-115 -77.5t-141 -28.5t-141 28.5t-115 77.5t-77.5 115t-28.5 141t28.5 141t77.5 115t115 77.5t141 28.5zM443 665q-63 0 -118.5 -24t-96.5 -65.5t-64.5 -98t-23.5 -121.5t23.5 -121.5t64.5 -98t96.5 -65.5t118.5 -24q64 0 119 24t96 65.5t64.5 98
t23.5 121.5t-23.5 121.5t-64.5 98t-96 65.5t-119 24z" />
    <glyph glyph-name="uni2788" unicode="&#x2788;" 
d="M456 325q-13 -8 -32 -8q-21 0 -39.5 7.5t-32.5 22.5t-22 36t-8 48q0 57 34 88.5t87 31.5q51 0 85 -31t34 -89q0 -20 -5.5 -42t-22.5 -55l-84 -170h-76zM443 371q22 0 36.5 15.5t14.5 44.5t-14 43t-37 14t-38 -14.5t-15 -42.5q0 -29 15 -44.5t38 -15.5zM443 718
q75 0 141 -28.5t115 -77.5t77.5 -115t28.5 -141t-28.5 -141t-77.5 -115t-115 -77.5t-141 -28.5t-141 28.5t-115 77.5t-77.5 115t-28.5 141t28.5 141t77.5 115t115 77.5t141 28.5zM443 665q-63 0 -118.5 -24t-96.5 -65.5t-64.5 -98t-23.5 -121.5t23.5 -121.5t64.5 -98
t96.5 -65.5t118.5 -24q64 0 119 24t96 65.5t64.5 98t23.5 121.5t-23.5 121.5t-64.5 98t-96 65.5t-119 24z" />
    <glyph glyph-name="uni2789" unicode="&#x2789;" 
d="M533 160q-45 0 -72 22q-33 30 -33 85v177q0 56 33 85q26 23 72 23t72 -23q33 -29 33 -85v-177q0 -55 -33 -85q-27 -22 -72 -22zM533 208q51 0 51 61v174q0 61 -51 61q-52 0 -52 -61v-174q0 -61 52 -61zM308 487l-68 -56v61l68 56h53v-384h-53v323zM443 718
q75 0 141 -28.5t115 -77.5t77.5 -115t28.5 -141t-28.5 -141t-77.5 -115t-115 -77.5t-141 -28.5t-141 28.5t-115 77.5t-77.5 115t-28.5 141t28.5 141t77.5 115t115 77.5t141 28.5zM443 665q-63 0 -118.5 -24t-96.5 -65.5t-64.5 -98t-23.5 -121.5t23.5 -121.5t64.5 -98
t96.5 -65.5t118.5 -24q64 0 119 24t96 65.5t64.5 98t23.5 121.5t-23.5 121.5t-64.5 98t-96 65.5t-119 24z" />
    <glyph glyph-name="uni278A" unicode="&#x278a;" 
d="M443 -7q-75 0 -141 28.5t-115 78t-77.5 115.5t-28.5 141t28.5 141t77.5 115t115 77.5t141 28.5t141 -28.5t115 -77.5t77.5 -115t28.5 -141t-28.5 -141t-77.5 -115.5t-115 -78t-141 -28.5zM475 164v384h-68l-79 -68v-78l79 68v-306h68z" />
    <glyph glyph-name="uni278B" unicode="&#x278b;" 
d="M443 -6q-75 0 -141 28.5t-115 77.5t-77.5 115t-28.5 141t28.5 141t77.5 115t115 77.5t141 28.5t141 -28.5t115 -77.5t77.5 -115t28.5 -141t-28.5 -141t-77.5 -115t-115 -77.5t-141 -28.5zM562 164v59h-157l110 128q23 27 34 45.5t11 46.5q0 46 -30 76q-30 32 -87 32
q-56 0 -89 -35q-14 -14 -20.5 -33.5t-7.5 -43.5h67q1 27 15 39t35 12q24 0 37 -13.5t13 -33.5q0 -17 -4.5 -28t-17.5 -25l-146 -165v-61h237z" />
    <glyph glyph-name="uni278C" unicode="&#x278c;" 
d="M443 -6q-75 0 -141 28.5t-115 77.5t-77.5 115t-28.5 141t28.5 141t77.5 115t115 77.5t141 28.5t141 -28.5t115 -77.5t77.5 -115t28.5 -141t-28.5 -141t-77.5 -115t-115 -77.5t-141 -28.5zM442 161q52 0 87.5 29t35.5 86q0 35 -14 56.5t-38 32.5q23 11 35 28.5t12 49.5
q0 48 -32 78.5t-86 30.5q-49 0 -82 -28.5t-36 -81.5h68q2 23 15.5 36.5t34.5 13.5q23 0 36.5 -13t13.5 -39q0 -21 -13.5 -35t-37.5 -14h-12v-56h12q26 0 41 -14.5t15 -42.5q0 -26 -15.5 -41.5t-39.5 -15.5q-21 0 -37.5 13.5t-18.5 40.5h-68q1 -30 11.5 -52t27.5 -35.5
t39 -20t46 -6.5z" />
    <glyph glyph-name="uni278D" unicode="&#x278d;" 
d="M443 -6q-75 0 -141 28.5t-115 77.5t-77.5 115t-28.5 141t28.5 141t77.5 115t115 77.5t141 28.5t141 -28.5t115 -77.5t77.5 -115t28.5 -141t-28.5 -141t-77.5 -115t-115 -77.5t-141 -28.5zM461 164h61v58h46v55h-46v85h-61v-85h-89l132 271h-67l-132 -271v-55h156v-58z
" />
    <glyph glyph-name="uni278E" unicode="&#x278e;" 
d="M443 -6q-75 0 -141 28.5t-115 77.5t-77.5 115t-28.5 141t28.5 141t77.5 115t115 77.5t141 28.5t141 -28.5t115 -77.5t77.5 -115t28.5 -141t-28.5 -141t-77.5 -115t-115 -77.5t-141 -28.5zM443 160q56 0 86 32q19 20 26 43t7 57q0 26 -6 52.5t-28 48.5q-12 12 -31.5 19
t-43.5 7q-39 0 -63 -24v95h166v58h-225v-219h63q6 16 17.5 25t31.5 9q30 0 40.5 -19t10.5 -52q0 -20 -3 -34.5t-12 -24.5q-12 -15 -36 -15q-46 0 -51 47h-68q2 -25 8 -41t23 -33q14 -14 35.5 -22.5t52.5 -8.5z" />
    <glyph glyph-name="uni278F" unicode="&#x278f;" 
d="M443 -7q-75 0 -141 28.5t-115 77.5t-77.5 115t-28.5 141t28.5 141t77.5 115t115 77.5t141 28.5t141 -28.5t115 -77.5t77.5 -115t28.5 -141t-28.5 -141t-77.5 -115t-115 -77.5t-141 -28.5zM443 224q-23 0 -37 14t-14 43t14.5 44.5t36.5 15.5q23 0 38 -15.5t15 -44.5
q0 -28 -15 -42.5t-38 -14.5zM443 161q53 0 87 31.5t34 88.5q0 27 -8 48t-22 36t-32.5 22.5t-39.5 7.5q-19 0 -32 -8l82 161h-76l-84 -170q-17 -33 -22.5 -55t-5.5 -42q0 -58 34 -89t85 -31z" />
    <glyph glyph-name="uni2790" unicode="&#x2790;" 
d="M443 -6q-75 0 -141 28.5t-115 77.5t-77.5 115t-28.5 141t28.5 141t77.5 115t115 77.5t141 28.5t141 -28.5t115 -77.5t77.5 -115t28.5 -141t-28.5 -141t-77.5 -115t-115 -77.5t-141 -28.5zM376 164h66l126 326v58h-236v-124h61v66h109z" />
    <glyph glyph-name="uni2791" unicode="&#x2791;" 
d="M443 -6q-75 0 -141 28.5t-115 77.5t-77.5 115t-28.5 141t28.5 141t77.5 115t115 77.5t141 28.5t141 -28.5t115 -77.5t77.5 -115t28.5 -141t-28.5 -141t-77.5 -115t-115 -77.5t-141 -28.5zM443 220q-25 0 -40.5 16.5t-15.5 40.5q0 25 16 40.5t40 15.5t40 -15.5t16 -40.5
q0 -24 -15 -40.5t-41 -16.5zM443 161q53 0 89 29.5t36 85.5q0 32 -14.5 53.5t-35.5 33.5q19 12 31.5 31.5t12.5 48.5q0 25 -9.5 45.5t-25.5 34.5t-38 21.5t-46 7.5t-45.5 -7.5t-37.5 -21.5t-25.5 -34.5t-9.5 -45.5q0 -29 12.5 -48.5t31.5 -31.5q-21 -12 -35.5 -33.5
t-14.5 -53.5q0 -56 36 -85.5t88 -29.5zM443 390q-22 0 -36 14t-14 37t13.5 37.5t36.5 14.5t37 -14.5t14 -37.5t-14 -37t-37 -14z" />
    <glyph glyph-name="uni2792" unicode="&#x2792;" 
d="M443 -6q-75 0 -141 28.5t-115 77.5t-77.5 115t-28.5 141t28.5 141t77.5 115t115 77.5t141 28.5t141 -28.5t115 -77.5t77.5 -115t28.5 -141t-28.5 -141t-77.5 -115t-115 -77.5t-141 -28.5zM450 164l84 170q17 33 22.5 55t5.5 42q0 58 -34 89t-85 31q-53 0 -87 -31.5
t-34 -88.5q0 -27 8 -48t22 -36t32.5 -22.5t39.5 -7.5q19 0 32 8l-82 -161h76zM443 371q-23 0 -38 15.5t-15 44.5q0 28 15 42.5t38 14.5t37 -14t14 -43t-14.5 -44.5t-36.5 -15.5z" />
    <glyph glyph-name="uni2793" unicode="&#x2793;" 
d="M533 160q45 0 72 22q33 30 33 85v177q0 56 -33 85q-26 23 -72 23t-72 -23q-33 -29 -33 -85v-177q0 -55 33 -85q27 -22 72 -22zM533 208q-52 0 -52 61v174q0 61 52 61q51 0 51 -61v-174q0 -61 -51 -61zM308 164h53v384h-53l-68 -56v-61l68 56v-323zM443 718
q75 0 141 -28.5t115 -77.5t77.5 -115t28.5 -141t-28.5 -141t-77.5 -115t-115 -77.5t-141 -28.5t-141 28.5t-115 77.5t-77.5 115t-28.5 141t28.5 141t77.5 115t115 77.5t141 28.5z" />
    <glyph glyph-name="uniFB01" unicode="&#xfb01;" horiz-adv-x="586" 
d="M300 625h-45q-29 0 -42.5 -15.5t-13.5 -43.5v-59h101v-78h-101v-429h-102v429h-58v78h58v64q0 27 8.5 52.5t25.5 45t43 31.5t62 12h64v-87zM505 0h-102v507h102v-507zM508 607h-108v108h108v-108z" />
    <glyph glyph-name="uniFB02" unicode="&#xfb02;" horiz-adv-x="633" 
d="M300 625h-45q-29 0 -42.5 -15.5t-13.5 -43.5v-59h101v-78h-101v-429h-102v429h-58v78h58v64q0 27 8.5 52.5t25.5 45t43 31.5t62 12h64v-87zM502 163q0 -41 12 -56.5t43 -15.5h45v-91h-56q-146 0 -146 157v555h102v-549z" />
    <glyph glyph-name="uniFEFF" unicode="&#xfeff;" horiz-adv-x="0" 
 />
    <glyph glyph-name="onequarter.afrc" horiz-adv-x="325" 
d="M34 381h257v-51h-257v51zM167 45h-114v47l94 190h55l-93 -189h58v59h49v-59h25v-48h-25v-45h-49v45zM136 647l-63 -53v65l63 53h57v-282h-57v217z" />
    <glyph glyph-name="onehalf.afrc" horiz-adv-x="325" 
d="M68 48l111 116q11 11 14.5 20.5t3.5 20.5q0 13 -10 22.5t-27 9.5q-34 0 -37 -36h-56q2 41 28.5 62.5t64.5 21.5q41 0 66 -22.5t25 -57.5q0 -20 -7.5 -34t-24.5 -32l-86 -91h115v-48h-180v48zM136 647l-63 -53v65l63 53h57v-282h-57v217zM34 381h257v-51h-257v51z" />
    <glyph glyph-name="threequarters.afrc" horiz-adv-x="325" 
d="M34 381h257v-51h-257v51zM162 427q-39 0 -66.5 20.5t-29.5 67.5h57q2 -17 12.5 -27t26.5 -10q17 0 28.5 10.5t11.5 30.5t-12 28.5t-29 8.5h-9v39h9q17 0 27 8.5t10 24.5q0 17 -10.5 26t-25.5 9q-14 0 -23.5 -8.5t-11.5 -25.5h-57q2 42 27 64t65 22q44 0 68.5 -23.5
t24.5 -55.5q0 -25 -10.5 -39t-26.5 -20q17 -8 29 -24t12 -42q0 -38 -26.5 -61t-70.5 -23zM167 45h-114v47l94 190h55l-93 -189h58v59h49v-59h25v-48h-25v-45h-49v45z" />
    <glyph glyph-name="fraction.afrc" horiz-adv-x="325" 
d="M34 381h257v-51h-257v51z" />
    <glyph glyph-name="uni2150.afrc" horiz-adv-x="325" 
d="M34 381h257v-51h-257v51zM201 236h-77v-42h-54v88h185v-47l-91 -235h-54zM135 647l-63 -53v65l63 53h57v-282h-57v217z" />
    <glyph glyph-name="uni2151.afrc" horiz-adv-x="325" 
d="M34 381h257v-51h-257v51zM175 109q-12 -5 -25 -5q-33 1 -59 21.5t-26 64.5q0 46 29 70.5t69 24.5t68.5 -24.5t28.5 -70.5q0 -17 -4 -34.5t-18 -44.5l-55 -111h-62zM163 145q20 0 30 12.5t10 32.5t-10 32.5t-30 12.5t-30.5 -12.5t-10.5 -32.5q0 -45 41 -45zM135 647
l-63 -53v65l63 53h57v-282h-57v217z" />
    <glyph glyph-name="uni2152.afrc" horiz-adv-x="500" 
d="M34 381h432v-51h-432v51zM137 217l-63 -53v65l63 53h57v-282h-57v217zM342 -4q-19 0 -36 6.5t-30 18.5t-20.5 28.5t-7.5 36.5v110q0 44 28 66.5t66 22.5t66.5 -22.5t28.5 -66.5v-110q0 -20 -7.5 -36.5t-20.5 -28.5t-30.5 -18.5t-36.5 -6.5zM343 48q18 0 27 11t9 28v108
q0 17 -9 28t-27 11q-19 0 -28 -11t-9 -28v-108q0 -17 9 -28t28 -11zM219 647l-63 -53v65l63 53h57v-282h-57v217z" />
    <glyph glyph-name="onethird.afrc" horiz-adv-x="325" 
d="M34 381h257v-51h-257v51zM162 -3q-39 0 -66.5 20.5t-29.5 67.5h57q2 -17 12.5 -27t26.5 -10q17 0 28.5 10.5t11.5 30.5t-12 28.5t-29 8.5h-9v39h9q17 0 27 8.5t10 24.5q0 17 -10.5 26t-25.5 9q-14 0 -23.5 -8.5t-11.5 -25.5h-57q2 42 27 64t65 22q44 0 68.5 -23.5
t24.5 -55.5q0 -25 -10.5 -39t-26.5 -20q17 -8 29 -24t12 -42q0 -38 -26.5 -61t-70.5 -23zM135 647l-63 -53v65l63 53h57v-282h-57v217z" />
    <glyph glyph-name="twothirds.afrc" horiz-adv-x="325" 
d="M34 381h257v-51h-257v51zM71 478l111 116q11 11 14.5 20.5t3.5 20.5q0 13 -10 22.5t-27 9.5q-34 0 -37 -36h-56q2 41 28.5 62.5t64.5 21.5q41 0 66 -22.5t25 -57.5q0 -20 -7.5 -34t-24.5 -32l-86 -91h115v-48h-180v48zM162 -3q-39 0 -66.5 20.5t-29.5 67.5h57
q2 -17 12.5 -27t26.5 -10q17 0 28.5 10.5t11.5 30.5t-12 28.5t-29 8.5h-9v39h9q17 0 27 8.5t10 24.5q0 17 -10.5 26t-25.5 9q-14 0 -23.5 -8.5t-11.5 -25.5h-57q2 42 27 64t65 22q44 0 68.5 -23.5t24.5 -55.5q0 -25 -10.5 -39t-26.5 -20q17 -8 29 -24t12 -42
q0 -38 -26.5 -61t-70.5 -23z" />
    <glyph glyph-name="uni2155.afrc" horiz-adv-x="325" 
d="M34 381h257v-51h-257v51zM160 -3q-37 0 -60 17q-23 18 -27 54h52q6 -25 35 -25q38 0 38 49q0 28 -9 40t-28 12q-15 0 -23.5 -6t-15.5 -20h-45v164h161v-42h-119v-75q12 11 24 15.5t26 4.5q17 0 32.5 -5.5t28.5 -19.5q21 -21 21 -68q0 -20 -4.5 -36.5t-15.5 -30.5
q-22 -28 -71 -28zM135 647l-63 -53v65l63 53h57v-282h-57v217z" />
    <glyph glyph-name="uni2156.afrc" horiz-adv-x="325" 
d="M34 381h257v-51h-257v51zM71 478l111 116q11 11 14.5 20.5t3.5 20.5q0 13 -10 22.5t-27 9.5q-34 0 -37 -36h-56q2 41 28.5 62.5t64.5 21.5q41 0 66 -22.5t25 -57.5q0 -20 -7.5 -34t-24.5 -32l-86 -91h115v-48h-180v48zM160 -3q-37 0 -60 17q-23 18 -27 54h52
q6 -25 35 -25q38 0 38 49q0 28 -9 40t-28 12q-15 0 -23.5 -6t-15.5 -20h-45v164h161v-42h-119v-75q12 11 24 15.5t26 4.5q17 0 32.5 -5.5t28.5 -19.5q21 -21 21 -68q0 -20 -4.5 -36.5t-15.5 -30.5q-22 -28 -71 -28z" />
    <glyph glyph-name="uni2157.afrc" horiz-adv-x="325" 
d="M34 381h257v-51h-257v51zM162 427q-39 0 -66.5 20.5t-29.5 67.5h57q2 -17 12.5 -27t26.5 -10q17 0 28.5 10.5t11.5 30.5t-12 28.5t-29 8.5h-9v39h9q17 0 27 8.5t10 24.5q0 17 -10.5 26t-25.5 9q-14 0 -23.5 -8.5t-11.5 -25.5h-57q2 42 27 64t65 22q44 0 68.5 -23.5
t24.5 -55.5q0 -25 -10.5 -39t-26.5 -20q17 -8 29 -24t12 -42q0 -38 -26.5 -61t-70.5 -23zM160 -3q-37 0 -60 17q-23 18 -27 54h52q6 -25 35 -25q38 0 38 49q0 28 -9 40t-28 12q-15 0 -23.5 -6t-15.5 -20h-45v164h161v-42h-119v-75q12 11 24 15.5t26 4.5q17 0 32.5 -5.5
t28.5 -19.5q21 -21 21 -68q0 -20 -4.5 -36.5t-15.5 -30.5q-22 -28 -71 -28z" />
    <glyph glyph-name="uni2158.afrc" horiz-adv-x="325" 
d="M34 381h257v-51h-257v51zM176 475h-114v47l94 190h55l-93 -189h58v59h49v-59h25v-48h-25v-45h-49v45zM160 -3q-37 0 -60 17q-23 18 -27 54h52q6 -25 35 -25q38 0 38 49q0 28 -9 40t-28 12q-15 0 -23.5 -6t-15.5 -20h-45v164h161v-42h-119v-75q12 11 24 15.5t26 4.5
q17 0 32.5 -5.5t28.5 -19.5q21 -21 21 -68q0 -20 -4.5 -36.5t-15.5 -30.5q-22 -28 -71 -28z" />
    <glyph glyph-name="uni2159.afrc" horiz-adv-x="325" 
d="M34 381h257v-51h-257v51zM162 -3q-40 0 -68.5 24.5t-28.5 70.5q0 17 4 34.5t18 44.5l55 111h62l-54 -109q12 5 25 5q33 -1 58.5 -21.5t25.5 -64.5q0 -46 -28.5 -70.5t-68.5 -24.5zM161 47q21 0 31.5 12.5t10.5 32.5q0 45 -42 45q-20 0 -29.5 -12.5t-9.5 -32.5t9.5 -32.5
t29.5 -12.5zM135 647l-63 -53v65l63 53h57v-282h-57v217z" />
    <glyph glyph-name="uni215A.afrc" horiz-adv-x="325" 
d="M34 381h257v-51h-257v51zM160 427q-37 0 -60 17q-23 18 -27 54h52q6 -25 35 -25q38 0 38 49q0 28 -9 40t-28 12q-15 0 -23.5 -6t-15.5 -20h-45v164h161v-42h-119v-75q12 11 24 15.5t26 4.5q17 0 32.5 -5.5t28.5 -19.5q21 -21 21 -68q0 -20 -4.5 -36.5t-15.5 -30.5
q-22 -28 -71 -28zM162 -3q-40 0 -68.5 24.5t-28.5 70.5q0 17 4 34.5t18 44.5l55 111h62l-54 -109q12 5 25 5q33 -1 58.5 -21.5t25.5 -64.5q0 -46 -28.5 -70.5t-68.5 -24.5zM161 47q21 0 31.5 12.5t10.5 32.5q0 45 -42 45q-20 0 -29.5 -12.5t-9.5 -32.5t9.5 -32.5t29.5 -12.5
z" />
    <glyph glyph-name="oneeighth.afrc" horiz-adv-x="325" 
d="M34 381h257v-51h-257v51zM163 -3q-40 0 -69 22t-29 64q0 22 10.5 38t27.5 24q-16 10 -25 24t-9 34q0 19 8 34.5t21 26t30 16t35 5.5t35 -5.5t29.5 -16t20.5 -26t8 -34.5q0 -20 -9 -34t-25 -24q17 -8 27.5 -24t10.5 -38q0 -42 -29 -64t-68 -22zM163 45q17 0 28.5 11.5
t11.5 28.5t-11.5 28.5t-28.5 11.5t-29 -11.5t-12 -28.5t12 -28.5t29 -11.5zM163 165q14 0 25 10t11 25t-11 25.5t-25 10.5q-16 0 -26.5 -10.5t-10.5 -25.5t10.5 -25t26.5 -10zM135 647l-63 -53v65l63 53h57v-282h-57v217z" />
    <glyph glyph-name="threeeighths.afrc" horiz-adv-x="325" 
d="M34 381h257v-51h-257v51zM162 426q-39 0 -66.5 20.5t-29.5 67.5h57q2 -17 12.5 -27t26.5 -10q17 0 28.5 10.5t11.5 30.5t-12 28.5t-29 8.5h-9v39h9q17 0 27 8.5t10 24.5q0 17 -10.5 26t-25.5 9q-14 0 -23.5 -8.5t-11.5 -25.5h-57q2 42 27 64t65 22q44 0 68.5 -23.5
t24.5 -55.5q0 -25 -10.5 -39t-26.5 -20q17 -8 29 -24t12 -42q0 -38 -26.5 -61t-70.5 -23zM163 -3q-40 0 -69 22t-29 64q0 22 10.5 38t27.5 24q-16 10 -25 24t-9 34q0 19 8 34.5t21 26t30 16t35 5.5t35 -5.5t29.5 -16t20.5 -26t8 -34.5q0 -20 -9 -34t-25 -24q17 -8 27.5 -24
t10.5 -38q0 -42 -29 -64t-68 -22zM163 45q17 0 28.5 11.5t11.5 28.5t-11.5 28.5t-28.5 11.5t-29 -11.5t-12 -28.5t12 -28.5t29 -11.5zM163 165q14 0 25 10t11 25t-11 25.5t-25 10.5q-16 0 -26.5 -10.5t-10.5 -25.5t10.5 -25t26.5 -10z" />
    <glyph glyph-name="fiveeighths.afrc" horiz-adv-x="325" 
d="M34 381h257v-51h-257v51zM160 427q-37 0 -60 17q-23 18 -27 54h52q6 -25 35 -25q38 0 38 49q0 28 -9 40t-28 12q-15 0 -23.5 -6t-15.5 -20h-45v164h161v-42h-119v-75q12 11 24 15.5t26 4.5q17 0 32.5 -5.5t28.5 -19.5q21 -21 21 -68q0 -20 -4.5 -36.5t-15.5 -30.5
q-22 -28 -71 -28zM163 -3q-40 0 -69 22t-29 64q0 22 10.5 38t27.5 24q-16 10 -25 24t-9 34q0 19 8 34.5t21 26t30 16t35 5.5t35 -5.5t29.5 -16t20.5 -26t8 -34.5q0 -20 -9 -34t-25 -24q17 -8 27.5 -24t10.5 -38q0 -42 -29 -64t-68 -22zM163 45q17 0 28.5 11.5t11.5 28.5
t-11.5 28.5t-28.5 11.5t-29 -11.5t-12 -28.5t12 -28.5t29 -11.5zM163 165q14 0 25 10t11 25t-11 25.5t-25 10.5q-16 0 -26.5 -10.5t-10.5 -25.5t10.5 -25t26.5 -10z" />
    <glyph glyph-name="seveneighths.afrc" horiz-adv-x="325" 
d="M34 381h257v-51h-257v51zM201 666h-77v-42h-54v88h185v-47l-91 -235h-54zM163 -3q-40 0 -69 22t-29 64q0 22 10.5 38t27.5 24q-16 10 -25 24t-9 34q0 19 8 34.5t21 26t30 16t35 5.5t35 -5.5t29.5 -16t20.5 -26t8 -34.5q0 -20 -9 -34t-25 -24q17 -8 27.5 -24t10.5 -38
q0 -42 -29 -64t-68 -22zM163 45q17 0 28.5 11.5t11.5 28.5t-11.5 28.5t-28.5 11.5t-29 -11.5t-12 -28.5t12 -28.5t29 -11.5zM163 165q14 0 25 10t11 25t-11 25.5t-25 10.5q-16 0 -26.5 -10.5t-10.5 -25.5t10.5 -25t26.5 -10z" />
    <glyph glyph-name="uni215F.afrc" horiz-adv-x="325" 
d="M34 381h257v-51h-257v51zM135 647l-63 -53v65l63 53h57v-282h-57v217z" />
    <glyph glyph-name="uni2189.afrc" horiz-adv-x="325" 
d="M34 381h257v-51h-257v51zM162 426q-38 1 -66 25t-28 65v110q0 44 28 66.5t66 22.5t66.5 -22.5t28.5 -66.5v-110q0 -41 -28.5 -65t-66.5 -25zM163 478q18 0 27 11t9 28v108q0 17 -9 28t-27 11q-19 0 -28 -11t-9 -28v-108q0 -17 9 -28t28 -11zM162 -3q-39 0 -66.5 20.5
t-29.5 67.5h57q2 -17 12.5 -27t26.5 -10q17 0 28.5 10.5t11.5 30.5t-12 28.5t-29 8.5h-9v39h9q17 0 27 8.5t10 24.5q0 17 -10.5 26t-25.5 9q-14 0 -23.5 -8.5t-11.5 -25.5h-57q2 42 27 64t65 22q44 0 68.5 -23.5t24.5 -55.5q0 -25 -10.5 -39t-26.5 -20q17 -8 29 -24t12 -42
q0 -38 -26.5 -61t-70.5 -23z" />
    <glyph glyph-name="glyph424" horiz-adv-x="237" 
d="M118 -4q-38 1 -66 25t-28 65v110q0 44 28 66.5t66 22.5t66.5 -22.5t28.5 -66.5v-110q0 -41 -28.5 -65t-66.5 -25zM119 48q18 0 27 11t9 28v108q0 17 -9 28t-27 11q-19 0 -28 -11t-9 -28v-108q0 -17 9 -28t28 -11z" />
    <glyph glyph-name="glyph425" horiz-adv-x="237" 
d="M109 217l-63 -53v65l63 53h57v-282h-57v217z" />
    <glyph glyph-name="glyph426" horiz-adv-x="231" 
d="M26 48l111 116q11 11 14.5 20.5t3.5 20.5q0 13 -10 22.5t-27 9.5q-34 0 -37 -36h-56q2 41 28.5 62.5t64.5 21.5q41 0 66 -22.5t25 -57.5q0 -20 -7.5 -34t-24.5 -32l-86 -91h115v-48h-180v48z" />
    <glyph glyph-name="glyph427" horiz-adv-x="232" 
d="M113 -3q-39 0 -66.5 20.5t-29.5 67.5h57q2 -17 12.5 -27t26.5 -10q17 0 28.5 10.5t11.5 30.5t-12 28.5t-29 8.5h-9v39h9q17 0 27 8.5t10 24.5q0 17 -10.5 26t-25.5 9q-14 0 -23.5 -8.5t-11.5 -25.5h-57q2 42 27 64t65 22q44 0 68.5 -23.5t24.5 -55.5q0 -25 -10.5 -39
t-26.5 -20q17 -8 29 -24t12 -42q0 -38 -26.5 -61t-70.5 -23z" />
    <glyph glyph-name="glyph428" horiz-adv-x="216" 
d="M128 45h-114v47l94 190h55l-93 -189h58v59h49v-59h25v-48h-25v-45h-49v45z" />
    <glyph glyph-name="glyph429" horiz-adv-x="225" 
d="M112 -3q-37 0 -60 17q-23 18 -27 54h52q6 -25 35 -25q38 0 38 49q0 28 -9 40t-28 12q-15 0 -23.5 -6t-15.5 -20h-45v164h161v-42h-119v-75q12 11 24 15.5t26 4.5q17 0 32.5 -5.5t28.5 -19.5q21 -21 21 -68q0 -20 -4.5 -36.5t-15.5 -30.5q-22 -28 -71 -28z" />
    <glyph glyph-name="glyph430" horiz-adv-x="238" 
d="M119 -3q-40 0 -68.5 24.5t-28.5 70.5q0 17 4 34.5t18 44.5l55 111h62l-54 -109q12 5 25 5q33 -1 58.5 -21.5t25.5 -64.5q0 -46 -28.5 -70.5t-68.5 -24.5zM118 47q21 0 31.5 12.5t10.5 32.5q0 45 -42 45q-20 0 -29.5 -12.5t-9.5 -32.5t9.5 -32.5t29.5 -12.5z" />
    <glyph glyph-name="glyph431" horiz-adv-x="233" 
d="M162 236h-77v-42h-54v88h185v-47l-91 -235h-54z" />
    <glyph glyph-name="glyph432" horiz-adv-x="233" 
d="M117 -3q-40 0 -69 22t-29 64q0 22 10.5 38t27.5 24q-16 10 -25 24t-9 34q0 19 8 34.5t21 26t30 16t35 5.5t35 -5.5t29.5 -16t20.5 -26t8 -34.5q0 -20 -9 -34t-25 -24q17 -8 27.5 -24t10.5 -38q0 -42 -29 -64t-68 -22zM117 45q17 0 28.5 11.5t11.5 28.5t-11.5 28.5
t-28.5 11.5t-29 -11.5t-12 -28.5t12 -28.5t29 -11.5zM117 165q14 0 25 10t11 25t-11 25.5t-25 10.5q-16 0 -26.5 -10.5t-10.5 -25.5t10.5 -25t26.5 -10z" />
    <glyph glyph-name="glyph433" horiz-adv-x="240" 
d="M133 109q-12 -5 -25 -5q-33 1 -59 21.5t-26 64.5q0 46 29 70.5t69 24.5t68.5 -24.5t28.5 -70.5q0 -17 -4 -34.5t-18 -44.5l-55 -111h-62zM121 145q20 0 30 12.5t10 32.5t-10 32.5t-30 12.5t-30.5 -12.5t-10.5 -32.5q0 -45 41 -45z" />
    <glyph glyph-name="zero.superior" horiz-adv-x="237" 
d="M117 430q-38 1 -66 25t-28 65v110q0 44 28 66.5t66 22.5t66.5 -22.5t28.5 -66.5v-110q0 -41 -28.5 -65t-66.5 -25zM118 482q18 0 27 11t9 28v108q0 17 -9 28t-27 11q-19 0 -28 -11t-9 -28v-108q0 -17 9 -28t28 -11z" />
    <glyph glyph-name="one.superior" horiz-adv-x="237" 
d="M109 651l-63 -53v65l63 53h57v-282h-57v217z" />
    <glyph glyph-name="two.superior" horiz-adv-x="231" 
d="M26 482l111 116q11 11 14.5 20.5t3.5 20.5q0 13 -10 22.5t-27 9.5q-34 0 -37 -36h-56q2 41 28.5 62.5t64.5 21.5q41 0 66 -22.5t25 -57.5q0 -20 -7.5 -34t-24.5 -32l-86 -91h115v-48h-180v48z" />
    <glyph glyph-name="three.superior" horiz-adv-x="232" 
d="M113 431q-39 0 -66.5 20.5t-29.5 67.5h57q2 -17 12.5 -27t26.5 -10q17 0 28.5 10.5t11.5 30.5t-12 28.5t-29 8.5h-9v39h9q17 0 27 8.5t10 24.5q0 17 -10.5 26t-25.5 9q-14 0 -23.5 -8.5t-11.5 -25.5h-57q2 42 27 64t65 22q44 0 68.5 -23.5t24.5 -55.5q0 -25 -10.5 -39
t-26.5 -20q17 -8 29 -24t12 -42q0 -38 -26.5 -61t-70.5 -23z" />
    <glyph glyph-name="four.superior" horiz-adv-x="229" 
d="M133 479h-114v47l94 190h55l-93 -189h58v59h49v-59h25v-48h-25v-45h-49v45z" />
    <glyph glyph-name="five.superior" horiz-adv-x="225" 
d="M112 431q-37 0 -60 17q-23 18 -27 54h52q6 -25 35 -25q38 0 38 49q0 28 -9 40t-28 12q-15 0 -23.5 -6t-15.5 -20h-45v164h161v-42h-119v-75q12 11 24 15.5t26 4.5q17 0 32.5 -5.5t28.5 -19.5q21 -21 21 -68q0 -20 -4.5 -36.5t-15.5 -30.5q-22 -28 -71 -28z" />
    <glyph glyph-name="six.superior" horiz-adv-x="238" 
d="M119 431q-40 0 -68.5 24.5t-28.5 70.5q0 17 4 34.5t18 44.5l55 111h62l-54 -109q12 5 25 5q33 -1 58.5 -21.5t25.5 -64.5q0 -46 -28.5 -70.5t-68.5 -24.5zM118 481q21 0 31.5 12.5t10.5 32.5q0 45 -42 45q-20 0 -29.5 -12.5t-9.5 -32.5t9.5 -32.5t29.5 -12.5z" />
    <glyph glyph-name="seven.superior" horiz-adv-x="238" 
d="M162 670h-77v-42h-54v88h185v-47l-91 -235h-54z" />
    <glyph glyph-name="eight.superior" horiz-adv-x="233" 
d="M117 431q-40 0 -69 22t-29 64q0 22 10.5 38t27.5 24q-16 10 -25 24t-9 34q0 19 8 34.5t21 26t30 16t35 5.5t35 -5.5t29.5 -16t20.5 -26t8 -34.5q0 -20 -9 -34t-25 -24q17 -8 27.5 -24t10.5 -38q0 -42 -29 -64t-68 -22zM117 479q17 0 28.5 11.5t11.5 28.5t-11.5 28.5
t-28.5 11.5t-29 -11.5t-12 -28.5t12 -28.5t29 -11.5zM117 599q14 0 25 10t11 25t-11 25.5t-25 10.5q-16 0 -26.5 -10.5t-10.5 -25.5t10.5 -25t26.5 -10z" />
    <glyph glyph-name="nine.superior" horiz-adv-x="240" 
d="M133 543q-12 -5 -25 -5q-33 1 -59 21.5t-26 64.5q0 46 29 70.5t69 24.5t68.5 -24.5t28.5 -70.5q0 -17 -4 -34.5t-18 -44.5l-55 -111h-62zM121 579q20 0 30 12.5t10 32.5t-10 32.5t-30 12.5t-30.5 -12.5t-10.5 -32.5q0 -45 41 -45z" />
    <glyph glyph-name="a.superior" horiz-adv-x="290" 
d="M116 324q-26 0 -42 6t-28 19q-23 23 -23 60q0 34 23 55.5t73 21.5h68v19q0 44 -56 44q-18 0 -30.5 -5.5t-23.5 -17.5l-41 39q20 21 41.5 31t56.5 10q115 0 115 -97v-181h-64v26q-23 -30 -69 -30zM131 374q22 0 38 12.5t17 33.5l1 23h-38q-62 0 -62 -40q0 -10 7 -17
q12 -12 37 -12z" />
    <glyph glyph-name="b.aalt" horiz-adv-x="307" 
d="M110 576q11 14 26.5 22t41.5 8q47 0 73 -32q15 -19 20 -48t5 -61t-4.5 -61t-20.5 -49q-12 -14 -31 -22.5t-42 -8.5q-26 0 -42.5 9t-27.5 24v-29h-64v384h66v-136zM160 547q-33 0 -41.5 -23.5t-8.5 -58.5t8.5 -58.5t41.5 -23.5t42 23.5t9 58.5t-9 58.5t-42 23.5z" />
    <glyph glyph-name="c.aalt" horiz-adv-x="262" 
d="M154 606q54 0 88 -37l-44 -41q-10 11 -20 15.5t-24 4.5q-25 0 -42 -20q-16 -20 -16 -63q0 -41 16 -63q16 -19 42 -19q14 0 24 4.5t20 15.5l44 -42q-17 -17 -38.5 -27t-49.5 -10q-22 0 -44 7t-39.5 23t-28.5 43t-11 68q0 40 11 67.5t28.5 43.5t39.5 23t44 7z" />
    <glyph glyph-name="d.aalt" horiz-adv-x="306" 
d="M262 328h-63v29q-11 -15 -27.5 -24t-42.5 -9q-23 0 -42 8.5t-31 22.5q-16 20 -20.5 49t-4.5 61t5 61t20 48q26 32 72 32q26 0 42 -8t27 -22v136h65v-384zM147 547q-33 0 -42 -23.5t-9 -58.5t9 -58.5t42 -23.5t41 23.5t8 58.5q0 17 -1.5 32t-6.5 26t-15 17.5t-26 6.5z" />
    <glyph glyph-name="e.superior" horiz-adv-x="295" 
d="M156 324q-61 0 -93 39.5t-32 100.5q0 71 31 106.5t87 35.5q25 0 46 -8.5t36 -26.5t24 -46.5t9 -68.5v-6h-173q1 -34 17.5 -53t47.5 -19q20 0 34.5 6.5t27.5 19.5l38 -37q-21 -24 -44.5 -33.5t-55.5 -9.5zM208 488q-1 28 -13 44q-7 9 -18 15t-28 6q-16 0 -27.5 -6
t-18.5 -15q-6 -8 -8.5 -19t-3.5 -25h117z" />
    <glyph glyph-name="g.aalt" horiz-adv-x="307" 
d="M144 215q-32 0 -55.5 8t-44.5 28l37 37q13 -11 26.5 -15.5t33.5 -4.5q29 0 42.5 17t13.5 49v34q-22 -37 -71 -37q-26 0 -45 11t-30 28q-12 18 -16 40.5t-4 54.5q0 36 5 60t16 41t30 28.5t47 11.5q26 0 41.5 -8.5t26.5 -25.5v30h65v-268q0 -57 -30.5 -88t-87.5 -31z
M147 382q32 0 41 23.5t9 59.5q0 35 -9 58.5t-41 23.5q-33 0 -41.5 -23.5t-8.5 -58.5q0 -36 8.5 -59.5t41.5 -23.5z" />
    <glyph glyph-name="h.aalt" horiz-adv-x="315" 
d="M110 573q24 32 69 32q44 0 68 -24q27 -27 27 -78v-175h-66v166q0 29 -12 41t-36 12q-20 0 -35 -13.5t-15 -40.5v-165h-66v384h66v-139z" />
    <glyph glyph-name="l.aalt" horiz-adv-x="182" 
d="M108 415q0 -27 22 -27h35v-60h-46q-40 0 -58.5 25.5t-18.5 55.5v303h66v-297z" />
    <glyph glyph-name="m.aalt" horiz-adv-x="478" 
d="M343 606q41 0 67 -24q17 -17 22 -36.5t5 -42.5v-175h-65v166q0 26 -13.5 40t-35.5 14q-23 0 -36 -14t-13 -40v-166h-66v166q0 26 -13 40t-35 14t-36 -14t-14 -40v-166h-66v274h66v-28q25 32 69 32q38 0 60 -22q9 -7 14 -15q17 19 36 28t54 9z" />
    <glyph glyph-name="o.superior" horiz-adv-x="298" 
d="M149 606q30 0 51 -9.5t35 -23.5q17 -17 24.5 -41.5t7.5 -66.5t-7.5 -66t-24.5 -42q-14 -14 -35 -23.5t-51 -9.5t-51.5 9.5t-35.5 23.5q-17 18 -24 42t-7 66t7 66.5t24 41.5q13 14 35 23.5t52 9.5zM149 547q-25 0 -38 -16q-15 -18 -15 -66q0 -46 15 -66q12 -15 38 -15
t38 15q15 20 15 66q0 48 -15 66q-13 16 -38 16z" />
    <glyph glyph-name="p.aalt" horiz-adv-x="307" 
d="M178 606q23 0 42 -8.5t31 -22.5q16 -20 20.5 -49t4.5 -60q0 -33 -5 -62t-20 -48q-12 -15 -30.5 -23.5t-42.5 -8.5q-26 0 -41.5 8t-26.5 22v-136h-66v384h64v-29q11 15 27.5 24t42.5 9zM160 547q-33 0 -41.5 -23t-8.5 -58t8.5 -59t41.5 -24t42 24t9 59t-9 58t-42 23z" />
    <glyph glyph-name="r.aalt" horiz-adv-x="255" 
d="M184 606q40 0 70 -29l-48 -49q-8 8 -17.5 13.5t-23.5 5.5q-18 0 -36 -15t-18 -53v-151h-66v274h64v-35q12 17 31.5 28t43.5 11z" />
    <glyph glyph-name="s.aalt" horiz-adv-x="276" 
d="M132 324q-38 0 -66 9.5t-49 28.5l39 40q17 -16 37 -22.5t40 -6.5q26 0 44.5 9t18.5 27q0 17 -11 24t-29 9l-46 4q-35 4 -58.5 20t-23.5 54q0 42 32 64t77 22q38 0 62.5 -7.5t41.5 -21.5l-37 -39q-11 9 -27 14.5t-40 5.5t-37.5 -10t-13.5 -25q0 -14 8 -21t28 -9l47 -5
q38 -4 61 -22.5t23 -53.5q0 -45 -35 -66.5t-86 -21.5z" />
    <glyph glyph-name="t.aalt" horiz-adv-x="200" 
d="M116 602h55v-53h-55v-134q0 -28 23 -28h35v-59h-45q-20 0 -35 7t-24.5 18.5t-14 26.5t-4.5 31v138h-32v53h32v80h65v-80z" />
    <glyph glyph-name="u.aalt" horiz-adv-x="314" 
d="M269 328h-65v29q-24 -33 -69 -33q-41 0 -66 24q-17 17 -22.5 36t-5.5 43v175h65v-166q0 -29 12 -41t36 -12q20 0 35 13.5t15 40.5v165h65v-274z" />
    <glyph glyph-name="copyright.aalt" horiz-adv-x="532" 
d="M266 266q-47 0 -88.5 17.5t-72 48t-48 72t-17.5 88.5t17.5 88.5t48 72t72 48t88.5 17.5t88 -17.5t72 -48t48.5 -72t17.5 -88.5t-17.5 -88.5t-48.5 -72t-72 -48t-88 -17.5zM273 366q-46 0 -78 31t-32 95t32 95t78 31q26 0 44.5 -8t35.5 -24l-32 -32q-12 11 -23 15.5
t-25 4.5q-28 0 -44 -19q-9 -11 -13 -27t-4 -36t4 -36t13 -27q16 -19 44 -19q14 0 25 4.5t23 15.5l32 -32q-17 -16 -35.5 -24t-44.5 -8zM266 310q38 0 71 14t57 38t37.5 57.5t13.5 72.5t-13.5 72.5t-37.5 58t-57 38t-71 13.5t-71 -13.5t-57 -38t-38 -58t-14 -72.5t14 -72.5
t38 -57.5t57 -38t71 -14z" />
    <glyph glyph-name="registered.aalt" horiz-adv-x="532" 
d="M266 266q-47 0 -88.5 17.5t-72 48t-48 72t-17.5 88.5t17.5 88.5t48 72t72 48t88.5 17.5t88.5 -17.5t72 -48t48 -72t17.5 -88.5t-17.5 -88.5t-48 -72t-72 -48t-88.5 -17.5zM266 310q38 0 71 14t57 38t38 57.5t14 72.5t-14 72.5t-38 58t-57 38t-71 13.5t-71 -13.5t-57 -38
t-38 -58t-14 -72.5t14 -72.5t38 -57.5t57 -38t71 -14zM174 616h107q34 0 58 -18.5t24 -56.5q0 -26 -13 -43t-36 -24l55 -102h-53l-51 95h-42v-95h-49v244zM276 510q18 0 28 7t10 24q0 32 -38 32h-53v-63h53z" />
    <glyph glyph-name="egrave.aalt" horiz-adv-x="295" 
d="M156 324q-57 0 -91 33t-34 104q0 72 30.5 108.5t87.5 36.5q25 0 46 -8.5t36 -26.5t24 -46.5t9 -68.5v-6h-173q1 -34 17.5 -53t47.5 -19q20 0 34.5 6.5t27.5 19.5l38 -37q-21 -24 -44.5 -33.5t-55.5 -9.5zM208 488q-1 28 -13 44q-7 9 -18 15t-28 6q-16 0 -27.5 -6
t-18.5 -15q-6 -8 -8.5 -19t-3.5 -25h117zM182 645h-49l-56 89h64z" />
    <glyph glyph-name="uni2117.aalt" horiz-adv-x="532" 
d="M266 266q-47 0 -88.5 17.5t-72 48t-48 72t-17.5 88.5t17.5 88.5t48 72t72 48t88.5 17.5t88.5 -17.5t72 -48t48 -72t17.5 -88.5t-17.5 -88.5t-48 -72t-72 -48t-88.5 -17.5zM266 310q38 0 71 14t57 38t38 57.5t14 72.5t-14 72.5t-38 58t-57 38t-71 13.5t-71 -13.5t-57 -38
t-38 -58t-14 -72.5t14 -72.5t38 -57.5t57 -38t71 -14zM183 616h108q34 0 58 -19t24 -58q0 -38 -24 -57t-58 -19h-59v-91h-49v244zM286 506q18 0 28 7t10 26t-10 26.5t-28 7.5h-54v-67h54z" />
    <glyph glyph-name="zero.numr" horiz-adv-x="339" 
d="M169 281q-27 0 -51 8.5t-42 24.5t-28.5 39.5t-10.5 53.5v182q0 30 10.5 54t28.5 40t42 24.5t51 8.5t51 -8.5t42.5 -24.5t29 -40t10.5 -54v-182q0 -30 -10.5 -53.5t-29 -39.5t-42.5 -24.5t-51 -8.5zM169 349q26 0 41 16t15 43v180q0 27 -15 43t-41 16t-41 -16t-15 -43
v-180q0 -27 15 -43t41 -16z" />
    <glyph glyph-name="one.numr" horiz-adv-x="339" 
d="M155 626l-87 -76v87l87 75h77v-427h-77v341z" />
    <glyph glyph-name="two.numr" horiz-adv-x="337" 
d="M38 354l167 186q14 15 18.5 27t4.5 29q0 23 -15.5 37t-42.5 14q-23 0 -40 -12t-17 -43h-75q0 58 37 91t95 33q60 0 96 -32t36 -88q0 -15 -2.5 -27.5t-8.5 -23.5t-15 -22.5t-22 -26.5l-130 -143h179v-68h-265v69z" />
    <glyph glyph-name="three.numr" horiz-adv-x="339" 
d="M166 281q-27 0 -52 7t-44.5 22.5t-31.5 39t-13 56.5h76q2 -31 20.5 -44.5t44.5 -13.5t45 16.5t19 44.5q0 61 -66 61h-11v67h11q29 0 44.5 15t15.5 40q0 29 -17 43t-41 14q-27 0 -42 -14.5t-17 -39.5h-76q1 28 12 50.5t29 38t42.5 24t51.5 8.5q29 0 53.5 -9t42.5 -25
t28 -38.5t10 -49.5q0 -35 -13 -55t-40 -33q29 -13 44 -36.5t15 -61.5q0 -32 -11 -56t-30.5 -39.5t-45 -23.5t-53.5 -8z" />
    <glyph glyph-name="four.numr" horiz-adv-x="337" 
d="M197 348h-171v66l147 298h75l-146 -298h95v89h70v-89h41v-66h-41v-63h-70v63z" />
    <glyph glyph-name="five.numr" horiz-adv-x="333" 
d="M168 281q-34 0 -57.5 10t-38.5 24q-20 19 -26 38t-8 45h76q2 -25 15.5 -39t38.5 -14t40 15q11 12 13.5 29.5t2.5 38.5q0 35 -11 56.5t-43 21.5q-23 0 -37 -10t-19 -25h-70v241h247v-64h-179v-103q24 26 70 26q26 0 46 -8t34 -21q26 -26 32.5 -54.5t6.5 -59.5
q0 -36 -7.5 -62.5t-30.5 -49.5q-15 -15 -38 -25t-57 -10z" />
    <glyph glyph-name="six.numr" horiz-adv-x="340" 
d="M170 281q-29 0 -54 9t-43.5 25.5t-29 41t-10.5 56.5q0 23 7.5 46.5t26.5 61.5l98 191h83l-94 -180q16 8 36 8q23 0 44 -8.5t36.5 -24.5t25 -39.5t9.5 -52.5q0 -63 -38 -98.5t-97 -35.5zM169 350q26 0 42.5 16.5t16.5 47.5q0 29 -16 46.5t-43 17.5q-26 0 -42.5 -16.5
t-16.5 -47.5t16.5 -47.5t42.5 -16.5z" />
    <glyph glyph-name="seven.numr" horiz-adv-x="341" 
d="M233 644h-121v-71h-69v139h265v-68l-143 -359h-73z" />
    <glyph glyph-name="eight.numr" horiz-adv-x="335" 
d="M168 281q-29 0 -54.5 8.5t-44.5 24.5t-30 40t-11 55q0 37 17 60t40 37q-20 12 -35.5 33.5t-15.5 54.5q0 28 10.5 50.5t29 38.5t43 24.5t51.5 8.5t51 -8.5t42.5 -24.5t29 -38.5t10.5 -50.5q0 -33 -15.5 -54.5t-35.5 -33.5q23 -14 40 -37t17 -60q0 -31 -11 -55t-29.5 -40
t-44 -24.5t-54.5 -8.5zM168 348q29 0 46 17.5t17 43.5q0 27 -18 44.5t-45 17.5t-45 -17.5t-18 -44.5q0 -26 17.5 -43.5t45.5 -17.5zM168 538q25 0 41 15.5t16 39.5q0 25 -15.5 41t-41.5 16t-41.5 -16t-15.5 -41q0 -24 15.5 -39.5t41.5 -15.5z" />
    <glyph glyph-name="nine.numr" horiz-adv-x="333" 
d="M180 462q-15 -5 -33 -5q-23 0 -43 8.5t-35.5 24.5t-24.5 39.5t-9 52.5q0 63 38 98.5t95 35.5q28 0 52 -9t42 -25.5t28 -41.5t10 -56q0 -23 -7.5 -47t-25.5 -61l-93 -191h-83zM168 519q24 0 40 16.5t16 47.5t-15.5 47.5t-40.5 16.5q-26 0 -41 -16.5t-15 -47.5
q0 -29 15 -46.5t41 -17.5z" />
    <glyph glyph-name="zero.dnom" horiz-adv-x="339" 
d="M169 -4q-27 0 -51 8.5t-42 24.5t-28.5 39.5t-10.5 53.5v182q0 30 10.5 54t28.5 40t42 24.5t51 8.5t51 -8.5t42.5 -24.5t29 -40t10.5 -54v-182q0 -30 -10.5 -53.5t-29 -39.5t-42.5 -24.5t-51 -8.5zM169 64q26 0 41 16t15 43v180q0 27 -15 43t-41 16t-41 -16t-15 -43v-180
q0 -27 15 -43t41 -16z" />
    <glyph glyph-name="one.dnom" horiz-adv-x="339" 
d="M155 341l-87 -76v87l87 75h77v-427h-77v341z" />
    <glyph glyph-name="two.dnom" horiz-adv-x="337" 
d="M38 69l167 186q14 15 18.5 27t4.5 29q0 23 -15.5 37t-42.5 14q-23 0 -40 -12t-17 -43h-75q0 58 37 91t95 33q60 0 96 -32t36 -88q0 -15 -2.5 -27.5t-8.5 -23.5t-15 -22.5t-22 -26.5l-130 -143h179v-68h-265v69z" />
    <glyph glyph-name="three.dnom" horiz-adv-x="339" 
d="M166 -4q-27 0 -52 7t-44.5 22.5t-31.5 39t-13 56.5h76q2 -31 20.5 -44.5t44.5 -13.5t45 16.5t19 44.5q0 61 -66 61h-11v67h11q29 0 44.5 15t15.5 40q0 29 -17 43t-41 14q-27 0 -42 -14.5t-17 -39.5h-76q1 28 12 50.5t29 38t42.5 24t51.5 8.5q29 0 53.5 -9t42.5 -25
t28 -38.5t10 -49.5q0 -35 -13 -55t-40 -33q29 -13 44 -36.5t15 -61.5q0 -32 -11 -56t-30.5 -39.5t-45 -23.5t-53.5 -8z" />
    <glyph glyph-name="four.dnom" horiz-adv-x="326" 
d="M194 63h-171v66l147 298h75l-146 -298h95v89h70v-89h41v-66h-41v-63h-70v63z" />
    <glyph glyph-name="five.dnom" horiz-adv-x="333" 
d="M168 -4q-34 0 -57.5 10t-38.5 24q-20 19 -26 38t-8 45h76q2 -25 15.5 -39t38.5 -14t40 15q11 12 13.5 29.5t2.5 38.5q0 35 -11 56.5t-43 21.5q-23 0 -37 -10t-19 -25h-70v241h247v-64h-179v-103q24 26 70 26q26 0 46 -8t34 -21q26 -26 32.5 -54.5t6.5 -59.5
q0 -36 -7.5 -62.5t-30.5 -49.5q-15 -15 -38 -25t-57 -10z" />
    <glyph glyph-name="six.dnom" horiz-adv-x="340" 
d="M170 -4q-29 0 -54 9t-43.5 25.5t-29 41t-10.5 56.5q0 23 7.5 46.5t26.5 61.5l98 191h83l-94 -180q16 8 36 8q23 0 44 -8.5t36.5 -24.5t25 -39.5t9.5 -52.5q0 -63 -38 -98.5t-97 -35.5zM169 65q26 0 42.5 16.5t16.5 47.5q0 29 -16 46.5t-43 17.5q-26 0 -42.5 -16.5
t-16.5 -47.5t16.5 -47.5t42.5 -16.5z" />
    <glyph glyph-name="seven.dnom" horiz-adv-x="331" 
d="M228 359h-121v-71h-69v139h265v-68l-143 -359h-73z" />
    <glyph glyph-name="eight.dnom" horiz-adv-x="335" 
d="M168 -4q-29 0 -54.5 8.5t-44.5 24.5t-30 40t-11 55q0 37 17 60t40 37q-20 12 -35.5 33.5t-15.5 54.5q0 28 10.5 50.5t29 38.5t43 24.5t51.5 8.5t51 -8.5t42.5 -24.5t29 -38.5t10.5 -50.5q0 -33 -15.5 -54.5t-35.5 -33.5q23 -14 40 -37t17 -60q0 -31 -11 -55t-29.5 -40
t-44 -24.5t-54.5 -8.5zM168 63q29 0 46 17.5t17 43.5q0 27 -18 44.5t-45 17.5t-45 -17.5t-18 -44.5q0 -26 17.5 -43.5t45.5 -17.5zM168 253q25 0 41 15.5t16 39.5q0 25 -15.5 41t-41.5 16t-41.5 -16t-15.5 -41q0 -24 15.5 -39.5t41.5 -15.5z" />
    <glyph glyph-name="nine.dnom" horiz-adv-x="333" 
d="M180 177q-15 -5 -33 -5q-23 0 -43 8.5t-35.5 24.5t-24.5 39.5t-9 52.5q0 63 38 98.5t95 35.5q28 0 52 -9t42 -25.5t28 -41.5t10 -56q0 -23 -7.5 -47t-25.5 -61l-93 -191h-83zM168 234q24 0 40 16.5t16 47.5t-15.5 47.5t-40.5 16.5q-26 0 -41 -16.5t-15 -47.5
q0 -29 15 -46.5t41 -17.5z" />
    <glyph glyph-name="space.aalt" horiz-adv-x="48" 
 />
    <glyph glyph-name="zero.oldstyle.pnum" horiz-adv-x="534" 
d="M267 -6q-42 0 -79.5 14t-65.5 40.5t-44.5 64t-16.5 85.5v201q0 48 16.5 85.5t44.5 64t65.5 40.5t79.5 14t79.5 -14t65.5 -40.5t44.5 -64t16.5 -85.5v-201q0 -48 -16.5 -85.5t-44.5 -64t-65.5 -40.5t-79.5 -14zM267 85q49 0 76.5 32t27.5 84v195q0 52 -27.5 84t-76.5 32
t-76.5 -32t-27.5 -84v-195q0 -52 27.5 -84t76.5 -32z" />
    <glyph glyph-name="one.oldstyle.pnum" horiz-adv-x="407" 
d="M192 486l-140 -122v113l140 120h102v-597h-102v486z" />
    <glyph glyph-name="two.oldstyle.pnum" horiz-adv-x="528" 
d="M42 91l241 220q32 30 51 59t19 62q0 42 -28.5 71t-74.5 29q-21 0 -40 -7t-33.5 -20t-23 -33t-8.5 -45h-102q0 44 16 80.5t44 62t65.5 39.5t81.5 14q45 0 82.5 -14t65 -39.5t42.5 -60t15 -76.5q0 -28 -8.5 -52t-23.5 -46.5t-35 -44t-43 -43.5l-165 -156h290v-91h-428v91z
" />
    <glyph glyph-name="three.oldstyle.pnum" horiz-adv-x="526" 
d="M253 -123q-43 0 -81.5 11.5t-68.5 36t-48.5 62.5t-19.5 90h102q1 -29 11.5 -49t26 -33.5t36 -19.5t42.5 -6q50 0 83 30.5t33 87.5q0 54 -29.5 85.5t-89.5 31.5h-17v89h17q56 0 82 29.5t26 78.5q0 54 -30.5 82t-74.5 28q-47 0 -75 -27t-32 -75h-102q2 45 19 81t45 61
t65 38.5t80 13.5q45 0 83 -14.5t65.5 -41t43 -63t15.5 -80.5q0 -57 -23.5 -94.5t-65.5 -57.5q46 -20 73 -61t27 -107q0 -51 -17.5 -90t-47 -65t-69 -39t-84.5 -13z" />
    <glyph glyph-name="four.oldstyle.pnum" horiz-adv-x="566" 
d="M343 30h-305v95l253 510h109l-253 -510h196v176h98v-176h85v-95h-85v-153h-98v153z" />
    <glyph glyph-name="five.oldstyle.pnum" horiz-adv-x="535" 
d="M268 -122q-51 0 -90 16t-62 39q-29 29 -40 63.5t-14 72.5h102q6 -48 31 -73.5t73 -25.5q46 0 74 28q23 23 28.5 56t5.5 69q0 32 -4.5 59t-16.5 47t-32 31.5t-51 11.5q-44 0 -68.5 -19t-32.5 -45h-93v389h384v-91h-292v-188q18 19 48.5 30t69.5 11q42 0 74 -12t54 -34
q20 -20 32.5 -43t19 -47t8.5 -49.5t2 -50.5q0 -57 -10.5 -103.5t-49.5 -85.5q-24 -24 -61 -40t-89 -16z" />
    <glyph glyph-name="six.oldstyle.pnum" horiz-adv-x="538" 
d="M269 -6q-49 0 -90 15.5t-70.5 44t-46 70t-16.5 94.5q0 54 15 101.5t46 102.5l171 306h109l-175 -303q19 10 38 13.5t44 3.5q42 0 78.5 -15t63 -43.5t41.5 -69t15 -91.5q0 -52 -16.5 -94.5t-46 -72.5t-70.5 -46t-90 -16zM269 82q54 0 87.5 37t33.5 101q0 29 -8 54.5
t-24 44t-38.5 29.5t-50.5 11q-54 0 -87.5 -37.5t-33.5 -101.5t33.5 -101t87.5 -37z" />
    <glyph glyph-name="seven.oldstyle.pnum" horiz-adv-x="528" 
d="M384 506h-241v-112h-98v203h448v-91l-276 -626h-109z" />
    <glyph glyph-name="eight.oldstyle.pnum" horiz-adv-x="549" 
d="M274 -6q-46 0 -86 14t-69.5 41t-46.5 65.5t-17 86.5q0 32 8.5 58t22 46.5t31.5 36t36 26.5q-35 22 -61 59.5t-26 93.5q0 44 16 80.5t44.5 62.5t66 40t81.5 14q43 0 81 -14t66.5 -40t44.5 -62.5t16 -80.5q0 -57 -25.5 -94t-60.5 -59q18 -11 36 -26.5t31.5 -36t22 -46.5
t8.5 -58q0 -48 -17 -86.5t-47 -65.5t-70 -41t-86 -14zM274 85q25 0 46.5 9t37.5 25t25 37.5t9 46.5t-9 47t-25 38t-37.5 25t-46.5 9q-24 0 -45.5 -9t-37.5 -25t-25 -38t-9 -47t9 -46.5t25 -37.5t37.5 -25t45.5 -9zM274 410q47 0 76.5 30.5t29.5 77.5q0 48 -29.5 78.5
t-76.5 30.5q-46 0 -76 -30.5t-30 -78.5q0 -47 30 -77.5t76 -30.5z" />
    <glyph glyph-name="nine.oldstyle.pnum" horiz-adv-x="538" 
d="M326 172q-19 -10 -38 -13.5t-43 -3.5q-42 0 -78.5 15.5t-63.5 44t-42 69t-15 90.5q0 52 16.5 94.5t46 72.5t70.5 46t90 16t90 -15.5t70.5 -44t46 -70.5t16.5 -94q0 -54 -14.5 -101.5t-45.5 -102.5l-172 -306h-109zM269 238q54 0 87.5 37.5t33.5 101.5t-33.5 101t-87.5 37
t-87.5 -37t-33.5 -101q0 -29 8 -54.5t24 -44.5t38 -29.5t51 -10.5z" />
    <glyph glyph-name="zero.pnum" horiz-adv-x="533" 
d="M266 -6q-42 0 -79.5 14t-65.5 40.5t-44 64t-16 85.5v316q0 48 16 85.5t44 64t65.5 40.5t79.5 14q43 0 80.5 -14t65.5 -40.5t44 -64t16 -85.5v-316q0 -48 -16 -85.5t-44 -64t-65.5 -40.5t-80.5 -14zM266 85q49 0 76.5 32.5t27.5 83.5v310q0 51 -27.5 83.5t-76.5 32.5
q-48 0 -75.5 -32.5t-27.5 -83.5v-310q0 -51 27.5 -83.5t75.5 -32.5z" />
    <glyph glyph-name="one.pnum" horiz-adv-x="404" 
d="M191 601l-139 -122v113l139 120h102v-712h-102v601z" />
    <glyph glyph-name="two.pnum" horiz-adv-x="509" 
d="M42 91l274 333q20 25 29 46.5t9 48.5q0 48 -27 78t-77 30q-20 0 -39 -6t-33.5 -19t-23.5 -34t-9 -51h-102q0 45 15.5 82.5t43 63.5t65.5 40.5t83 14.5q46 0 84 -14t65 -40t42 -63t15 -83q0 -47 -17 -80.5t-50 -73.5l-223 -273h290v-91h-414v91z" />
    <glyph glyph-name="three.pnum" horiz-adv-x="523" 
d="M253 -6q-43 0 -81.5 11.5t-68.5 36t-48.5 62.5t-19.5 90h102q1 -29 11.5 -49t26 -33.5t36 -19.5t42.5 -6q50 0 83 30.5t33 87.5q0 54 -29.5 85t-89.5 31h-17v89h17q56 0 82 29t26 78q0 54 -30.5 82t-74.5 28q-47 0 -75 -27t-32 -75h-102q2 45 19 81t45 61t65 38.5
t80 13.5q45 0 83 -14.5t65.5 -41t43 -63t15.5 -80.5q0 -57 -23.5 -94t-65.5 -57q46 -20 73 -60.5t27 -106.5q0 -51 -17.5 -90t-47 -65t-69 -39t-84.5 -13z" />
    <glyph glyph-name="four.pnum" horiz-adv-x="541" 
d="M326 107h-288v95l251 510h110l-250 -510h177v166h99v-166h76v-95h-76v-107h-99v107z" />
    <glyph glyph-name="five.pnum" horiz-adv-x="533" 
d="M265 -6q-51 0 -90 16t-62 39q-29 29 -40 63.5t-14 72.5h102q6 -48 31 -73.5t73 -25.5q46 0 74 28q23 23 28.5 56t5.5 69q0 32 -4.5 59t-16.5 47t-32 31t-51 11q-44 0 -68.5 -19t-32.5 -45h-93v389h384v-91h-292v-188q18 19 48.5 30t69.5 11q42 0 74 -12t54 -34
q20 -20 32.5 -43t19 -47t8.5 -49t2 -50q0 -57 -10.5 -103.5t-49.5 -85.5q-24 -24 -61 -40t-89 -16z" />
    <glyph glyph-name="six.pnum" horiz-adv-x="507" 
d="M254 -6q-47 0 -85.5 14.5t-66.5 42.5t-43.5 67t-15.5 89q0 37 10.5 75t39.5 95l165 335h109l-155 -310q14 8 31 11.5t34 3.5q39 0 73 -15t59.5 -42t40 -65t14.5 -84q0 -49 -15.5 -89t-43 -68.5t-66.5 -44t-85 -15.5zM253 85q48 0 78.5 33t30.5 91q0 53 -29 88t-80 35
q-48 0 -78 -33t-30 -90q0 -58 30 -91t78 -33z" />
    <glyph glyph-name="seven.pnum" horiz-adv-x="501" 
d="M357 621h-217v-112h-98v203h424v-91l-238 -621h-110z" />
    <glyph glyph-name="eight.pnum" horiz-adv-x="549" 
d="M274 -6q-46 0 -86 14t-69.5 41t-46.5 65.5t-17 86.5q0 32 8.5 58t22 46.5t31 36t36.5 26.5q-35 21 -60.5 58.5t-25.5 94.5q0 45 16 81t44 62t65.5 40t81.5 14q43 0 81 -14t66.5 -40t44.5 -62t16 -81q0 -57 -25.5 -94.5t-60.5 -58.5q19 -11 36.5 -26.5t31 -36t22 -46.5
t8.5 -58q0 -48 -17 -86.5t-47 -65.5t-70 -41t-86 -14zM274 85q25 0 46 9t37 25t25 37.5t9 46.5t-9 46.5t-25 37.5t-37 25.5t-46 9.5t-46.5 -9.5t-37 -25.5t-24.5 -37.5t-9 -46.5t9 -46.5t24.5 -37.5t37 -25t46.5 -9zM274 410q47 0 76.5 30t29.5 78q0 47 -29.5 78t-76.5 31
t-76 -31t-29 -78q0 -48 29 -78t76 -30z" />
    <glyph glyph-name="nine.pnum" horiz-adv-x="507" 
d="M296 310q-15 -8 -32 -11.5t-34 -3.5q-39 0 -73 14.5t-59.5 41.5t-40 65t-14.5 85q0 49 15.5 89t43.5 68.5t66.5 44t84.5 15.5t85 -14.5t67 -42.5t43.5 -67.5t15.5 -88.5q0 -37 -10.5 -75t-39.5 -95l-165 -335h-109zM254 380q48 0 78 33t30 90q0 58 -30 91t-78 33
t-78.5 -33t-30.5 -91q0 -53 29 -88t80 -35z" />
    <glyph glyph-name="zero.oldstyle" horiz-adv-x="533" 
d="M267 -6q-42 0 -79.5 14t-65.5 40.5t-44.5 64t-16.5 85.5v201q0 48 16.5 85.5t44.5 64t65.5 40.5t79.5 14t79.5 -14t65.5 -40.5t44.5 -64t16.5 -85.5v-201q0 -48 -16.5 -85.5t-44.5 -64t-65.5 -40.5t-79.5 -14zM267 85q49 0 76.5 32t27.5 84v195q0 52 -27.5 84t-76.5 32
t-76.5 -32t-27.5 -84v-195q0 -52 27.5 -84t76.5 -32z" />
    <glyph glyph-name="one.oldstyle" horiz-adv-x="533" 
d="M254 486l-140 -122v113l140 120h102v-597h-102v486z" />
    <glyph glyph-name="two.oldstyle" horiz-adv-x="533" 
d="M57 91l241 220q32 30 51 59t19 62q0 42 -28.5 71t-75.5 29q-20 0 -39 -7t-33.5 -20t-23 -33t-8.5 -45h-102q0 44 16 80.5t44 62t65.5 39.5t80.5 14q45 0 83 -14t65.5 -39.5t42.5 -60t15 -76.5q0 -28 -8.5 -52t-23.5 -46.5t-35 -44t-43 -43.5l-165 -156h290v-91h-428v91z
" />
    <glyph glyph-name="three.oldstyle" horiz-adv-x="533" 
d="M260 -123q-43 0 -81.5 11.5t-68.5 36t-48.5 62.5t-19.5 90h102q1 -29 11.5 -49t26 -33.5t36 -19.5t42.5 -6q50 0 83 30.5t33 87.5q0 54 -29.5 85.5t-89.5 31.5h-17v89h17q56 0 82 29.5t26 78.5q0 54 -30.5 82t-74.5 28q-47 0 -75 -27t-32 -75h-102q2 45 19 81t45 61
t65 38.5t80 13.5q45 0 83 -14.5t65.5 -41t43 -63t15.5 -80.5q0 -57 -23.5 -94.5t-65.5 -57.5q46 -20 73 -61t27 -107q0 -51 -17.5 -90t-47 -65t-69 -39t-84.5 -13z" />
    <glyph glyph-name="four.oldstyle" horiz-adv-x="533" 
d="M330 30h-298v95l255 510h111l-256 -510h188v167h99v-167h76v-95h-76v-153h-99v153z" />
    <glyph glyph-name="five.oldstyle" horiz-adv-x="533" 
d="M267 -122q-51 0 -90 16t-62 39q-29 29 -40 63.5t-14 72.5h102q6 -48 31 -73.5t73 -25.5q46 0 74 28q23 23 28.5 56t5.5 69q0 32 -4.5 59t-16.5 47t-32 31.5t-51 11.5q-44 0 -68.5 -19t-32.5 -45h-93v389h384v-91h-292v-188q18 19 48.5 30t69.5 11q42 0 74 -12t54 -34
q20 -20 32.5 -43t19 -47t8.5 -49.5t2 -50.5q0 -57 -10.5 -103.5t-49.5 -85.5q-24 -24 -61 -40t-89 -16z" />
    <glyph glyph-name="six.oldstyle" horiz-adv-x="533" 
d="M268 -6q-49 0 -90 15.5t-70.5 44t-46 70t-16.5 94.5q0 54 15 101.5t46 102.5l171 306h109l-175 -303q19 10 38 13.5t44 3.5q42 0 78.5 -15t63 -43.5t41.5 -69t15 -91.5q0 -52 -16.5 -94.5t-46 -72.5t-70.5 -46t-90 -16zM268 82q54 0 87.5 37t33.5 101q0 29 -8 54.5
t-24 44t-38.5 29.5t-50.5 11q-54 0 -87.5 -37.5t-33.5 -101.5t33.5 -101t87.5 -37z" />
    <glyph glyph-name="seven.oldstyle" horiz-adv-x="533" 
d="M387 506h-241v-112h-98v203h448v-91l-276 -626h-109z" />
    <glyph glyph-name="eight.oldstyle" horiz-adv-x="533" 
d="M266 -6q-46 0 -86 14t-69.5 41t-46.5 65.5t-17 86.5q0 32 8.5 58t22 46.5t31 36t36.5 26.5q-35 21 -60.5 58.5t-25.5 94.5q0 45 16 81t44 62t65.5 40t81.5 14q43 0 81 -14t66.5 -40t44.5 -62t16 -81q0 -57 -25.5 -94.5t-60.5 -58.5q19 -11 36.5 -26.5t31 -36t22 -46.5
t8.5 -58q0 -48 -17 -86.5t-47 -65.5t-70 -41t-86 -14zM266 85q25 0 46 9t37 25t25 37.5t9 46.5t-9 46.5t-25 37.5t-37 25.5t-46 9.5t-46.5 -9.5t-37 -25.5t-24.5 -37.5t-9 -46.5t9 -46.5t24.5 -37.5t37 -25t46.5 -9zM266 410q47 0 76.5 30t29.5 78q0 47 -29.5 78t-76.5 31
t-76 -31t-29 -78q0 -48 29 -78t76 -30z" />
    <glyph glyph-name="nine.oldstyle" horiz-adv-x="533" 
d="M322 172q-19 -10 -38 -13.5t-44 -3.5q-42 0 -78.5 15t-63 43.5t-41.5 69t-15 91.5q0 52 16.5 94.5t46 72.5t70.5 46t90 16t90 -15.5t70.5 -44t46 -70.5t16.5 -94q0 -54 -15 -101.5t-46 -102.5l-171 -306h-109zM265 238q54 0 87.5 37.5t33.5 101.5t-33.5 101t-87.5 37
t-87.5 -37t-33.5 -101q0 -29 8 -54.5t24 -44.5t38 -29.5t51 -10.5z" />
    <glyph glyph-name="uni2007.aalt" horiz-adv-x="533" 
 />
    <glyph glyph-name="hyphen.aalt" horiz-adv-x="426" 
d="M359 308h-292v95h292v-95z" />
    <glyph glyph-name="exclamdown.case" horiz-adv-x="332" 
d="M211 0h-124l22 500h80zM205 603h-112v109h112v-109z" />
    <glyph glyph-name="guillemotleft.aalt" horiz-adv-x="592" 
d="M520 462l-108 -106l108 -107v-123l-230 230l230 229v-123zM267 462l-107 -106l107 -107v-123l-230 230l230 229v-123z" />
    <glyph glyph-name="uni00AD.aalt" horiz-adv-x="426" 
d="M359 308h-292v95h292v-95z" />
    <glyph glyph-name="periodcentered.case" horiz-adv-x="278" 
d="M200 297h-122v122h122v-122z" />
    <glyph glyph-name="guillemotright.aalt" horiz-adv-x="592" 
d="M555 356l-230 -229v123l107 106l-107 107v123zM302 356l-230 -229v123l108 106l-108 107v123z" />
    <glyph glyph-name="questiondown.case" horiz-adv-x="511" 
d="M286 465q0 -31 -8 -53t-26 -46l-78 -105q-14 -18 -22.5 -36.5t-8.5 -39.5q0 -42 27 -71t71 -29q47 0 72 30t25 71h102q0 -42 -15 -77.5t-42 -61t-63.5 -39.5t-78.5 -14q-41 0 -77.5 13t-63.5 38t-43 60.5t-16 79.5q0 36 14 65.5t34 57.5l77 108q8 11 13 26.5t5 27.5v30
h102v-35zM292 603h-113v109h113v-109z" />
    <glyph glyph-name="endash.aalt" horiz-adv-x="565" 
d="M498 308h-431v95h431v-95z" />
    <glyph glyph-name="emdash.aalt" horiz-adv-x="972" 
d="M905 307h-838v97h838v-97z" />
    <glyph glyph-name="bullet.aalt" horiz-adv-x="512" 
d="M256 521q34 0 63.5 -13t51.5 -35t35 -51.5t13 -63.5t-13 -63.5t-35 -51.5t-51.5 -35t-63.5 -13t-63.5 13t-51.5 35t-35 51.5t-13 63.5t13 63.5t35 51.5t51.5 35t63.5 13z" />
    <glyph glyph-name="guilsinglleft.aalt" horiz-adv-x="339" 
d="M267 462l-107 -106l107 -107v-123l-230 230l230 229v-123z" />
    <glyph glyph-name="guilsinglright.aalt" horiz-adv-x="339" 
d="M302 356l-230 -229v123l107 106l-107 107v123z" />
    <glyph glyph-name="zero.zero" horiz-adv-x="533" 
d="M232 405h69v-97h-69v97zM266 -6q-42 0 -79.5 14t-65.5 40.5t-44 64t-16 85.5v316q0 48 16 85.5t44 64t65.5 40.5t79.5 14q43 0 80.5 -14t65.5 -40.5t44 -64t16 -85.5v-316q0 -48 -16 -85.5t-44 -64t-65.5 -40.5t-80.5 -14zM266 85q49 0 76.5 32.5t27.5 83.5v310
q0 51 -27.5 83.5t-76.5 32.5q-48 0 -75.5 -32.5t-27.5 -83.5v-310q0 -51 27.5 -83.5t75.5 -32.5z" />
    <glyph glyph-name="zero.oldstyle.pnum.zero" horiz-adv-x="534" 
d="M235 347h65v-97h-65v97zM267 -6q-42 0 -79.5 14t-65.5 40.5t-44.5 64t-16.5 85.5v201q0 48 16.5 85.5t44.5 64t65.5 40.5t79.5 14t79.5 -14t65.5 -40.5t44.5 -64t16.5 -85.5v-201q0 -48 -16.5 -85.5t-44.5 -64t-65.5 -40.5t-79.5 -14zM267 85q49 0 76.5 32t27.5 84v195
q0 52 -27.5 84t-76.5 32t-76.5 -32t-27.5 -84v-195q0 -52 27.5 -84t76.5 -32z" />
    <glyph glyph-name="zero.pnum.zero" horiz-adv-x="533" 
d="M232 405h69v-97h-69v97zM266 -6q-42 0 -79.5 14t-65.5 40.5t-44 64t-16 85.5v316q0 48 16 85.5t44 64t65.5 40.5t79.5 14q43 0 80.5 -14t65.5 -40.5t44 -64t16 -85.5v-316q0 -48 -16 -85.5t-44 -64t-65.5 -40.5t-80.5 -14zM266 85q49 0 76.5 32.5t27.5 83.5v310
q0 51 -27.5 83.5t-76.5 32.5q-48 0 -75.5 -32.5t-27.5 -83.5v-310q0 -51 27.5 -83.5t75.5 -32.5z" />
    <glyph glyph-name="zero.oldstyle.zero" horiz-adv-x="534" 
d="M235 347h65v-97h-65v97zM267 -6q-42 0 -79.5 14t-65.5 40.5t-44.5 64t-16.5 85.5v201q0 48 16.5 85.5t44.5 64t65.5 40.5t79.5 14t79.5 -14t65.5 -40.5t44.5 -64t16.5 -85.5v-201q0 -48 -16.5 -85.5t-44.5 -64t-65.5 -40.5t-79.5 -14zM267 85q49 0 76.5 32t27.5 84v195
q0 52 -27.5 84t-76.5 32t-76.5 -32t-27.5 -84v-195q0 -52 27.5 -84t76.5 -32z" />
    <glyph glyph-name="exclam.aalt" horiz-adv-x="332" 
d="M222 212h-77l-24 500h124zM183 127q27 0 46 -19t19 -46t-19 -46t-46 -19t-46 19t-19 46t19 46t46 19z" />
    <glyph glyph-name="period.aalt" horiz-adv-x="284" 
d="M142 142q30 0 51.5 -21t21.5 -51t-21.5 -51.5t-51.5 -21.5t-51.5 21.5t-21.5 51.5t21.5 51t51.5 21z" />
    <glyph glyph-name="colon.aalt" horiz-adv-x="310" 
d="M168 420q30 0 51 -21.5t21 -51.5t-21 -51.5t-51 -21.5t-51.5 21.5t-21.5 51.5t21.5 51.5t51.5 21.5zM168 142q30 0 51 -21t21 -51t-21 -51.5t-51 -21.5t-51.5 21.5t-21.5 51.5t21.5 51t51.5 21z" />
    <glyph glyph-name="semicolon.aalt" horiz-adv-x="303" 
d="M226 -60l-116 -95v271h116v-176zM168 420q30 0 51 -21.5t21 -51.5t-21 -51.5t-51 -21.5t-51.5 21.5t-21.5 51.5t21.5 51.5t51.5 21.5z" />
    <glyph glyph-name="question.aalt" horiz-adv-x="511" 
d="M270 718q41 0 77.5 -13.5t63.5 -38t43 -60t16 -79.5q0 -36 -14 -65.5t-34 -57.5l-77 -108q-8 -11 -13 -26.5t-5 -27.5v-30h-102v35q0 31 8 53t26 46l78 105q14 18 22.5 36.5t8.5 39.5q0 42 -27 71t-71 29q-47 0 -72 -30t-25 -71h-102q0 42 15 77.5t42 61t63.5 39.5
t78.5 14zM275 127q27 0 46 -19t19 -46t-19 -46t-46 -19t-45.5 19t-18.5 46t18.5 46t45.5 19z" />
    <glyph glyph-name="i.salt" horiz-adv-x="264" 
d="M183 0h-102v507h102v-507zM132 738q27 0 46.5 -19.5t19.5 -46.5t-19.5 -46.5t-46.5 -19.5t-46.5 19.5t-19.5 46.5t19.5 46.5t46.5 19.5z" />
    <glyph glyph-name="j.aalt" horiz-adv-x="264" 
d="M183 -65q0 -28 -8 -53.5t-25 -44.5t-43.5 -30.5t-62.5 -11.5h-63v87h45q31 0 43 15t12 44v566h102v-572zM132 738q27 0 46.5 -19.5t19.5 -46.5t-19.5 -46.5t-46.5 -19.5t-46.5 19.5t-19.5 46.5t19.5 46.5t46.5 19.5z" />
    <glyph glyph-name="exclamdown.salt" horiz-adv-x="332" 
d="M211 -204h-124l23 500h77zM149 511q27 0 46 -19t19 -46t-19 -46t-46 -19t-46 19t-19 46t19 46t46 19z" />
    <glyph glyph-name="dieresis.aalt" horiz-adv-x="537" 
d="M379 713q23 0 39.5 -16.5t16.5 -39.5t-16.5 -40t-39.5 -17t-40 17t-17 40t17 39.5t40 16.5zM159 713q23 0 40 -16.5t17 -39.5t-17 -40t-40 -17t-39.5 17t-16.5 40t16.5 39.5t39.5 16.5z" />
    <glyph glyph-name="periodcentered.salt" horiz-adv-x="284" 
d="M142 350q30 0 51.5 -21t21.5 -51t-21.5 -51.5t-51.5 -21.5t-51.5 21.5t-21.5 51.5t21.5 51t51.5 21z" />
    <glyph glyph-name="cedilla.aalt" horiz-adv-x="537" 
d="M234 -177q20 0 33 13t13 31t-13 31t-33 13v55q49 0 78.5 -28.5t29.5 -70.5t-29.5 -70.5t-78.5 -28.5v55z" />
    <glyph glyph-name="questiondown.salt" horiz-adv-x="511" 
d="M286 260q0 -31 -8 -53t-26 -46l-78 -105q-14 -18 -22.5 -36.5t-8.5 -39.5q0 -42 27 -71t71 -29q47 0 72 30t25 71h102q0 -42 -15 -77.5t-42 -61t-63.5 -39.5t-78.5 -14q-41 0 -77.5 13t-63.5 38t-43 60.5t-16 79.5q0 36 14 65.5t34 57.5l77 108q8 11 13 26.5t5 27.5v30
h102v-35zM236 510q27 0 45.5 -19t18.5 -46t-18.5 -46t-45.5 -19t-46 19t-19 46t19 46t46 19z" />
    <glyph glyph-name="Adieresis.aalt" horiz-adv-x="625" 
d="M617 0h-115l-49 143h-281l-49 -143h-115l261 712h87zM203 235h219l-110 316zM423 895q23 0 39.5 -16.5t16.5 -39.5t-16.5 -40t-39.5 -17t-40 17t-17 40t17 39.5t40 16.5zM203 895q23 0 40 -16.5t17 -39.5t-17 -40t-40 -17t-39.5 17t-16.5 40t16.5 39.5t39.5 16.5z" />
    <glyph glyph-name="Ccedilla.salt" horiz-adv-x="628" 
d="M323 718q99 0 167 -56.5t87 -162.5h-110q-12 55 -48 88.5t-96 33.5q-65 0 -105 -43q-14 -14 -22 -31t-13 -41.5t-6.5 -60.5t-1.5 -89t1.5 -89t6.5 -60.5t13 -41.5t22 -31q40 -43 105 -43q60 0 96 33.5t48 88.5h110q-19 -106 -87.5 -162.5t-166.5 -56.5q-59 0 -104 18.5
t-80 53.5q-26 26 -40.5 54t-21.5 61.5t-8.5 76t-1.5 98.5t1.5 98.5t8.5 76t21.5 61.5t40.5 54q35 35 80 53.5t104 18.5zM276 -34q49 0 78.5 -28.5t29.5 -70.5t-29.5 -70.5t-78.5 -28.5v55q20 0 33 13t13 31t-13 31t-33 13v55z" />
    <glyph glyph-name="Edieresis.aalt" horiz-adv-x="603" 
d="M548 615h-347v-208h296v-97h-296v-213h347v-97h-455v712h455v-97zM419 895q23 0 39.5 -16.5t16.5 -39.5t-16.5 -40t-39.5 -17t-40 17t-17 40t17 39.5t40 16.5zM199 895q23 0 40 -16.5t17 -39.5t-17 -40t-40 -17t-39.5 17t-16.5 40t16.5 39.5t39.5 16.5z" />
    <glyph glyph-name="Idieresis.aalt" horiz-adv-x="294" 
d="M201 0h-108v712h108v-712zM259 895q23 0 39.5 -16.5t16.5 -39.5t-16.5 -40t-39.5 -17t-40 17t-17 40t17 39.5t40 16.5zM39 895q23 0 40 -16.5t17 -39.5t-17 -40t-40 -17t-39.5 17t-16.5 40t16.5 39.5t39.5 16.5z" />
    <glyph glyph-name="Odieresis.aalt" horiz-adv-x="646" 
d="M323 718q59 0 104 -18.5t80 -53.5q26 -26 40.5 -54t21.5 -61.5t8.5 -76t1.5 -98.5t-1.5 -98.5t-8.5 -76t-21.5 -61.5t-40.5 -54q-35 -35 -80 -53.5t-104 -18.5t-104 18.5t-80 53.5q-26 26 -40.5 54t-21.5 61.5t-8.5 76t-1.5 98.5t1.5 98.5t8.5 76t21.5 61.5t40.5 54
q35 35 80 53.5t104 18.5zM323 621q-65 0 -106 -43q-13 -14 -21.5 -31t-13 -41.5t-6 -60.5t-1.5 -89t1.5 -88.5t6 -60.5t13 -41.5t21.5 -30.5q42 -44 106 -44t106 44q13 14 21.5 30.5t13 41t6 60.5t1.5 89t-1.5 89t-6 61t-13 41.5t-21.5 30.5q-41 43 -106 43zM433 895
q23 0 39.5 -16.5t16.5 -39.5t-16.5 -40t-39.5 -17t-40 17t-17 40t17 39.5t40 16.5zM213 895q23 0 40 -16.5t17 -39.5t-17 -40t-40 -17t-39.5 17t-16.5 40t16.5 39.5t39.5 16.5z" />
    <glyph glyph-name="Udieresis.aalt" horiz-adv-x="675" 
d="M593 240q0 -55 -19.5 -100.5t-54 -77.5t-81.5 -50t-101 -18t-101 18t-81 50t-53.5 77.5t-19.5 100.5v472h108v-467q0 -72 40 -113t107 -41t107.5 41t40.5 113v467h108v-472zM448 895q23 0 39.5 -16.5t16.5 -39.5t-16.5 -40t-39.5 -17t-40 17t-17 40t17 39.5t40 16.5z
M228 895q23 0 40 -16.5t17 -39.5t-17 -40t-40 -17t-39.5 17t-16.5 40t16.5 39.5t39.5 16.5z" />
    <glyph glyph-name="adieresis.aalt" horiz-adv-x="530" 
d="M245 513q106 0 157.5 -44t51.5 -130v-339h-100v46q-28 -28 -58 -40t-77 -12q-48 0 -80.5 11.5t-55.5 34.5q-40 42 -40 109q0 64 44 105t132 41h133v36q0 49 -25.5 72t-85.5 23q-41 0 -65 -11.5t-46 -38.5l-66 63q18 21 36.5 35t40 23t47 12.5t57.5 3.5zM235 224
q-93 0 -93 -73q0 -35 22.5 -53.5t73.5 -18.5q27 0 49.5 5t42.5 24q22 21 22 75v41h-117zM369 713q23 0 39.5 -16.5t16.5 -39.5t-16.5 -40t-39.5 -17t-40 17t-17 40t17 39.5t40 16.5zM149 713q23 0 40 -16.5t17 -39.5t-17 -40t-40 -17t-39.5 17t-16.5 40t16.5 39.5t39.5 16.5
z" />
    <glyph glyph-name="ccedilla.aalt" horiz-adv-x="487" 
d="M283 513q53 0 92 -16.5t75 -54.5l-70 -68q-24 26 -45.5 37t-51.5 11q-60 0 -94 -45q-17 -21 -23.5 -49.5t-6.5 -73.5t6.5 -74t23.5 -50q34 -45 94 -45q30 0 51.5 11t45.5 37l70 -67q-36 -38 -75 -55t-92 -17q-43 0 -83.5 14t-72 45t-51 80.5t-19.5 120.5t19.5 120.5
t51 80t72 44.5t83.5 14zM234 -177q20 0 33 13t13 31t-13 31t-33 13v55q49 0 78.5 -28.5t29.5 -70.5t-29.5 -70.5t-78.5 -28.5v55z" />
    <glyph glyph-name="edieresis.aalt" horiz-adv-x="540" 
d="M156 224q0 -66 33 -104t96 -38q43 0 69.5 12.5t53.5 39.5l65 -61q-20 -20 -39.5 -34.5t-42 -24.5t-49 -15t-59.5 -5q-48 0 -89.5 13.5t-72 44t-48.5 80.5t-18 122q0 125 58.5 192t156.5 67q51 0 91 -17.5t67.5 -50t42 -78t14.5 -100.5v-43h-329zM384 295q-2 23 -4 37.5
t-10 31.5q-13 29 -38.5 46.5t-61.5 17.5q-37 0 -62.5 -17.5t-38.5 -46.5q-8 -17 -10 -31.5t-3 -37.5h228zM379 713q23 0 39.5 -16.5t16.5 -39.5t-16.5 -40t-39.5 -17t-40 17t-17 40t17 39.5t40 16.5zM159 713q23 0 40 -16.5t17 -39.5t-17 -40t-40 -17t-39.5 17t-16.5 40
t16.5 39.5t39.5 16.5z" />
    <glyph glyph-name="idieresis.aalt" horiz-adv-x="264" 
d="M244 713q23 0 39.5 -16.5t16.5 -39.5t-16.5 -40t-39.5 -17t-40 17t-17 40t17 39.5t40 16.5zM24 713q23 0 40 -16.5t17 -39.5t-17 -40t-40 -17t-39.5 17t-16.5 40t16.5 39.5t39.5 16.5zM183 0h-102v507h102v-507z" />
    <glyph glyph-name="odieresis.aalt" horiz-adv-x="537" 
d="M268 513q52 0 89.5 -17t62.5 -43q36 -38 48 -86.5t12 -112.5q0 -65 -12 -113.5t-48 -86.5q-25 -26 -62.5 -43t-89.5 -17t-89 17t-62 43q-36 38 -48 86.5t-12 113.5q0 64 12 112.5t48 86.5q25 26 62 43t89 17zM268 422q-45 0 -74 -29q-23 -23 -29 -60t-6 -79t6 -79t29 -60
q30 -30 74 -30q45 0 75 30q23 23 29 60t6 79t-6 79t-29 60q-29 29 -75 29zM379 713q23 0 39.5 -16.5t16.5 -39.5t-16.5 -40t-39.5 -17t-40 17t-17 40t17 39.5t40 16.5zM159 713q23 0 40 -16.5t17 -39.5t-17 -40t-40 -17t-39.5 17t-16.5 40t16.5 39.5t39.5 16.5z" />
    <glyph glyph-name="divide.aalt" horiz-adv-x="533" 
d="M484 230h-436v95h436v-95zM266 157q30 0 51.5 -21.5t21.5 -51.5t-21.5 -51.5t-51.5 -21.5t-51 21.5t-21 51.5t21 51.5t51 21.5zM266 544q30 0 51.5 -21.5t21.5 -51.5t-21.5 -51t-51.5 -21t-51 21t-21 51t21 51.5t51 21.5z" />
    <glyph glyph-name="udieresis.aalt" horiz-adv-x="568" 
d="M487 0h-100v51q-26 -29 -61.5 -43t-73.5 -14q-39 0 -70.5 12t-54.5 34q-29 29 -40 64.5t-11 78.5v324h102v-309q0 -59 29.5 -86t72.5 -27q21 0 40.5 6.5t33.5 20.5t22.5 35.5t8.5 50.5v309h102v-507zM391 713q23 0 39.5 -16.5t16.5 -39.5t-16.5 -40t-39.5 -17t-40 17
t-17 40t17 39.5t40 16.5zM171 713q23 0 40 -16.5t17 -39.5t-17 -40t-40 -17t-39.5 17t-16.5 40t16.5 39.5t39.5 16.5z" />
    <glyph glyph-name="ydieresis.aalt" horiz-adv-x="468" 
d="M239 -105q-14 -40 -37 -63q-21 -21 -48 -29t-56 -8h-41v92h26q32 0 47 11.5t26 42.5l29 83l-177 483h108l121 -357l118 357h109zM348 713q23 0 39.5 -16.5t16.5 -39.5t-16.5 -40t-39.5 -17t-40 17t-17 40t17 39.5t40 16.5zM128 713q23 0 40 -16.5t17 -39.5t-17 -40
t-40 -17t-39.5 17t-16.5 40t16.5 39.5t39.5 16.5z" />
    <glyph glyph-name="ij.aalt" horiz-adv-x="528" 
d="M183 0h-102v507h102v-507zM132 738q27 0 46.5 -19.5t19.5 -46.5t-19.5 -46.5t-46.5 -19.5t-46.5 19.5t-19.5 46.5t19.5 46.5t46.5 19.5zM447 -65q0 -28 -8 -53.5t-25 -44.5t-43.5 -30.5t-62.5 -11.5h-63v87h45q31 0 43 15t12 44v566h102v-572zM396 738q27 0 46.5 -19.5
t19.5 -46.5t-19.5 -46.5t-46.5 -19.5t-46.5 19.5t-19.5 46.5t19.5 46.5t46.5 19.5z" />
    <glyph glyph-name="Ydieresis.aalt" horiz-adv-x="544" 
d="M326 293v-293h-108v293l-213 419h118l149 -313l149 313h118zM383 895q23 0 39.5 -16.5t16.5 -39.5t-16.5 -40t-39.5 -17t-40 17t-17 40t17 39.5t40 16.5zM163 895q23 0 40 -16.5t17 -39.5t-17 -40t-40 -17t-39.5 17t-16.5 40t16.5 39.5t39.5 16.5z" />
    <glyph glyph-name="dotaccent.aalt" horiz-adv-x="537" 
d="M268 720q23 0 40 -16.5t17 -39.5t-16.5 -40t-39.5 -17q-24 0 -40.5 16.5t-16.5 39.5q0 24 16.5 40.5t39.5 16.5z" />
    <glyph glyph-name="ogonek.aalt" horiz-adv-x="537" 
d="M313 -231q-49 0 -78.5 28.5t-29.5 70.5t29.5 70.5t78.5 28.5v-55q-20 0 -33 -13t-13 -31t13 -31t33 -13v-55z" />
    <glyph glyph-name="uni0327.aalt" horiz-adv-x="1" 
d="M-52 -177q20 0 33 13t13 31t-13 31t-33 13v55q49 0 78.5 -28.5t29.5 -70.5t-29.5 -70.5t-78.5 -28.5v55z" />
    <glyph glyph-name="uni0328.aalt" horiz-adv-x="1" 
d="M56 -231q-49 0 -78.5 28.5t-29.5 70.5t29.5 70.5t78.5 28.5v-55q-20 0 -33 -13t-13 -31t13 -31t33 -13v-55z" />
    <glyph glyph-name="uni037E.aalt" horiz-adv-x="303" 
d="M226 -60l-116 -95v271h116v-176zM168 420q30 0 51 -21.5t21 -51.5t-21 -51.5t-51 -21.5t-51.5 21.5t-21.5 51.5t21.5 51.5t51.5 21.5z" />
    <glyph glyph-name="ellipsis.aalt" horiz-adv-x="821" 
d="M670 142q30 0 51.5 -21t21.5 -51t-21.5 -51.5t-51.5 -21.5t-51.5 21.5t-21.5 51.5t21.5 51t51.5 21zM151 142q30 0 51.5 -21t21.5 -51t-21.5 -51.5t-51.5 -21.5t-51.5 21.5t-21.5 51.5t21.5 51t51.5 21zM410 142q30 0 51.5 -21t21.5 -51t-21.5 -51.5t-51.5 -21.5
t-51 21.5t-21 51.5t21 51t51 21z" />
    <glyph glyph-name="uni2071.aalt" horiz-adv-x="150" 
d="M75 645q-16 0 -27.5 11.5t-11.5 28.5q0 16 11.5 27.5t27.5 11.5q17 0 28 -11.5t11 -27.5q0 -17 -11 -28.5t-28 -11.5zM108 328h-66v269h66v-269z" />
    <glyph glyph-name="dotmath.aalt" horiz-adv-x="533" 
d="M266 350q30 0 51.5 -21t21.5 -51t-21.5 -51.5t-51.5 -21.5t-51.5 21.5t-21.5 51.5t21.5 51t51.5 21z" />
    <glyph glyph-name="uniFB01.aalt" horiz-adv-x="585" 
d="M300 625h-45q-29 0 -42.5 -15.5t-13.5 -43.5v-59h101v-78h-101v-429h-102v429h-58v78h58v64q0 27 8.5 52.5t25.5 45t43 31.5t62 12h64v-87zM504 0h-102v507h102v-507zM453 738q27 0 46.5 -19.5t19.5 -46.5t-19.5 -46.5t-46.5 -19.5t-46.5 19.5t-19.5 46.5t19.5 46.5
t46.5 19.5z" />
    <glyph glyph-name="exclamdown.case.salt" horiz-adv-x="332" 
d="M211 0h-124l23 500h77zM149 715q27 0 46 -19t19 -46t-19 -46t-46 -19t-46 19t-19 46t19 46t46 19z" />
    <glyph glyph-name="periodcentered.case.salt" horiz-adv-x="284" 
d="M142 430q30 0 51.5 -21t21.5 -51t-21.5 -51.5t-51.5 -21.5t-51.5 21.5t-21.5 51.5t21.5 51t51.5 21z" />
    <glyph glyph-name="questiondown.case.salt" horiz-adv-x="511" 
d="M286 465q0 -31 -8 -53t-26 -46l-78 -105q-14 -18 -22.5 -36.5t-8.5 -39.5q0 -42 27 -71t71 -29q47 0 72 30t25 71h102q0 -42 -15 -77.5t-42 -61t-63.5 -39.5t-78.5 -14q-41 0 -77.5 13t-63.5 38t-43 60.5t-16 79.5q0 36 14 65.5t34 57.5l77 108q8 11 13 26.5t5 27.5v30
h102v-35zM236 715q27 0 45.5 -19t18.5 -46t-18.5 -46t-45.5 -19t-46 19t-19 46t19 46t46 19z" />
    <glyph glyph-name="zero.zero.salt" horiz-adv-x="533" 
d="M266 -6q-42 0 -79.5 14t-65.5 40.5t-44 64t-16 85.5v316q0 48 16 85.5t44 64t65.5 40.5t79.5 14q43 0 80.5 -14t65.5 -40.5t44 -64t16 -85.5v-316q0 -48 -16 -85.5t-44 -64t-65.5 -40.5t-80.5 -14zM266 85q49 0 76.5 32.5t27.5 83.5v310q0 51 -27.5 83.5t-76.5 32.5
q-48 0 -75.5 -32.5t-27.5 -83.5v-310q0 -51 27.5 -83.5t75.5 -32.5zM267 414q23 0 40 -17t17 -40t-17 -40t-40 -17t-40 17t-17 40t17 40t40 17z" />
    <glyph glyph-name="zero.oldstyle.pnum.zero.salt" horiz-adv-x="534" 
d="M267 -6q-42 0 -79.5 14t-65.5 40.5t-44.5 64t-16.5 85.5v201q0 48 16.5 85.5t44.5 64t65.5 40.5t79.5 14t79.5 -14t65.5 -40.5t44.5 -64t16.5 -85.5v-201q0 -48 -16.5 -85.5t-44.5 -64t-65.5 -40.5t-79.5 -14zM267 85q49 0 76.5 32t27.5 84v195q0 52 -27.5 84t-76.5 32
t-76.5 -32t-27.5 -84v-195q0 -52 27.5 -84t76.5 -32zM268 356q23 0 40 -17t17 -40t-17 -40t-40 -17t-40 17t-17 40t17 40t40 17z" />
    <glyph glyph-name="zero.pnum.zero.salt" horiz-adv-x="533" 
d="M266 -6q-42 0 -79.5 14t-65.5 40.5t-44 64t-16 85.5v316q0 48 16 85.5t44 64t65.5 40.5t79.5 14q43 0 80.5 -14t65.5 -40.5t44 -64t16 -85.5v-316q0 -48 -16 -85.5t-44 -64t-65.5 -40.5t-80.5 -14zM266 85q49 0 76.5 32.5t27.5 83.5v310q0 51 -27.5 83.5t-76.5 32.5
q-48 0 -75.5 -32.5t-27.5 -83.5v-310q0 -51 27.5 -83.5t75.5 -32.5zM267 414q23 0 40 -17t17 -40t-17 -40t-40 -17t-40 17t-17 40t17 40t40 17z" />
    <glyph glyph-name="zero.oldstyle.zero.salt" horiz-adv-x="534" 
d="M267 -6q-42 0 -79.5 14t-65.5 40.5t-44.5 64t-16.5 85.5v201q0 48 16.5 85.5t44.5 64t65.5 40.5t79.5 14t79.5 -14t65.5 -40.5t44.5 -64t16.5 -85.5v-201q0 -48 -16.5 -85.5t-44.5 -64t-65.5 -40.5t-79.5 -14zM267 85q49 0 76.5 32t27.5 84v195q0 52 -27.5 84t-76.5 32
t-76.5 -32t-27.5 -84v-195q0 -52 27.5 -84t76.5 -32zM268 356q23 0 40 -17t17 -40t-17 -40t-40 -17t-40 17t-17 40t17 40t40 17z" />
    <glyph glyph-name="glyph575" horiz-adv-x="537" 
d="M379 713q23 0 39.5 -16.5t16.5 -39.5t-16.5 -40t-39.5 -17t-40 17t-17 40t17 39.5t40 16.5zM159 713q23 0 40 -16.5t17 -39.5t-17 -40t-40 -17t-39.5 17t-16.5 40t16.5 39.5t39.5 16.5z" />
    <glyph glyph-name="glyph576" horiz-adv-x="537" 
d="M234 -177q20 0 33 13t13 31t-13 31t-33 13v55q49 0 78.5 -28.5t29.5 -70.5t-29.5 -70.5t-78.5 -28.5v55z" />
    <glyph glyph-name="glyph577" horiz-adv-x="537" 
d="M268 720q23 0 40 -16.5t17 -39.5t-16.5 -40t-39.5 -17q-24 0 -40.5 16.5t-16.5 39.5q0 24 16.5 40.5t39.5 16.5z" />
    <glyph glyph-name="glyph578" horiz-adv-x="537" 
d="M313 -231q-49 0 -78.5 28.5t-29.5 70.5t29.5 70.5t78.5 28.5v-55q-20 0 -33 -13t-13 -31t13 -31t33 -13v-55z" />
    <glyph glyph-name="glyph579" horiz-adv-x="537" 
d="M233 -34q49 0 78.5 -28.5t29.5 -70.5t-29.5 -70.5t-78.5 -28.5v55q20 0 33 13t13 31t-13 31t-33 13v55z" />
    <glyph glyph-name="glyph580" horiz-adv-x="646" 
d="M433 895q23 0 39.5 -16.5t16.5 -39.5t-16.5 -40t-39.5 -17t-40 17t-17 40t17 39.5t40 16.5zM213 895q23 0 40 -16.5t17 -39.5t-17 -40t-40 -17t-39.5 17t-16.5 40t16.5 39.5t39.5 16.5z" />
    <glyph glyph-name="glyph581" horiz-adv-x="646" 
d="M276 -34q49 0 78.5 -28.5t29.5 -70.5t-29.5 -70.5t-78.5 -28.5v55q20 0 33 13t13 31t-13 31t-33 13v55z" />
    <glyph glyph-name="glyph582" horiz-adv-x="646" 
d="M323 897q23 0 40 -17t17 -40t-17 -40t-40 -17t-40 17t-17 40t17 40t40 17z" />
    <glyph glyph-name="glyph583" horiz-adv-x="646" 
d="M374 -88q-20 0 -33 -13t-13 -31t13 -31t33 -13v-55q-49 0 -78.5 28.5t-29.5 70.5t29.5 70.5t78.5 28.5v-55z" />
    <glyph glyph-name="glyph584" horiz-adv-x="646" 
d="M276 -34q49 0 78.5 -28.5t29.5 -70.5t-29.5 -70.5t-78.5 -28.5v55q20 0 33 13t13 31t-13 31t-33 13v55z" />
    <glyph glyph-name="C.aalt" horiz-adv-x="600" 
d="M323 718q67 0 113 -23t86 -61l-72 -73q-28 28 -55.5 44t-71.5 16q-65 0 -105 -43q-13 -14 -21.5 -31t-13 -41.5t-6.5 -60.5t-2 -89t2 -89t6.5 -60.5t13 -41.5t21.5 -31q40 -43 105 -43q44 0 71.5 16t55.5 44l72 -73q-40 -38 -86 -61t-113 -23q-59 0 -104 19t-80 54
q-26 26 -40.5 53.5t-21.5 61t-8.5 76t-1.5 98.5t1.5 98.5t8.5 76t21.5 61t40.5 53.5q35 35 80 54t104 19z" />
    <glyph glyph-name="G.aalt" horiz-adv-x="646" 
d="M323 718q36 0 65 -6t54.5 -17.5t48.5 -29t47 -41.5l-73 -73q-17 16 -32 29t-31.5 22t-35.5 14t-43 5q-64 0 -105 -44q-14 -14 -22 -30.5t-13 -41t-6.5 -60.5t-1.5 -89t1.5 -89t6.5 -60.5t13 -41.5t22 -31q40 -43 105 -43q35 0 64 13t50 37q19 23 27 51.5t8 61.5v39h-149
v92h257v-107q0 -70 -14 -117t-49 -85q-38 -40 -86.5 -61t-107.5 -21t-104 19t-80 54q-26 26 -40.5 53.5t-21.5 61t-8.5 76t-1.5 98.5t1.5 98.5t8.5 76t21.5 61t40.5 53.5q35 35 80 54t104 19z" />
    <glyph glyph-name="Ccedilla.ss03" horiz-adv-x="600" 
d="M323 718q67 0 113 -23t86 -61l-72 -73q-28 28 -55.5 44t-71.5 16q-65 0 -105 -43q-13 -14 -21.5 -31t-13 -41.5t-6.5 -60.5t-2 -89t2 -89t6.5 -60.5t13 -41.5t21.5 -31q40 -43 105 -43q44 0 71.5 16t55.5 44l72 -73q-40 -38 -86 -61t-113 -23q-59 0 -104 19t-80 54
q-26 26 -40.5 53.5t-21.5 61t-8.5 76t-1.5 98.5t1.5 98.5t8.5 76t21.5 61t40.5 53.5q35 35 80 54t104 19zM320 -209h-101l70 147h82z" />
    <glyph glyph-name="Euro.aalt" horiz-adv-x="617" 
d="M366 718q67 0 113 -23t86 -62l-71 -71q-14 14 -27.5 25t-28.5 19t-32.5 12t-39.5 4q-64 0 -105 -44q-19 -20 -27 -44t-11 -66h183v-67h-183v-86h183v-67h-183q2 -45 10 -69.5t28 -44.5q41 -44 105 -44q22 0 39.5 4t32.5 12t28.5 19t27.5 25l71 -71q-40 -39 -86 -62
t-113 -23q-57 0 -103 19t-81 54q-18 18 -30.5 37t-20.5 40.5t-12 46.5t-6 57h-70v67h70v86h-70v67h70q2 30 6 55t12 46t20.5 39.5t30.5 36.5q35 35 81 54t103 19z" />
    <glyph glyph-name="uni20BA.aalt" horiz-adv-x="546" 
d="M214 478l146 92v-71l-146 -92v-87l146 92v-71l-146 -92v-153h78q49 0 84.5 17.5t67.5 53.5l72 -71q-23 -26 -46.5 -44t-49.5 -29.5t-56 -17t-66 -5.5h-192v181l-68 -43v71l68 43v87l-68 -43v71l68 43v302h108v-234z" />
    <glyph glyph-name="Ccedilla.salt.ss03" horiz-adv-x="600" 
d="M323 718q67 0 113 -23t86 -61l-72 -73q-28 28 -55.5 44t-71.5 16q-65 0 -105 -43q-13 -14 -21.5 -31t-13 -41.5t-6.5 -60.5t-2 -89t2 -89t6.5 -60.5t13 -41.5t21.5 -31q40 -43 105 -43q44 0 71.5 16t55.5 44l72 -73q-40 -38 -86 -61t-113 -23q-59 0 -104 19t-80 54
q-26 26 -40.5 53.5t-21.5 61t-8.5 76t-1.5 98.5t1.5 98.5t8.5 76t21.5 61t40.5 53.5q35 35 80 54t104 19zM276 -34q49 0 78.5 -28.5t29.5 -70.5t-29.5 -70.5t-78.5 -28.5v55q20 0 33 13t13 31t-13 31t-33 13v55z" />
    <glyph glyph-name="at.aalt" horiz-adv-x="970" 
d="M517 691q86 0 157 -26.5t122 -74.5t79 -114.5t28 -145.5q0 -60 -22 -113.5t-61.5 -94.5t-94.5 -65t-120 -24h-84l11 52q-29 -33 -56 -46.5t-61 -13.5q-65 0 -103.5 37.5t-38.5 101.5q0 20 3 43t8 47q14 67 31.5 111t50.5 73q27 23 58 33.5t63 10.5q44 0 69.5 -17.5
t39.5 -43.5l10 54h92l-75 -376q45 2 82 21t63 50t40.5 72t14.5 88q0 65 -22.5 118t-63 90.5t-96.5 58t-124 20.5q-77 0 -144 -28.5t-116.5 -78.5t-78 -117t-28.5 -145q0 -83 26 -150.5t74.5 -115.5t117.5 -74t155 -26h63l-14 -70h-63q-99 0 -180 32.5t-139.5 90.5t-90.5 138
t-32 175q0 94 34.5 175t95.5 140.5t143 93.5t177 34zM499 398q-19 0 -36.5 -6.5t-30.5 -19.5q-18 -17 -31 -44.5t-21 -73.5q-3 -17 -5.5 -35t-2.5 -33q0 -37 18.5 -57t50.5 -20q19 0 36.5 6.5t32.5 21.5q17 16 29.5 42.5t21.5 74.5q3 17 5.5 34.5t2.5 32.5q0 42 -21 59.5
t-49 17.5z" />
    <glyph glyph-name="uni20BD.aalt" horiz-adv-x="637" 
d="M371 712q52 0 94 -16.5t72 -45t46 -68.5t16 -86q0 -47 -16 -86t-46 -68t-72 -45t-94 -16h-162v-87h128v-77h-128v-117h-108v117h-63v77h63v518h270zM209 615v-238h156q57 0 91.5 31t34.5 88t-34.5 88t-91.5 31h-156z" />
    <glyph glyph-name="uni03A9.aalt" horiz-adv-x="646" 
d="M323 160q-70 0 -117 21.5t-73 50.5q-30 32 -48 79t-18 128t18 128t48 79q26 29 73 50.5t117 21.5q71 0 117.5 -21.5t73.5 -50.5q30 -32 47.5 -79t17.5 -128t-17.5 -128t-47.5 -79q-27 -29 -73.5 -50.5t-117.5 -21.5zM79 97h488v-97h-488v97zM323 257q38 0 65 12t44 31
q20 21 29.5 51.5t9.5 87.5t-9.5 87.5t-29.5 51.5q-17 19 -44 31t-65 12t-65 -12t-44 -31q-20 -21 -29 -51.5t-9 -87.5t9 -87.5t29 -51.5q17 -19 44 -31t65 -12z" />
    <glyph glyph-name="Omega.aalt" horiz-adv-x="646" 
d="M323 160q-70 0 -117 21.5t-73 50.5q-30 32 -48 79t-18 128t18 128t48 79q26 29 73 50.5t117 21.5q71 0 117.5 -21.5t73.5 -50.5q30 -32 47.5 -79t17.5 -128t-17.5 -128t-47.5 -79q-27 -29 -73.5 -50.5t-117.5 -21.5zM79 97h488v-97h-488v97zM323 257q38 0 65 12t44 31
q20 21 29.5 51.5t9.5 87.5t-9.5 87.5t-29.5 51.5q-17 19 -44 31t-65 12t-65 -12t-44 -31q-20 -21 -29 -51.5t-9 -87.5t9 -87.5t29 -51.5q17 -19 44 -31t65 -12z" />
    <glyph glyph-name="glyph595" horiz-adv-x="799" 
d="M717 225q0 -56 -18.5 -99t-51 -72t-75.5 -44.5t-92 -15.5q-55 0 -95.5 16t-77.5 53l72 71q19 -19 40.5 -31t60.5 -12q60 0 94.5 36t34.5 106v479h108v-487zM691 781h-77l75 162h113zM201 0h-108v712h108v-712zM177 781h-77l75 162h113z" />
    <glyph glyph-name="glyph596" horiz-adv-x="505" 
d="M423 225q0 -56 -18.5 -99t-51 -72t-75.5 -44.5t-92 -15.5q-55 0 -95.5 16t-77.5 53l72 71q19 -19 40.5 -31t60.5 -12q60 0 94.5 36t34.5 106v479h108v-487zM397 781h-77l75 162h113z" />
    <glyph glyph-name="glyph597" horiz-adv-x="646" 
d="M349 612l-91 -76v198h91v-122z" />
    <glyph glyph-name="glyph598" horiz-adv-x="528" 
d="M447 -65q0 -28 -8 -53.5t-25 -44.5t-43.5 -30.5t-62.5 -11.5h-63v87h45q31 0 43 15t12 44v566h102v-572zM431 599h-77l75 162h113zM168 599h-77l75 162h113zM183 0h-102v507h102v-507z" />
    <glyph glyph-name="glyph599" horiz-adv-x="264" 
d="M183 -65q0 -28 -8 -53.5t-25 -44.5t-43.5 -30.5t-62.5 -11.5h-63v87h45q31 0 43 15t12 44v566h102v-572zM168 599h-77l75 162h113z" />
    <glyph glyph-name="glyph600" horiz-adv-x="537" 
d="M309 599h-77l-111 162h113z" />
    <glyph glyph-name="glyph601" horiz-adv-x="537" 
d="M423 604h-92v108h92v-108zM207 604h-92v108h92v-108z" />
    <glyph glyph-name="glyph602" horiz-adv-x="537" 
d="M423 618h-309v73h309v-73z" />
    <glyph glyph-name="glyph603" horiz-adv-x="537" 
d="M303 599h-77l75 162h113z" />
    <glyph glyph-name="glyph604" horiz-adv-x="537" 
d="M233 -63h82l-51 -147h-101z" />
    <glyph glyph-name="glyph605" horiz-adv-x="537" 
d="M441 599h-85l-87 97l-87 -97h-85l129 161h86z" />
    <glyph glyph-name="glyph606" horiz-adv-x="537" 
d="M312 599h-86l-129 161h85l87 -97l87 97h85z" />
    <glyph glyph-name="glyph607" horiz-adv-x="537" 
d="M433 738q-5 -75 -49 -110t-115 -35q-72 0 -116 35t-49 110h72q5 -35 30 -52.5t63 -17.5q14 0 29.5 4t28.5 12.5t22.5 21.5t11.5 32h72z" />
    <glyph glyph-name="glyph608" horiz-adv-x="537" 
d="M314 604h-92v108h92v-108z" />
    <glyph glyph-name="glyph609" horiz-adv-x="537" 
d="M269 826q26 0 48.5 -10t39.5 -27t27 -39.5t10 -48.5t-10 -48.5t-27 -39.5t-39.5 -27t-48.5 -10t-48.5 10t-39.5 27t-27 39.5t-10 48.5t10 48.5t27 39.5t39.5 27t48.5 10zM269 764q-26 0 -45 -18.5t-19 -44.5t19 -44.5t45 -18.5t45 18.5t19 44.5t-19 44.5t-45 18.5z" />
    <glyph glyph-name="glyph610" horiz-adv-x="537" 
d="M233 -64h80l-51 -146h-98z" />
    <glyph glyph-name="glyph611" horiz-adv-x="537" 
d="M202 723q22 0 38.5 -6t36.5 -18q15 -9 27.5 -14t27.5 -5q12 0 25.5 5.5t33.5 25.5l48 -47q-34 -34 -57.5 -44.5t-46.5 -10.5q-22 0 -38.5 6t-36.5 17q-14 8 -27.5 13.5t-28.5 5.5q-13 0 -25 -4.5t-33 -25.5l-48 47q34 34 57 44.5t47 10.5z" />
    <glyph glyph-name="glyph612" horiz-adv-x="537" 
d="M396 761h106l-105 -162h-84zM199 761h106l-104 -162h-84z" />
    <glyph glyph-name="glyph613" horiz-adv-x="537" 
d="M233 -63h82l-51 -147h-101z" />
    <glyph glyph-name="glyph614" horiz-adv-x="537" 
d="M433 738q-5 -75 -49 -110t-115 -35q-72 0 -116 35t-49 110h72q5 -35 30 -52.5t63 -17.5q14 0 29.5 4t28.5 12.5t22.5 21.5t11.5 32h72zM315 764h-92v108h92v-108z" />
    <glyph glyph-name="glyph615" horiz-adv-x="537" 
d="M264 -210h-101l70 147h82z" />
    <glyph glyph-name="glyph616" horiz-adv-x="646" 
d="M324 784q-72 0 -116 35t-49 110h72q5 -35 30 -52.5t63 -17.5q14 0 29.5 4t28.5 12.5t22.5 21.5t11.5 32h72q-5 -75 -49 -110t-115 -35zM355 1122h113l-111 -162h-77z" />
    <glyph glyph-name="glyph617" horiz-adv-x="646" 
d="M488 929q-5 -75 -49 -110t-115 -35q-72 0 -116 35t-49 110h72q5 -35 30 -52.5t63 -17.5q14 0 29.5 4t28.5 12.5t22.5 21.5t11.5 32h72zM376 964h-77l-111 162h113z" />
    <glyph glyph-name="glyph618" horiz-adv-x="646" 
d="M488 929q-5 -75 -49 -110t-115 -35q-72 0 -116 35t-49 110h72q5 -35 30 -52.5t63 -17.5q14 0 29.5 4t28.5 12.5t22.5 21.5t11.5 32h72zM306 1134q49 0 78.5 -28.5t29.5 -70.5t-29.5 -70t-78.5 -28v54q20 0 33 13t13 31t-13 31t-33 13v55z" />
    <glyph glyph-name="glyph619" horiz-adv-x="646" 
d="M324 784q-72 0 -116 35t-49 110h72q5 -35 30 -52.5t63 -17.5q14 0 29.5 4t28.5 12.5t22.5 21.5t11.5 32h72q-5 -75 -49 -110t-115 -35zM390 977q-22 0 -38.5 6t-36.5 17q-14 8 -27.5 13.5t-28.5 5.5q-13 0 -25 -4.5t-33 -25.5l-48 47q34 34 57 44.5t47 10.5q22 0 38.5 -6
t36.5 -18q15 -9 27.5 -14t27.5 -5q12 0 25.5 5.5t33.5 25.5l48 -47q-34 -34 -57.5 -44.5t-46.5 -10.5z" />
    <glyph glyph-name="glyph620" horiz-adv-x="646" 
d="M495 781h-86l-86 97l-87 -97h-85l129 161h86zM559 856h-77l75 162h113z" />
    <glyph glyph-name="glyph621" horiz-adv-x="646" 
d="M280 942h86l129 -161h-85l-87 97l-87 -97h-85zM394 1017h106l107 -162h-85z" />
    <glyph glyph-name="glyph622" horiz-adv-x="646" 
d="M280 942h86l129 -161h-85l-87 97l-87 -97h-85zM489 901q20 0 33 13t13 31t-13 31t-33 13v54q49 0 78.5 -28t29.5 -70t-29.5 -70.5t-78.5 -28.5v55z" />
    <glyph glyph-name="glyph623" horiz-adv-x="646" 
d="M280 942h86l129 -161h-85l-87 97l-87 -97h-85zM389 987q-22 0 -38.5 6t-36.5 17q-14 8 -27.5 13.5t-28.5 5.5q-13 0 -25 -4.5t-33 -25.5l-48 47q34 34 57 44.5t47 10.5q22 0 38.5 -6t36.5 -18q15 -9 27.5 -14t27.5 -5q12 0 25.5 5.5t33.5 25.5l48 -47
q-34 -34 -57.5 -44.5t-46.5 -10.5z" />
    <glyph glyph-name="glyph624" horiz-adv-x="646" 
d="M369 781h-77l-111 162h113z" />
    <glyph glyph-name="glyph625" horiz-adv-x="646" 
d="M477 786h-92v108h92v-108zM261 786h-92v108h92v-108z" />
    <glyph glyph-name="glyph626" horiz-adv-x="646" 
d="M478 795h-309v73h309v-73z" />
    <glyph glyph-name="glyph627" horiz-adv-x="646" 
d="M351 781h-77l75 162h113z" />
    <glyph glyph-name="glyph628" horiz-adv-x="646" 
d="M320 -209h-101l70 147h82z" />
    <glyph glyph-name="glyph629" horiz-adv-x="646" 
d="M495 781h-85l-87 97l-87 -97h-85l129 161h86z" />
    <glyph glyph-name="glyph630" horiz-adv-x="646" 
d="M366 781h-86l-129 161h85l87 -97l87 97h85z" />
    <glyph glyph-name="glyph631" horiz-adv-x="646" 
d="M488 929q-5 -75 -49 -110t-115 -35q-72 0 -116 35t-49 110h72q5 -35 30 -52.5t63 -17.5q14 0 29.5 4t28.5 12.5t22.5 21.5t11.5 32h72z" />
    <glyph glyph-name="glyph632" horiz-adv-x="646" 
d="M277 894h92v-108h-92v108z" />
    <glyph glyph-name="glyph633" horiz-adv-x="646" 
d="M323 1004q26 0 48.5 -10t39.5 -27t27 -39.5t10 -48.5t-10 -48.5t-27 -39.5t-39.5 -27t-48.5 -10t-48.5 10t-39.5 27t-27 39.5t-10 48.5t10 48.5t27 39.5t39.5 27t48.5 10zM323 942q-26 0 -45 -18.5t-19 -44.5t19 -44.5t45 -18.5t45 18.5t19 44.5t-19 44.5t-45 18.5z" />
    <glyph glyph-name="glyph634" horiz-adv-x="646" 
d="M292 -64h80l-51 -146h-98z" />
    <glyph glyph-name="glyph635" horiz-adv-x="646" 
d="M257 905q22 0 38.5 -6t36.5 -18q15 -9 27.5 -14t27.5 -5q12 0 25.5 5.5t33.5 25.5l48 -47q-34 -34 -57.5 -44.5t-46.5 -10.5q-22 0 -38.5 6t-36.5 17q-14 8 -27.5 13.5t-28.5 5.5q-13 0 -25 -4.5t-33 -25.5l-48 47q34 34 57 44.5t47 10.5z" />
    <glyph glyph-name="glyph636" horiz-adv-x="646" 
d="M447 943h105l-104 -162h-84zM250 943h106l-104 -162h-84z" />
    <glyph glyph-name="glyph637" horiz-adv-x="646" 
d="M320 -209h-101l70 147h82z" />
    <glyph glyph-name="glyph638" horiz-adv-x="646" 
d="M488 929q-5 -75 -49 -110t-115 -35q-72 0 -116 35t-49 110h72q5 -35 30 -52.5t63 -17.5q14 0 29.5 4t28.5 12.5t22.5 21.5t11.5 32h72zM371 955h-93v108h93v-108z" />
    <glyph glyph-name="glyph639" horiz-adv-x="646" 
d="M292 -64h80l-51 -146h-98z" />
    </font>
</defs>
</svg>
